<?xml version="1.0" encoding="UTF-8" standalone="no"?><svg xmlns="http://www.w3.org/2000/svg" xmlns:xlink="http://www.w3.org/1999/xlink" clip-rule="evenodd" stroke-miterlimit="4.00" viewBox="0 0 1024 768"><desc>SVG generated by Keynote</desc><defs></defs><g transform="matrix(1.00, 0.00, -0.00, -1.00, 0.0, 768.0)"><g><clipPath id="clip-211"><path d="M 0.0 768.0 L 1024.0 768.0 L 1024.0 0.0 L 0.0 0.0 Z M 0.0 768.0 "></path></clipPath><g clip-path="url(#clip-211)"><image xlink:href="../../0DD753C0-5033-491F-95E9-445A852AF51F/assets/55BAE69444A6F2CB4F283A796D63A365.jpeg" width="1024.00" height="768.00" transform="matrix(1.00, 0.00, -0.00, -1.00, 0.0, 768.0)"></image></g></g><image xlink:href="../../9639EBB2-4B0E-4BC0-8CA9-A4D7347C26A5/assets/DF0A4809ADD2223B0266675721EEB1AF.png" width="876.00" height="75.00" transform="matrix(1.00, 0.00, -0.00, -1.00, 67.0, 677.0)"></image><text xml:space="preserve" font-family="HelveticaNeue-Light" font-size="72.0" fill="#FEFFFE" transform="matrix(1.00, 0.00, -0.00, -1.00, 66.0, 624.0)">D</text><text xml:space="preserve" font-family="HelveticaNeue-Light" font-size="72.0" fill="#FEFFFE" transform="matrix(1.00, 0.00, -0.00, -1.00, 115.3, 624.0)">j</text><text xml:space="preserve" font-family="HelveticaNeue-Light" font-size="72.0" fill="#FEFFFE" transform="matrix(1.00, 0.00, -0.00, -1.00, 128.6, 624.0)">a</text><text xml:space="preserve" font-family="HelveticaNeue-Light" font-size="72.0" fill="#FEFFFE" transform="matrix(1.00, 0.00, -0.00, -1.00, 166.0, 624.0)">n</text><text xml:space="preserve" font-family="HelveticaNeue-Light" font-size="72.0" fill="#FEFFFE" transform="matrix(1.00, 0.00, -0.00, -1.00, 204.7, 624.0)">g</text><text xml:space="preserve" font-family="HelveticaNeue-Light" font-size="72.0" fill="#FEFFFE" transform="matrix(1.00, 0.00, -0.00, -1.00, 244.7, 624.0)">o</text><text xml:space="preserve" font-family="HelveticaNeue-Light" font-size="72.0" fill="#FEFFFE" transform="matrix(1.00, 0.00, -0.00, -1.00, 284.7, 624.0)"> </text><text xml:space="preserve" font-family="HelveticaNeue-Light" font-size="72.0" fill="#FEFFFE" transform="matrix(1.00, 0.00, -0.00, -1.00, 304.8, 624.0)">i</text><text xml:space="preserve" font-family="HelveticaNeue-Light" font-size="72.0" fill="#FEFFFE" transform="matrix(1.00, 0.00, -0.00, -1.00, 318.1, 624.0)">s</text><text xml:space="preserve" font-family="HelveticaNeue-Light" font-size="72.0" fill="#FEFFFE" transform="matrix(1.00, 0.00, -0.00, -1.00, 352.7, 624.0)"> </text><text xml:space="preserve" font-family="HelveticaNeue-Light" font-size="72.0" fill="#FEFFFE" transform="matrix(1.00, 0.00, -0.00, -1.00, 372.7, 624.0)">a</text><text xml:space="preserve" font-family="HelveticaNeue-Light" font-size="72.0" fill="#FEFFFE" transform="matrix(1.00, 0.00, -0.00, -1.00, 410.1, 624.0)"> </text><text xml:space="preserve" font-family="HelveticaNeue-Light" font-size="72.0" fill="#FEFFFE" transform="matrix(1.00, 0.00, -0.00, -1.00, 430.1, 624.0)"> </text><text xml:space="preserve" font-family="HelveticaNeue-Light" font-size="72.0" fill="#FEFFFE" transform="matrix(1.00, 0.00, -0.00, -1.00, 450.1, 624.0)"> </text><text xml:space="preserve" font-family="HelveticaNeue-Light" font-size="72.0" fill="#FEFFFE" transform="matrix(1.00, 0.00, -0.00, -1.00, 470.1, 624.0)"> </text><text xml:space="preserve" font-family="HelveticaNeue-Light" font-size="72.0" fill="#FEFFFE" transform="matrix(1.00, 0.00, -0.00, -1.00, 490.2, 624.0)"> </text><text xml:space="preserve" font-family="HelveticaNeue-Light" font-size="72.0" fill="#FEFFFE" transform="matrix(1.00, 0.00, -0.00, -1.00, 510.2, 624.0)"> </text><text xml:space="preserve" font-family="HelveticaNeue-Light" font-size="72.0" fill="#FEFFFE" transform="matrix(1.00, 0.00, -0.00, -1.00, 530.2, 624.0)"> </text><text xml:space="preserve" font-family="HelveticaNeue-Light" font-size="72.0" fill="#FEFFFE" transform="matrix(1.00, 0.00, -0.00, -1.00, 550.2, 624.0)"> </text><text xml:space="preserve" font-family="HelveticaNeue-Light" font-size="72.0" fill="#FEFFFE" transform="matrix(1.00, 0.00, -0.00, -1.00, 570.2, 624.0)"> </text><text xml:space="preserve" font-family="HelveticaNeue-Light" font-size="72.0" fill="#FEFFFE" transform="matrix(1.00, 0.00, -0.00, -1.00, 590.2, 624.0)"> </text><text xml:space="preserve" font-family="HelveticaNeue-Light" font-size="72.0" fill="#FEFFFE" transform="matrix(1.00, 0.00, -0.00, -1.00, 610.2, 624.0)">f</text><text xml:space="preserve" font-family="HelveticaNeue-Light" font-size="72.0" fill="#FEFFFE" transform="matrix(1.00, 0.00, -0.00, -1.00, 628.9, 624.0)">r</text><text xml:space="preserve" font-family="HelveticaNeue-Light" font-size="72.0" fill="#FEFFFE" transform="matrix(1.00, 0.00, -0.00, -1.00, 651.6, 624.0)">a</text><text xml:space="preserve" font-family="HelveticaNeue-Light" font-size="72.0" fill="#FEFFFE" transform="matrix(1.00, 0.00, -0.00, -1.00, 688.9, 624.0)">m</text><text xml:space="preserve" font-family="HelveticaNeue-Light" font-size="72.0" fill="#FEFFFE" transform="matrix(1.00, 0.00, -0.00, -1.00, 748.9, 624.0)">e</text><text xml:space="preserve" font-family="HelveticaNeue-Light" font-size="72.0" fill="#FEFFFE" transform="matrix(1.00, 0.00, -0.00, -1.00, 786.3, 624.0)">w</text><text xml:space="preserve" font-family="HelveticaNeue-Light" font-size="72.0" fill="#FEFFFE" transform="matrix(1.00, 0.00, -0.00, -1.00, 839.6, 624.0)">o</text><text xml:space="preserve" font-family="HelveticaNeue-Light" font-size="72.0" fill="#FEFFFE" transform="matrix(1.00, 0.00, -0.00, -1.00, 879.7, 624.0)">r</text><text xml:space="preserve" font-family="HelveticaNeue-Light" font-size="72.0" fill="#FEFFFE" transform="matrix(1.00, 0.00, -0.00, -1.00, 902.4, 624.0)">k</text><image xlink:href="../../9639EBB2-4B0E-4BC0-8CA9-A4D7347C26A5/assets/EAF6C6CDEC7DBCD52B69A706E10EF119.png" width="13.00" height="14.00" transform="matrix(1.00, 0.00, -0.00, -1.00, 66.0, 409.0)"></image><g><clipPath id="clip-212"><path d="M 66.0 395.9 L 78.7 395.9 L 78.7 408.7 L 66.0 408.7 Z M 66.0 395.9 "></path></clipPath><g clip-path="url(#clip-212)"><g><g><clipPath id="clip-213"><path d="M 66.0 408.7 L 78.7 408.7 L 78.7 395.9 L 66.0 395.9 Z M 66.0 408.7 "></path></clipPath><g clip-path="url(#clip-213)"><g><clipPath id="clip-214"><path d="M 62.0 388.0 L 83.0 388.0 L 83.0 416.0 L 62.0 416.0 Z M 62.0 388.0 "></path></clipPath><g clip-path="url(#clip-214)"><path d="M 78.7 406.1 C 78.7 406.7 78.4 407.2 77.9 407.8 C 77.4 408.4 76.8 408.7 76.1 408.7 C 75.9 408.7 75.4 408.5 74.8 408.2 C 73.8 407.7 73.0 407.5 72.3 407.5 C 71.6 407.5 70.8 407.7 69.8 408.2 C 69.2 408.5 68.8 408.7 68.5 408.7 C 67.9 408.7 67.3 408.4 66.8 407.8 C 66.3 407.3 66.0 406.7 66.0 406.1 C 66.0 405.8 66.1 405.3 66.4 404.7 C 66.9 403.8 67.1 403.0 67.1 402.3 C 67.1 401.6 66.9 400.8 66.4 399.8 C 66.1 399.2 66.0 398.8 66.0 398.5 C 66.0 397.9 66.3 397.3 66.8 396.7 C 67.3 396.2 67.9 395.9 68.5 395.9 C 68.8 395.9 69.2 396.1 69.8 396.4 C 70.8 396.8 71.6 397.1 72.3 397.1 C 73.0 397.1 73.8 396.8 74.8 396.4 C 75.4 396.1 75.9 395.9 76.1 395.9 C 76.8 395.9 77.4 396.2 77.9 396.7 C 78.4 397.3 78.7 397.9 78.7 398.5 C 78.7 398.8 78.5 399.2 78.2 399.8 C 77.8 400.8 77.5 401.6 77.5 402.3 C 77.5 403.0 77.8 403.8 78.2 404.7 C 78.5 405.3 78.7 405.8 78.7 406.1 " fill="#FFFFFF"></path></g></g></g></g></g></g></g><image xlink:href="../../9639EBB2-4B0E-4BC0-8CA9-A4D7347C26A5/assets/CB232CA1A47D7891C8C25EBBF2CAD36C.png" width="360.00" height="42.00" transform="matrix(1.00, 0.00, -0.00, -1.00, 99.0, 419.0)"></image><text xml:space="preserve" font-family="HelveticaNeue-Light" font-size="36.0" fill="#FEFFFE" transform="matrix(1.00, 0.00, -0.00, -1.00, 101.0, 391.0)">M</text><text xml:space="preserve" font-family="HelveticaNeue-Light" font-size="36.0" fill="#FEFFFE" transform="matrix(1.00, 0.00, -0.00, -1.00, 130.6, 391.0)">o</text><text xml:space="preserve" font-family="HelveticaNeue-Light" font-size="36.0" fill="#FEFFFE" transform="matrix(1.00, 0.00, -0.00, -1.00, 150.6, 391.0)">d</text><text xml:space="preserve" font-family="HelveticaNeue-Light" font-size="36.0" fill="#FEFFFE" transform="matrix(1.00, 0.00, -0.00, -1.00, 171.2, 391.0)">e</text><text xml:space="preserve" font-family="HelveticaNeue-Light" font-size="36.0" fill="#FEFFFE" transform="matrix(1.00, 0.00, -0.00, -1.00, 189.9, 391.0)">l</text><text xml:space="preserve" font-family="HelveticaNeue-Light" font-size="36.0" fill="#FEFFFE" transform="matrix(1.00, 0.00, -0.00, -1.00, 196.6, 391.0)"> </text><text xml:space="preserve" font-family="HelveticaNeue-Light" font-size="36.0" fill="#FEFFFE" transform="matrix(1.00, 0.00, -0.00, -1.00, 206.6, 391.0)">(</text><text xml:space="preserve" font-family="HelveticaNeue-Light" font-size="36.0" fill="#FEFFFE" transform="matrix(1.00, 0.00, -0.00, -1.00, 215.3, 391.0)">a</text><text xml:space="preserve" font-family="HelveticaNeue-Light" font-size="36.0" fill="#FEFFFE" transform="matrix(1.00, 0.00, -0.00, -1.00, 233.9, 391.0)">p</text><text xml:space="preserve" font-family="HelveticaNeue-Light" font-size="36.0" fill="#FEFFFE" transform="matrix(1.00, 0.00, -0.00, -1.00, 254.6, 391.0)">p</text><text xml:space="preserve" font-family="HelveticaNeue-Light" font-size="36.0" fill="#FEFFFE" transform="matrix(1.00, 0.00, -0.00, -1.00, 275.3, 391.0)">/</text><text xml:space="preserve" font-family="HelveticaNeue-Light" font-size="36.0" fill="#FEFFFE" transform="matrix(1.00, 0.00, -0.00, -1.00, 287.3, 391.0)">m</text><text xml:space="preserve" font-family="HelveticaNeue-Light" font-size="36.0" fill="#FEFFFE" transform="matrix(1.00, 0.00, -0.00, -1.00, 317.3, 391.0)">o</text><text xml:space="preserve" font-family="HelveticaNeue-Light" font-size="36.0" fill="#FEFFFE" transform="matrix(1.00, 0.00, -0.00, -1.00, 337.3, 391.0)">d</text><text xml:space="preserve" font-family="HelveticaNeue-Light" font-size="36.0" fill="#FEFFFE" transform="matrix(1.00, 0.00, -0.00, -1.00, 357.9, 391.0)">e</text><text xml:space="preserve" font-family="HelveticaNeue-Light" font-size="36.0" fill="#FEFFFE" transform="matrix(1.00, 0.00, -0.00, -1.00, 376.6, 391.0)">l</text><text xml:space="preserve" font-family="HelveticaNeue-Light" font-size="36.0" fill="#FEFFFE" transform="matrix(1.00, 0.00, -0.00, -1.00, 383.3, 391.0)">s</text><text xml:space="preserve" font-family="HelveticaNeue-Light" font-size="36.0" fill="#FEFFFE" transform="matrix(1.00, 0.00, -0.00, -1.00, 400.6, 391.0)">.</text><text xml:space="preserve" font-family="HelveticaNeue-Light" font-size="36.0" fill="#FEFFFE" transform="matrix(1.00, 0.00, -0.00, -1.00, 410.6, 391.0)">p</text><text xml:space="preserve" font-family="HelveticaNeue-Light" font-size="36.0" fill="#FEFFFE" transform="matrix(1.00, 0.00, -0.00, -1.00, 431.3, 391.0)">y</text><text xml:space="preserve" font-family="HelveticaNeue-Light" font-size="36.0" fill="#FEFFFE" transform="matrix(1.00, 0.00, -0.00, -1.00, 447.9, 391.0)">)</text><text xml:space="preserve" font-family="HelveticaNeue-Light" font-size="36.0" fill="#FEFFFE" transform="matrix(1.00, 0.00, -0.00, -1.00, 456.6, 391.0)"> </text><image xlink:href="../../9639EBB2-4B0E-4BC0-8CA9-A4D7347C26A5/assets/EAF6C6CDEC7DBCD52B69A706E10EF119.png" width="13.00" height="14.00" transform="matrix(1.00, 0.00, -0.00, -1.00, 66.0, 329.0)"></image><g><clipPath id="clip-215"><path d="M 66.0 315.9 L 78.7 315.9 L 78.7 328.7 L 66.0 328.7 Z M 66.0 315.9 "></path></clipPath><g clip-path="url(#clip-215)"><g><g><clipPath id="clip-216"><path d="M 66.0 328.7 L 78.7 328.7 L 78.7 315.9 L 66.0 315.9 Z M 66.0 328.7 "></path></clipPath><g clip-path="url(#clip-216)"><g><clipPath id="clip-217"><path d="M 62.0 308.0 L 83.0 308.0 L 83.0 336.0 L 62.0 336.0 Z M 62.0 308.0 "></path></clipPath><g clip-path="url(#clip-217)"><path d="M 78.7 326.1 C 78.7 326.7 78.4 327.2 77.9 327.8 C 77.4 328.4 76.8 328.7 76.1 328.7 C 75.9 328.7 75.4 328.5 74.8 328.2 C 73.8 327.7 73.0 327.5 72.3 327.5 C 71.6 327.5 70.8 327.7 69.8 328.2 C 69.2 328.5 68.8 328.7 68.5 328.7 C 67.9 328.7 67.3 328.4 66.8 327.8 C 66.3 327.3 66.0 326.7 66.0 326.1 C 66.0 325.8 66.1 325.3 66.4 324.7 C 66.9 323.8 67.1 323.0 67.1 322.3 C 67.1 321.6 66.9 320.8 66.4 319.8 C 66.1 319.2 66.0 318.8 66.0 318.5 C 66.0 317.9 66.3 317.3 66.8 316.7 C 67.3 316.2 67.9 315.9 68.5 315.9 C 68.8 315.9 69.2 316.1 69.8 316.4 C 70.8 316.8 71.6 317.1 72.3 317.1 C 73.0 317.1 73.8 316.8 74.8 316.4 C 75.4 316.1 75.9 315.9 76.1 315.9 C 76.8 315.9 77.4 316.2 77.9 316.7 C 78.4 317.3 78.7 317.9 78.7 318.5 C 78.7 318.8 78.5 319.2 78.2 319.8 C 77.8 320.8 77.5 321.6 77.5 322.3 C 77.5 323.0 77.8 323.8 78.2 324.7 C 78.5 325.3 78.7 325.8 78.7 326.1 " fill="#FFFFFF"></path></g></g></g></g></g></g></g><image xlink:href="../../9639EBB2-4B0E-4BC0-8CA9-A4D7347C26A5/assets/0581D261B61A70E176337145F20F478D.png" width="500.00" height="42.00" transform="matrix(1.00, 0.00, -0.00, -1.00, 96.0, 339.0)"></image><text xml:space="preserve" font-family="HelveticaNeue-Light" font-size="36.0" fill="#FEFFFE" transform="matrix(1.00, 0.00, -0.00, -1.00, 101.0, 311.0)">T</text><text xml:space="preserve" font-family="HelveticaNeue-Light" font-size="36.0" fill="#FEFFFE" transform="matrix(1.00, 0.00, -0.00, -1.00, 117.0, 311.0)">e</text><text xml:space="preserve" font-family="HelveticaNeue-Light" font-size="36.0" fill="#FEFFFE" transform="matrix(1.00, 0.00, -0.00, -1.00, 135.7, 311.0)">m</text><text xml:space="preserve" font-family="HelveticaNeue-Light" font-size="36.0" fill="#FEFFFE" transform="matrix(1.00, 0.00, -0.00, -1.00, 165.7, 311.0)">p</text><text xml:space="preserve" font-family="HelveticaNeue-Light" font-size="36.0" fill="#FEFFFE" transform="matrix(1.00, 0.00, -0.00, -1.00, 186.4, 311.0)">l</text><text xml:space="preserve" font-family="HelveticaNeue-Light" font-size="36.0" fill="#FEFFFE" transform="matrix(1.00, 0.00, -0.00, -1.00, 193.0, 311.0)">a</text><text xml:space="preserve" font-family="HelveticaNeue-Light" font-size="36.0" fill="#FEFFFE" transform="matrix(1.00, 0.00, -0.00, -1.00, 211.7, 311.0)">t</text><text xml:space="preserve" font-family="HelveticaNeue-Light" font-size="36.0" fill="#FEFFFE" transform="matrix(1.00, 0.00, -0.00, -1.00, 222.4, 311.0)">e</text><text xml:space="preserve" font-family="HelveticaNeue-Light" font-size="36.0" fill="#FEFFFE" transform="matrix(1.00, 0.00, -0.00, -1.00, 241.0, 311.0)"> </text><text xml:space="preserve" font-family="HelveticaNeue-Light" font-size="36.0" fill="#FEFFFE" transform="matrix(1.00, 0.00, -0.00, -1.00, 251.0, 311.0)">(</text><text xml:space="preserve" font-family="HelveticaNeue-Light" font-size="36.0" fill="#FEFFFE" transform="matrix(1.00, 0.00, -0.00, -1.00, 259.7, 311.0)">a</text><text xml:space="preserve" font-family="HelveticaNeue-Light" font-size="36.0" fill="#FEFFFE" transform="matrix(1.00, 0.00, -0.00, -1.00, 278.4, 311.0)">p</text><text xml:space="preserve" font-family="HelveticaNeue-Light" font-size="36.0" fill="#FEFFFE" transform="matrix(1.00, 0.00, -0.00, -1.00, 299.1, 311.0)">p</text><text xml:space="preserve" font-family="HelveticaNeue-Light" font-size="36.0" fill="#FEFFFE" transform="matrix(1.00, 0.00, -0.00, -1.00, 319.7, 311.0)">/</text><text xml:space="preserve" font-family="HelveticaNeue-Light" font-size="36.0" fill="#FEFFFE" transform="matrix(1.00, 0.00, -0.00, -1.00, 331.7, 311.0)">t</text><text xml:space="preserve" font-family="HelveticaNeue-Light" font-size="36.0" fill="#FEFFFE" transform="matrix(1.00, 0.00, -0.00, -1.00, 342.4, 311.0)">e</text><text xml:space="preserve" font-family="HelveticaNeue-Light" font-size="36.0" fill="#FEFFFE" transform="matrix(1.00, 0.00, -0.00, -1.00, 361.1, 311.0)">m</text><text xml:space="preserve" font-family="HelveticaNeue-Light" font-size="36.0" fill="#FEFFFE" transform="matrix(1.00, 0.00, -0.00, -1.00, 391.1, 311.0)">p</text><text xml:space="preserve" font-family="HelveticaNeue-Light" font-size="36.0" fill="#FEFFFE" transform="matrix(1.00, 0.00, -0.00, -1.00, 411.7, 311.0)">l</text><text xml:space="preserve" font-family="HelveticaNeue-Light" font-size="36.0" fill="#FEFFFE" transform="matrix(1.00, 0.00, -0.00, -1.00, 418.4, 311.0)">a</text><text xml:space="preserve" font-family="HelveticaNeue-Light" font-size="36.0" fill="#FEFFFE" transform="matrix(1.00, 0.00, -0.00, -1.00, 437.1, 311.0)">t</text><text xml:space="preserve" font-family="HelveticaNeue-Light" font-size="36.0" fill="#FEFFFE" transform="matrix(1.00, 0.00, -0.00, -1.00, 447.7, 311.0)">e</text><text xml:space="preserve" font-family="HelveticaNeue-Light" font-size="36.0" fill="#FEFFFE" transform="matrix(1.00, 0.00, -0.00, -1.00, 466.4, 311.0)">s</text><text xml:space="preserve" font-family="HelveticaNeue-Light" font-size="36.0" fill="#FEFFFE" transform="matrix(1.00, 0.00, -0.00, -1.00, 483.7, 311.0)">/</text><text xml:space="preserve" font-family="HelveticaNeue-Light" font-size="36.0" fill="#FEFFFE" transform="matrix(1.00, 0.00, -0.00, -1.00, 495.7, 311.0)">*</text><text xml:space="preserve" font-family="HelveticaNeue-Light" font-size="36.0" fill="#FEFFFE" transform="matrix(1.00, 0.00, -0.00, -1.00, 508.4, 311.0)">.</text><text xml:space="preserve" font-family="HelveticaNeue-Light" font-size="36.0" fill="#FEFFFE" transform="matrix(1.00, 0.00, -0.00, -1.00, 518.4, 311.0)">h</text><text xml:space="preserve" font-family="HelveticaNeue-Light" font-size="36.0" fill="#FEFFFE" transform="matrix(1.00, 0.00, -0.00, -1.00, 537.7, 311.0)">t</text><text xml:space="preserve" font-family="HelveticaNeue-Light" font-size="36.0" fill="#FEFFFE" transform="matrix(1.00, 0.00, -0.00, -1.00, 548.4, 311.0)">m</text><text xml:space="preserve" font-family="HelveticaNeue-Light" font-size="36.0" fill="#FEFFFE" transform="matrix(1.00, 0.00, -0.00, -1.00, 578.4, 311.0)">l</text><text xml:space="preserve" font-family="HelveticaNeue-Light" font-size="36.0" fill="#FEFFFE" transform="matrix(1.00, 0.00, -0.00, -1.00, 585.0, 311.0)">)</text><text xml:space="preserve" font-family="HelveticaNeue-Light" font-size="36.0" fill="#FEFFFE" transform="matrix(1.00, 0.00, -0.00, -1.00, 593.7, 311.0)"> </text><image xlink:href="../../9639EBB2-4B0E-4BC0-8CA9-A4D7347C26A5/assets/DE07F9AB8193DFDF98269BE738D2089E.png" width="13.00" height="14.00" transform="matrix(1.00, 0.00, -0.00, -1.00, 66.0, 249.0)"></image><g><clipPath id="clip-218"><path d="M 66.0 235.9 L 78.7 235.9 L 78.7 248.7 L 66.0 248.7 Z M 66.0 235.9 "></path></clipPath><g clip-path="url(#clip-218)"><g><g><clipPath id="clip-219"><path d="M 66.0 248.7 L 78.7 248.7 L 78.7 235.9 L 66.0 235.9 Z M 66.0 248.7 "></path></clipPath><g clip-path="url(#clip-219)"><g><clipPath id="clip-220"><path d="M 62.0 228.0 L 83.0 228.0 L 83.0 256.0 L 62.0 256.0 Z M 62.0 228.0 "></path></clipPath><g clip-path="url(#clip-220)"><path d="M 78.7 246.1 C 78.7 246.7 78.4 247.2 77.9 247.8 C 77.4 248.4 76.8 248.7 76.1 248.7 C 75.9 248.7 75.4 248.5 74.8 248.2 C 73.8 247.7 73.0 247.5 72.3 247.5 C 71.6 247.5 70.8 247.7 69.8 248.2 C 69.2 248.5 68.8 248.7 68.5 248.7 C 67.9 248.7 67.3 248.4 66.8 247.8 C 66.3 247.3 66.0 246.7 66.0 246.1 C 66.0 245.8 66.1 245.3 66.4 244.7 C 66.9 243.8 67.1 243.0 67.1 242.3 C 67.1 241.6 66.9 240.8 66.4 239.8 C 66.1 239.2 66.0 238.8 66.0 238.5 C 66.0 237.9 66.3 237.3 66.8 236.7 C 67.3 236.2 67.9 235.9 68.5 235.9 C 68.8 235.9 69.2 236.1 69.8 236.4 C 70.8 236.8 71.6 237.1 72.3 237.1 C 73.0 237.1 73.8 236.8 74.8 236.4 C 75.4 236.1 75.9 235.9 76.1 235.9 C 76.8 235.9 77.4 236.2 77.9 236.7 C 78.4 237.3 78.7 237.9 78.7 238.5 C 78.7 238.8 78.5 239.2 78.2 239.8 C 77.8 240.8 77.5 241.6 77.5 242.3 C 77.5 243.0 77.8 243.8 78.2 244.7 C 78.5 245.3 78.7 245.8 78.7 246.1 " fill="#FFFFFF"></path></g></g></g></g></g></g></g><image xlink:href="../../9639EBB2-4B0E-4BC0-8CA9-A4D7347C26A5/assets/DC9A57B5C7DD3BD83102D41D3FAB47C0.png" width="314.00" height="42.00" transform="matrix(1.00, 0.00, -0.00, -1.00, 96.0, 259.0)"></image><text xml:space="preserve" font-family="HelveticaNeue-Light" font-size="36.0" fill="#FEFFFE" transform="matrix(1.00, 0.00, -0.00, -1.00, 101.0, 231.0)">V</text><text xml:space="preserve" font-family="HelveticaNeue-Light" font-size="36.0" fill="#FEFFFE" transform="matrix(1.00, 0.00, -0.00, -1.00, 122.6, 231.0)">i</text><text xml:space="preserve" font-family="HelveticaNeue-Light" font-size="36.0" fill="#FEFFFE" transform="matrix(1.00, 0.00, -0.00, -1.00, 129.2, 231.0)">e</text><text xml:space="preserve" font-family="HelveticaNeue-Light" font-size="36.0" fill="#FEFFFE" transform="matrix(1.00, 0.00, -0.00, -1.00, 147.9, 231.0)">w</text><text xml:space="preserve" font-family="HelveticaNeue-Light" font-size="36.0" fill="#FEFFFE" transform="matrix(1.00, 0.00, -0.00, -1.00, 174.6, 231.0)"> </text><text xml:space="preserve" font-family="HelveticaNeue-Light" font-size="36.0" fill="#FEFFFE" transform="matrix(1.00, 0.00, -0.00, -1.00, 184.6, 231.0)">(</text><text xml:space="preserve" font-family="HelveticaNeue-Light" font-size="36.0" fill="#FEFFFE" transform="matrix(1.00, 0.00, -0.00, -1.00, 193.3, 231.0)">a</text><text xml:space="preserve" font-family="HelveticaNeue-Light" font-size="36.0" fill="#FEFFFE" transform="matrix(1.00, 0.00, -0.00, -1.00, 212.0, 231.0)">p</text><text xml:space="preserve" font-family="HelveticaNeue-Light" font-size="36.0" fill="#FEFFFE" transform="matrix(1.00, 0.00, -0.00, -1.00, 232.6, 231.0)">p</text><text xml:space="preserve" font-family="HelveticaNeue-Light" font-size="36.0" fill="#FEFFFE" transform="matrix(1.00, 0.00, -0.00, -1.00, 253.3, 231.0)">/</text><text xml:space="preserve" font-family="HelveticaNeue-Light" font-size="36.0" fill="#FEFFFE" transform="matrix(1.00, 0.00, -0.00, -1.00, 265.3, 231.0)">v</text><text xml:space="preserve" font-family="HelveticaNeue-Light" font-size="36.0" fill="#FEFFFE" transform="matrix(1.00, 0.00, -0.00, -1.00, 281.9, 231.0)">i</text><text xml:space="preserve" font-family="HelveticaNeue-Light" font-size="36.0" fill="#FEFFFE" transform="matrix(1.00, 0.00, -0.00, -1.00, 288.6, 231.0)">e</text><text xml:space="preserve" font-family="HelveticaNeue-Light" font-size="36.0" fill="#FEFFFE" transform="matrix(1.00, 0.00, -0.00, -1.00, 307.3, 231.0)">w</text><text xml:space="preserve" font-family="HelveticaNeue-Light" font-size="36.0" fill="#FEFFFE" transform="matrix(1.00, 0.00, -0.00, -1.00, 334.0, 231.0)">s</text><text xml:space="preserve" font-family="HelveticaNeue-Light" font-size="36.0" fill="#FEFFFE" transform="matrix(1.00, 0.00, -0.00, -1.00, 351.3, 231.0)">.</text><text xml:space="preserve" font-family="HelveticaNeue-Light" font-size="36.0" fill="#FEFFFE" transform="matrix(1.00, 0.00, -0.00, -1.00, 361.3, 231.0)">p</text><text xml:space="preserve" font-family="HelveticaNeue-Light" font-size="36.0" fill="#FEFFFE" transform="matrix(1.00, 0.00, -0.00, -1.00, 381.9, 231.0)">y</text><text xml:space="preserve" font-family="HelveticaNeue-Light" font-size="36.0" fill="#FEFFFE" transform="matrix(1.00, 0.00, -0.00, -1.00, 398.6, 231.0)">)</text><text xml:space="preserve" font-family="HelveticaNeue-Light" font-size="36.0" fill="#FEFFFE" transform="matrix(1.00, 0.00, -0.00, -1.00, 407.3, 231.0)"> </text><image xlink:href="../../9639EBB2-4B0E-4BC0-8CA9-A4D7347C26A5/assets/0E38181161AA749929E0BECA678522B4.png" width="313.00" height="439.00" transform="matrix(1.00, 0.00, -0.00, -1.00, 640.0, 545.0)"></image><image xlink:href="../../9639EBB2-4B0E-4BC0-8CA9-A4D7347C26A5/assets/710629F9AA0493F55350F83B2982D152.png" width="342.00" height="470.00" transform="matrix(1.00, 0.00, -0.00, 1.00, 625.0, 90.0)"></image><g><clipPath id="clip-221"><path d="M 440.0 702.0 L 584.0 702.0 L 584.0 604.0 L 440.0 604.0 Z M 440.2 702.0 "></path></clipPath><g clip-path="url(#clip-221)"><image xlink:href="../../9639EBB2-4B0E-4BC0-8CA9-A4D7347C26A5/assets/8E63C7AA3DBF19D1FEFFC36A084C77BD.png" width="144.00" height="114.00" transform="matrix(1.00, 0.00, -0.00, -1.00, 440.0, 702.0)"></image></g></g><image xlink:href="../../9639EBB2-4B0E-4BC0-8CA9-A4D7347C26A5/assets/A37E827FB8AC741F8E0CFF5E21777542.png" width="174.00" height="130.00" transform="matrix(1.00, 0.00, -0.00, 1.00, 425.2, 587.0)"></image></g></svg>