<?xml version="1.0" encoding="UTF-8" standalone="no"?><svg xmlns="http://www.w3.org/2000/svg" xmlns:xlink="http://www.w3.org/1999/xlink" clip-rule="evenodd" stroke-miterlimit="4.00" viewBox="0 0 1024 768"><desc>SVG generated by Keynote</desc><defs></defs><g transform="matrix(1.00, 0.00, -0.00, -1.00, 0.0, 768.0)"><g><clipPath id="clip-4"><path d="M 0.0 768.0 L 1024.0 768.0 L 1024.0 0.0 L 0.0 0.0 Z M 0.0 768.0 "></path></clipPath><g clip-path="url(#clip-4)"><image xlink:href="../../0DD753C0-5033-491F-95E9-445A852AF51F/assets/55BAE69444A6F2CB4F283A796D63A365.jpeg" width="1024.00" height="768.00" transform="matrix(1.00, 0.00, -0.00, -1.00, 0.0, 768.0)"></image></g></g><image xlink:href="C6886F6BC9CA7E4C29539372AE604F9C.png" width="591.00" height="76.00" transform="matrix(1.00, 0.00, -0.00, -1.00, 62.0, 722.0)"></image><text xml:space="preserve" font-family="HelveticaNeue-Light" font-size="72.0" fill="#FEFFFE" transform="matrix(1.00, 0.00, -0.00, -1.00, 66.0, 668.0)">W</text><text xml:space="preserve" font-family="HelveticaNeue-Light" font-size="72.0" fill="#FEFFFE" transform="matrix(1.00, 0.00, -0.00, -1.00, 131.3, 668.0)">h</text><text xml:space="preserve" font-family="HelveticaNeue-Light" font-size="72.0" fill="#FEFFFE" transform="matrix(1.00, 0.00, -0.00, -1.00, 170.0, 668.0)">o</text><text xml:space="preserve" font-family="HelveticaNeue-Light" font-size="72.0" fill="#FEFFFE" transform="matrix(1.00, 0.00, -0.00, -1.00, 210.0, 668.0)"> </text><text xml:space="preserve" font-family="HelveticaNeue-Light" font-size="72.0" fill="#FEFFFE" transform="matrix(1.00, 0.00, -0.00, -1.00, 230.0, 668.0)">u</text><text xml:space="preserve" font-family="HelveticaNeue-Light" font-size="72.0" fill="#FEFFFE" transform="matrix(1.00, 0.00, -0.00, -1.00, 268.7, 668.0)">s</text><text xml:space="preserve" font-family="HelveticaNeue-Light" font-size="72.0" fill="#FEFFFE" transform="matrix(1.00, 0.00, -0.00, -1.00, 303.3, 668.0)">e</text><text xml:space="preserve" font-family="HelveticaNeue-Light" font-size="72.0" fill="#FEFFFE" transform="matrix(1.00, 0.00, -0.00, -1.00, 340.7, 668.0)">s</text><text xml:space="preserve" font-family="HelveticaNeue-Light" font-size="72.0" fill="#FEFFFE" transform="matrix(1.00, 0.00, -0.00, -1.00, 375.3, 668.0)"> </text><text xml:space="preserve" font-family="HelveticaNeue-Light" font-size="72.0" fill="#FEFFFE" transform="matrix(1.00, 0.00, -0.00, -1.00, 395.3, 668.0)">D</text><text xml:space="preserve" font-family="HelveticaNeue-Light" font-size="72.0" fill="#FEFFFE" transform="matrix(1.00, 0.00, -0.00, -1.00, 444.6, 668.0)">j</text><text xml:space="preserve" font-family="HelveticaNeue-Light" font-size="72.0" fill="#FEFFFE" transform="matrix(1.00, 0.00, -0.00, -1.00, 458.0, 668.0)">a</text><text xml:space="preserve" font-family="HelveticaNeue-Light" font-size="72.0" fill="#FEFFFE" transform="matrix(1.00, 0.00, -0.00, -1.00, 495.3, 668.0)">n</text><text xml:space="preserve" font-family="HelveticaNeue-Light" font-size="72.0" fill="#FEFFFE" transform="matrix(1.00, 0.00, -0.00, -1.00, 534.0, 668.0)">g</text><text xml:space="preserve" font-family="HelveticaNeue-Light" font-size="72.0" fill="#FEFFFE" transform="matrix(1.00, 0.00, -0.00, -1.00, 574.0, 668.0)">o</text><text xml:space="preserve" font-family="HelveticaNeue-Light" font-size="72.0" fill="#FEFFFE" transform="matrix(1.00, 0.00, -0.00, -1.00, 614.1, 668.0)">?</text><text xml:space="preserve" font-family="HelveticaNeue-Light" font-size="72.0" fill="#FEFFFE" transform="matrix(1.00, 0.00, -0.00, -1.00, 652.7, 668.0)"> </text><image xlink:href="1CEF23C3331295A09B401AF15AFE71CB.png" width="11.00" height="11.00" transform="matrix(1.00, 0.00, -0.00, -1.00, 136.0, 559.0)"></image><g><clipPath id="clip-5"><path d="M 136.0 548.2 L 146.5 548.2 L 146.5 558.8 L 136.0 558.8 Z M 136.0 548.2 "></path></clipPath><g clip-path="url(#clip-5)"><g><g><clipPath id="clip-6"><path d="M 136.0 558.8 L 146.5 558.8 L 146.5 548.2 L 136.0 548.2 Z M 136.0 558.8 "></path></clipPath><g clip-path="url(#clip-6)"><g><clipPath id="clip-7"><path d="M 132.0 541.0 L 151.0 541.0 L 151.0 566.0 L 132.0 566.0 Z M 132.0 541.0 "></path></clipPath><g clip-path="url(#clip-7)"><path d="M 146.5 556.7 C 146.5 557.1 146.3 557.6 145.9 558.1 C 145.4 558.6 144.9 558.8 144.4 558.8 C 144.2 558.8 143.8 558.7 143.3 558.4 C 142.5 558.0 141.8 557.8 141.2 557.8 C 140.6 557.8 139.9 558.0 139.2 558.4 C 138.7 558.7 138.3 558.8 138.1 558.8 C 137.6 558.8 137.1 558.6 136.7 558.1 C 136.2 557.6 136.0 557.2 136.0 556.7 C 136.0 556.4 136.1 556.0 136.4 555.5 C 136.7 554.7 136.9 554.1 136.9 553.5 C 136.9 552.9 136.7 552.3 136.4 551.4 C 136.1 551.0 136.0 550.6 136.0 550.3 C 136.0 549.8 136.2 549.4 136.7 548.9 C 137.1 548.4 137.6 548.2 138.1 548.2 C 138.3 548.2 138.7 548.3 139.2 548.6 C 139.9 549.0 140.6 549.2 141.2 549.2 C 141.8 549.2 142.5 549.0 143.3 548.6 C 143.8 548.3 144.2 548.2 144.4 548.2 C 144.9 548.2 145.4 548.4 145.9 548.9 C 146.3 549.4 146.5 549.8 146.5 550.3 C 146.5 550.6 146.4 551.0 146.2 551.4 C 145.8 552.3 145.6 552.9 145.6 553.5 C 145.6 554.1 145.8 554.7 146.2 555.5 C 146.4 556.0 146.5 556.4 146.5 556.7 " fill="#FFFFFF"></path></g></g></g></g></g></g></g><image xlink:href="CF6B539691B26624E5B7E28AC5B6F643.png" width="45.00" height="30.00" transform="matrix(1.00, 0.00, -0.00, -1.00, 163.0, 567.0)"></image><text xml:space="preserve" font-family="HelveticaNeue-Light" font-size="29.9" fill="#FEFFFE" transform="matrix(1.00, 0.00, -0.00, -1.00, 165.0, 544.0)">H</text><text xml:space="preserve" font-family="HelveticaNeue-Light" font-size="29.9" fill="#FEFFFE" transform="matrix(1.00, 0.00, -0.00, -1.00, 186.0, 544.0)">P</text><text xml:space="preserve" font-family="HelveticaNeue-Light" font-size="29.9" fill="#FEFFFE" transform="matrix(1.00, 0.00, -0.00, -1.00, 204.9, 544.0)"> </text><image xlink:href="24B8F6FC603F35072809911E4A64F956.png" width="11.00" height="11.00" transform="matrix(1.00, 0.00, -0.00, -1.00, 136.0, 493.0)"></image><g><clipPath id="clip-8"><path d="M 136.0 482.3 L 146.5 482.3 L 146.5 492.9 L 136.0 492.9 Z M 136.0 482.3 "></path></clipPath><g clip-path="url(#clip-8)"><g><g><clipPath id="clip-9"><path d="M 136.0 492.9 L 146.5 492.9 L 146.5 482.3 L 136.0 482.3 Z M 136.0 492.9 "></path></clipPath><g clip-path="url(#clip-9)"><g><clipPath id="clip-10"><path d="M 132.0 475.0 L 151.0 475.0 L 151.0 500.0 L 132.0 500.0 Z M 132.0 475.0 "></path></clipPath><g clip-path="url(#clip-10)"><path d="M 146.5 490.8 C 146.5 491.3 146.3 491.7 145.9 492.2 C 145.4 492.7 144.9 492.9 144.4 492.9 C 144.2 492.9 143.8 492.8 143.3 492.5 C 142.5 492.2 141.8 492.0 141.2 492.0 C 140.6 492.0 139.9 492.2 139.2 492.5 C 138.7 492.8 138.3 492.9 138.1 492.9 C 137.6 492.9 137.1 492.7 136.7 492.2 C 136.2 491.8 136.0 491.3 136.0 490.8 C 136.0 490.6 136.1 490.2 136.4 489.6 C 136.7 488.9 136.9 488.2 136.9 487.6 C 136.9 487.1 136.7 486.4 136.4 485.6 C 136.1 485.1 136.0 484.7 136.0 484.5 C 136.0 484.0 136.2 483.5 136.7 483.0 C 137.1 482.6 137.6 482.3 138.1 482.3 C 138.3 482.3 138.7 482.5 139.2 482.7 C 139.9 483.1 140.6 483.3 141.2 483.3 C 141.8 483.3 142.5 483.1 143.3 482.7 C 143.8 482.5 144.2 482.3 144.4 482.3 C 144.9 482.3 145.4 482.6 145.9 483.0 C 146.3 483.5 146.5 484.0 146.5 484.5 C 146.5 484.7 146.4 485.1 146.2 485.6 C 145.8 486.4 145.6 487.1 145.6 487.6 C 145.6 488.2 145.8 488.9 146.2 489.6 C 146.4 490.2 146.5 490.6 146.5 490.8 " fill="#FFFFFF"></path></g></g></g></g></g></g></g><image xlink:href="EC1EC938A87A1BBD45B4742D72FFB480.png" width="94.00" height="36.00" transform="matrix(1.00, 0.00, -0.00, -1.00, 163.0, 501.0)"></image><text xml:space="preserve" font-family="HelveticaNeue-Light" font-size="29.9" fill="#FEFFFE" transform="matrix(1.00, 0.00, -0.00, -1.00, 165.0, 478.0)">D</text><text xml:space="preserve" font-family="HelveticaNeue-Light" font-size="29.9" fill="#FEFFFE" transform="matrix(1.00, 0.00, -0.00, -1.00, 185.5, 478.0)">i</text><text xml:space="preserve" font-family="HelveticaNeue-Light" font-size="29.9" fill="#FEFFFE" transform="matrix(1.00, 0.00, -0.00, -1.00, 191.0, 478.0)">s</text><text xml:space="preserve" font-family="HelveticaNeue-Light" font-size="29.9" fill="#FEFFFE" transform="matrix(1.00, 0.00, -0.00, -1.00, 205.4, 478.0)">q</text><text xml:space="preserve" font-family="HelveticaNeue-Light" font-size="29.9" fill="#FEFFFE" transform="matrix(1.00, 0.00, -0.00, -1.00, 222.5, 478.0)">u</text><text xml:space="preserve" font-family="HelveticaNeue-Light" font-size="29.9" fill="#FEFFFE" transform="matrix(1.00, 0.00, -0.00, -1.00, 238.6, 478.0)">s</text><text xml:space="preserve" font-family="HelveticaNeue-Light" font-size="29.9" fill="#FEFFFE" transform="matrix(1.00, 0.00, -0.00, -1.00, 252.9, 478.0)"> </text><image xlink:href="A10B2525D0BC88172EEA78DD90353C76.png" width="11.00" height="12.00" transform="matrix(1.00, 0.00, -0.00, -1.00, 136.0, 428.0)"></image><g><clipPath id="clip-11"><path d="M 136.0 416.5 L 146.5 416.5 L 146.5 427.0 L 136.0 427.0 Z M 136.0 416.5 "></path></clipPath><g clip-path="url(#clip-11)"><g><g><clipPath id="clip-12"><path d="M 136.0 427.0 L 146.5 427.0 L 146.5 416.5 L 136.0 416.5 Z M 136.0 427.0 "></path></clipPath><g clip-path="url(#clip-12)"><g><clipPath id="clip-13"><path d="M 132.0 409.0 L 151.0 409.0 L 151.0 435.0 L 132.0 435.0 Z M 132.0 409.0 "></path></clipPath><g clip-path="url(#clip-13)"><path d="M 146.5 424.9 C 146.5 425.4 146.3 425.8 145.9 426.3 C 145.4 426.8 144.9 427.0 144.4 427.0 C 144.2 427.0 143.8 426.9 143.3 426.7 C 142.5 426.3 141.8 426.1 141.2 426.1 C 140.6 426.1 139.9 426.3 139.2 426.7 C 138.7 426.9 138.3 427.0 138.1 427.0 C 137.6 427.0 137.1 426.8 136.7 426.3 C 136.2 425.9 136.0 425.4 136.0 424.9 C 136.0 424.7 136.1 424.3 136.4 423.8 C 136.7 423.0 136.9 422.3 136.9 421.7 C 136.9 421.2 136.7 420.5 136.4 419.7 C 136.1 419.2 136.0 418.8 136.0 418.6 C 136.0 418.1 136.2 417.6 136.7 417.1 C 137.1 416.7 137.6 416.5 138.1 416.5 C 138.3 416.5 138.7 416.6 139.2 416.8 C 139.9 417.2 140.6 417.4 141.2 417.4 C 141.8 417.4 142.5 417.2 143.3 416.8 C 143.8 416.6 144.2 416.5 144.4 416.5 C 144.9 416.5 145.4 416.7 145.9 417.1 C 146.3 417.6 146.5 418.1 146.5 418.6 C 146.5 418.8 146.4 419.2 146.2 419.7 C 145.8 420.5 145.6 421.2 145.6 421.7 C 145.6 422.3 145.8 423.0 146.2 423.8 C 146.4 424.3 146.5 424.7 146.5 424.9 " fill="#FFFFFF"></path></g></g></g></g></g></g></g><image xlink:href="584B0F49528B0320C99EDD8A60BF23C9.png" width="133.00" height="37.00" transform="matrix(1.00, 0.00, -0.00, -1.00, 163.0, 435.0)"></image><text xml:space="preserve" font-family="HelveticaNeue-Light" font-size="29.9" fill="#FEFFFE" transform="matrix(1.00, 0.00, -0.00, -1.00, 165.0, 412.0)">I</text><text xml:space="preserve" font-family="HelveticaNeue-Light" font-size="29.9" fill="#FEFFFE" transform="matrix(1.00, 0.00, -0.00, -1.00, 171.6, 412.0)">n</text><text xml:space="preserve" font-family="HelveticaNeue-Light" font-size="29.9" fill="#FEFFFE" transform="matrix(1.00, 0.00, -0.00, -1.00, 187.7, 412.0)">s</text><text xml:space="preserve" font-family="HelveticaNeue-Light" font-size="29.9" fill="#FEFFFE" transform="matrix(1.00, 0.00, -0.00, -1.00, 202.1, 412.0)">t</text><text xml:space="preserve" font-family="HelveticaNeue-Light" font-size="29.9" fill="#FEFFFE" transform="matrix(1.00, 0.00, -0.00, -1.00, 210.9, 412.0)">a</text><text xml:space="preserve" font-family="HelveticaNeue-Light" font-size="29.9" fill="#FEFFFE" transform="matrix(1.00, 0.00, -0.00, -1.00, 226.4, 412.0)">g</text><text xml:space="preserve" font-family="HelveticaNeue-Light" font-size="29.9" fill="#FEFFFE" transform="matrix(1.00, 0.00, -0.00, -1.00, 243.0, 412.0)">r</text><text xml:space="preserve" font-family="HelveticaNeue-Light" font-size="29.9" fill="#FEFFFE" transform="matrix(1.00, 0.00, -0.00, -1.00, 252.4, 412.0)">a</text><text xml:space="preserve" font-family="HelveticaNeue-Light" font-size="29.9" fill="#FEFFFE" transform="matrix(1.00, 0.00, -0.00, -1.00, 267.9, 412.0)">m</text><text xml:space="preserve" font-family="HelveticaNeue-Light" font-size="29.9" fill="#FEFFFE" transform="matrix(1.00, 0.00, -0.00, -1.00, 292.8, 412.0)"> </text><image xlink:href="9B3324F0CB82486D18521D5BF125770B.png" width="11.00" height="12.00" transform="matrix(1.00, 0.00, -0.00, -1.00, 136.0, 362.0)"></image><g><clipPath id="clip-14"><path d="M 136.0 350.6 L 146.5 350.6 L 146.5 361.2 L 136.0 361.2 Z M 136.0 350.6 "></path></clipPath><g clip-path="url(#clip-14)"><g><g><clipPath id="clip-15"><path d="M 136.0 361.2 L 146.5 361.2 L 146.5 350.6 L 136.0 350.6 Z M 136.0 361.2 "></path></clipPath><g clip-path="url(#clip-15)"><g><clipPath id="clip-16"><path d="M 132.0 343.0 L 151.0 343.0 L 151.0 369.0 L 132.0 369.0 Z M 132.0 343.0 "></path></clipPath><g clip-path="url(#clip-16)"><path d="M 146.5 359.0 C 146.5 359.5 146.3 360.0 145.9 360.4 C 145.4 360.9 144.9 361.2 144.4 361.2 C 144.2 361.2 143.8 361.0 143.3 360.8 C 142.5 360.4 141.8 360.2 141.2 360.2 C 140.6 360.2 139.9 360.4 139.2 360.8 C 138.7 361.0 138.3 361.2 138.1 361.2 C 137.6 361.2 137.1 360.9 136.7 360.5 C 136.2 360.0 136.0 359.5 136.0 359.0 C 136.0 358.8 136.1 358.4 136.4 357.9 C 136.7 357.1 136.9 356.4 136.9 355.9 C 136.9 355.3 136.7 354.6 136.4 353.8 C 136.1 353.3 136.0 352.9 136.0 352.7 C 136.0 352.2 136.2 351.7 136.7 351.3 C 137.1 350.8 137.6 350.6 138.1 350.6 C 138.3 350.6 138.7 350.7 139.2 350.9 C 139.9 351.3 140.6 351.5 141.2 351.5 C 141.8 351.5 142.5 351.3 143.3 350.9 C 143.8 350.7 144.2 350.6 144.4 350.6 C 144.9 350.6 145.4 350.8 145.9 351.3 C 146.3 351.7 146.5 352.2 146.5 352.7 C 146.5 352.9 146.4 353.3 146.2 353.8 C 145.8 354.6 145.6 355.3 145.6 355.9 C 145.6 356.4 145.8 357.1 146.2 357.9 C 146.4 358.4 146.5 358.8 146.5 359.0 " fill="#FFFFFF"></path></g></g></g></g></g></g></g><image xlink:href="F033EDA57B7E61FA20489588EC31D3AF.png" width="118.00" height="31.00" transform="matrix(1.00, 0.00, -0.00, -1.00, 163.0, 370.0)"></image><text xml:space="preserve" font-family="HelveticaNeue-Light" font-size="29.9" fill="#FEFFFE" transform="matrix(1.00, 0.00, -0.00, -1.00, 165.0, 347.0)">P</text><text xml:space="preserve" font-family="HelveticaNeue-Light" font-size="29.9" fill="#FEFFFE" transform="matrix(1.00, 0.00, -0.00, -1.00, 183.8, 347.0)">i</text><text xml:space="preserve" font-family="HelveticaNeue-Light" font-size="29.9" fill="#FEFFFE" transform="matrix(1.00, 0.00, -0.00, -1.00, 189.4, 347.0)">n</text><text xml:space="preserve" font-family="HelveticaNeue-Light" font-size="29.9" fill="#FEFFFE" transform="matrix(1.00, 0.00, -0.00, -1.00, 205.4, 347.0)">t</text><text xml:space="preserve" font-family="HelveticaNeue-Light" font-size="29.9" fill="#FEFFFE" transform="matrix(1.00, 0.00, -0.00, -1.00, 214.2, 347.0)">e</text><text xml:space="preserve" font-family="HelveticaNeue-Light" font-size="29.9" fill="#FEFFFE" transform="matrix(1.00, 0.00, -0.00, -1.00, 229.7, 347.0)">r</text><text xml:space="preserve" font-family="HelveticaNeue-Light" font-size="29.9" fill="#FEFFFE" transform="matrix(1.00, 0.00, -0.00, -1.00, 238.6, 347.0)">e</text><text xml:space="preserve" font-family="HelveticaNeue-Light" font-size="29.9" fill="#FEFFFE" transform="matrix(1.00, 0.00, -0.00, -1.00, 254.1, 347.0)">s</text><text xml:space="preserve" font-family="HelveticaNeue-Light" font-size="29.9" fill="#FEFFFE" transform="matrix(1.00, 0.00, -0.00, -1.00, 268.5, 347.0)">t</text><text xml:space="preserve" font-family="HelveticaNeue-Light" font-size="29.9" fill="#FEFFFE" transform="matrix(1.00, 0.00, -0.00, -1.00, 277.3, 347.0)"> </text><image xlink:href="22CD7786BFCD22BFE2613A12D6ACAC53.png" width="11.00" height="12.00" transform="matrix(1.00, 0.00, -0.00, -1.00, 136.0, 296.0)"></image><g><clipPath id="clip-17"><path d="M 136.0 284.7 L 146.5 284.7 L 146.5 295.3 L 136.0 295.3 Z M 136.0 284.7 "></path></clipPath><g clip-path="url(#clip-17)"><g><g><clipPath id="clip-18"><path d="M 136.0 295.3 L 146.5 295.3 L 146.5 284.7 L 136.0 284.7 Z M 136.0 295.3 "></path></clipPath><g clip-path="url(#clip-18)"><g><clipPath id="clip-19"><path d="M 132.0 277.0 L 151.0 277.0 L 151.0 303.0 L 132.0 303.0 Z M 132.0 277.0 "></path></clipPath><g clip-path="url(#clip-19)"><path d="M 146.5 293.2 C 146.5 293.6 146.3 294.1 145.9 294.6 C 145.4 295.0 144.9 295.3 144.4 295.3 C 144.2 295.3 143.8 295.2 143.3 294.9 C 142.5 294.5 141.8 294.3 141.2 294.3 C 140.6 294.3 139.9 294.5 139.2 294.9 C 138.7 295.2 138.3 295.3 138.1 295.3 C 137.6 295.3 137.1 295.0 136.7 294.6 C 136.2 294.1 136.0 293.7 136.0 293.2 C 136.0 292.9 136.1 292.5 136.4 292.0 C 136.7 291.2 136.9 290.6 136.9 290.0 C 136.9 289.4 136.7 288.7 136.4 287.9 C 136.1 287.4 136.0 287.1 136.0 286.8 C 136.0 286.3 136.2 285.8 136.7 285.4 C 137.1 284.9 137.6 284.7 138.1 284.7 C 138.3 284.7 138.7 284.8 139.2 285.1 C 139.9 285.5 140.6 285.7 141.2 285.7 C 141.8 285.7 142.5 285.5 143.3 285.1 C 143.8 284.8 144.2 284.7 144.4 284.7 C 144.9 284.7 145.4 284.9 145.9 285.4 C 146.3 285.8 146.5 286.3 146.5 286.8 C 146.5 287.1 146.4 287.4 146.2 287.9 C 145.8 288.7 145.6 289.4 145.6 290.0 C 145.6 290.6 145.8 291.2 146.2 292.0 C 146.4 292.5 146.5 292.9 146.5 293.2 " fill="#FFFFFF"></path></g></g></g></g></g></g></g><image xlink:href="95293E6C1F933073735F3F522A091E12.png" width="93.00" height="31.00" transform="matrix(1.00, 0.00, -0.00, -1.00, 163.0, 304.0)"></image><text xml:space="preserve" font-family="HelveticaNeue-Light" font-size="29.9" fill="#FEFFFE" transform="matrix(1.00, 0.00, -0.00, -1.00, 165.0, 281.0)">M</text><text xml:space="preserve" font-family="HelveticaNeue-Light" font-size="29.9" fill="#FEFFFE" transform="matrix(1.00, 0.00, -0.00, -1.00, 189.5, 281.0)">o</text><text xml:space="preserve" font-family="HelveticaNeue-Light" font-size="29.9" fill="#FEFFFE" transform="matrix(1.00, 0.00, -0.00, -1.00, 206.1, 281.0)">z</text><text xml:space="preserve" font-family="HelveticaNeue-Light" font-size="29.9" fill="#FEFFFE" transform="matrix(1.00, 0.00, -0.00, -1.00, 220.0, 281.0)">i</text><text xml:space="preserve" font-family="HelveticaNeue-Light" font-size="29.9" fill="#FEFFFE" transform="matrix(1.00, 0.00, -0.00, -1.00, 225.5, 281.0)">l</text><text xml:space="preserve" font-family="HelveticaNeue-Light" font-size="29.9" fill="#FEFFFE" transform="matrix(1.00, 0.00, -0.00, -1.00, 231.0, 281.0)">l</text><text xml:space="preserve" font-family="HelveticaNeue-Light" font-size="29.9" fill="#FEFFFE" transform="matrix(1.00, 0.00, -0.00, -1.00, 236.6, 281.0)">a</text><text xml:space="preserve" font-family="HelveticaNeue-Light" font-size="29.9" fill="#FEFFFE" transform="matrix(1.00, 0.00, -0.00, -1.00, 252.1, 281.0)"> </text><image xlink:href="D367D65ADF645DAECCCB1CC40BF4FB11.png" width="11.00" height="12.00" transform="matrix(1.00, 0.00, -0.00, -1.00, 136.0, 230.0)"></image><g><clipPath id="clip-20"><path d="M 136.0 218.8 L 146.5 218.8 L 146.5 229.4 L 136.0 229.4 Z M 136.0 218.8 "></path></clipPath><g clip-path="url(#clip-20)"><g><g><clipPath id="clip-21"><path d="M 136.0 229.4 L 146.5 229.4 L 146.5 218.8 L 136.0 218.8 Z M 136.0 229.4 "></path></clipPath><g clip-path="url(#clip-21)"><g><clipPath id="clip-22"><path d="M 132.0 211.0 L 151.0 211.0 L 151.0 237.0 L 132.0 237.0 Z M 132.0 211.0 "></path></clipPath><g clip-path="url(#clip-22)"><path d="M 146.5 227.3 C 146.5 227.7 146.3 228.2 145.9 228.7 C 145.4 229.2 144.9 229.4 144.4 229.4 C 144.2 229.4 143.8 229.3 143.3 229.0 C 142.5 228.6 141.8 228.4 141.2 228.4 C 140.6 228.4 139.9 228.6 139.2 229.0 C 138.7 229.3 138.3 229.4 138.1 229.4 C 137.6 229.4 137.1 229.2 136.7 228.7 C 136.2 228.2 136.0 227.8 136.0 227.3 C 136.0 227.0 136.1 226.6 136.4 226.1 C 136.7 225.3 136.9 224.7 136.9 224.1 C 136.9 223.5 136.7 222.9 136.4 222.0 C 136.1 221.6 136.0 221.2 136.0 220.9 C 136.0 220.4 136.2 220.0 136.7 219.5 C 137.1 219.0 137.6 218.8 138.1 218.8 C 138.3 218.8 138.7 218.9 139.2 219.2 C 139.9 219.6 140.6 219.8 141.2 219.8 C 141.8 219.8 142.5 219.6 143.3 219.2 C 143.8 218.9 144.2 218.8 144.4 218.8 C 144.9 218.8 145.4 219.0 145.9 219.5 C 146.3 220.0 146.5 220.4 146.5 220.9 C 146.5 221.2 146.4 221.6 146.2 222.0 C 145.8 222.9 145.6 223.5 145.6 224.1 C 145.6 224.7 145.8 225.3 146.2 226.1 C 146.4 226.6 146.5 227.0 146.5 227.3 " fill="#FFFFFF"></path></g></g></g></g></g></g></g><image xlink:href="D004E6254D25C34A3985E510EAA3D82C.png" width="65.00" height="31.00" transform="matrix(1.00, 0.00, -0.00, -1.00, 163.0, 238.0)"></image><text xml:space="preserve" font-family="HelveticaNeue-Light" font-size="29.9" fill="#FEFFFE" transform="matrix(1.00, 0.00, -0.00, -1.00, 165.0, 215.0)">R</text><text xml:space="preserve" font-family="HelveticaNeue-Light" font-size="29.9" fill="#FEFFFE" transform="matrix(1.00, 0.00, -0.00, -1.00, 184.9, 215.0)">d</text><text xml:space="preserve" font-family="HelveticaNeue-Light" font-size="29.9" fill="#FEFFFE" transform="matrix(1.00, 0.00, -0.00, -1.00, 202.1, 215.0)">i</text><text xml:space="preserve" font-family="HelveticaNeue-Light" font-size="29.9" fill="#FEFFFE" transform="matrix(1.00, 0.00, -0.00, -1.00, 207.6, 215.0)">o</text><text xml:space="preserve" font-family="HelveticaNeue-Light" font-size="29.9" fill="#FEFFFE" transform="matrix(1.00, 0.00, -0.00, -1.00, 224.2, 215.0)"> </text><image xlink:href="C595F1A62DC36F0B4ABB3583038393CD.png" width="11.00" height="12.00" transform="matrix(1.00, 0.00, -0.00, -1.00, 136.0, 164.0)"></image><g><clipPath id="clip-23"><path d="M 136.0 152.9 L 146.5 152.9 L 146.5 163.5 L 136.0 163.5 Z M 136.0 152.9 "></path></clipPath><g clip-path="url(#clip-23)"><g><g><clipPath id="clip-24"><path d="M 136.0 163.5 L 146.5 163.5 L 146.5 152.9 L 136.0 152.9 Z M 136.0 163.5 "></path></clipPath><g clip-path="url(#clip-24)"><g><clipPath id="clip-25"><path d="M 132.0 145.0 L 151.0 145.0 L 151.0 171.0 L 132.0 171.0 Z M 132.0 145.0 "></path></clipPath><g clip-path="url(#clip-25)"><path d="M 146.5 161.4 C 146.5 161.9 146.3 162.3 145.9 162.8 C 145.4 163.3 144.9 163.5 144.4 163.5 C 144.2 163.5 143.8 163.4 143.3 163.1 C 142.5 162.8 141.8 162.6 141.2 162.6 C 140.6 162.6 139.9 162.8 139.2 163.1 C 138.7 163.4 138.3 163.5 138.1 163.5 C 137.6 163.5 137.1 163.3 136.7 162.8 C 136.2 162.4 136.0 161.9 136.0 161.4 C 136.0 161.2 136.1 160.8 136.4 160.2 C 136.7 159.5 136.9 158.8 136.9 158.2 C 136.9 157.7 136.7 157.0 136.4 156.2 C 136.1 155.7 136.0 155.3 136.0 155.1 C 136.0 154.6 136.2 154.1 136.7 153.6 C 137.1 153.2 137.6 152.9 138.1 152.9 C 138.3 152.9 138.7 153.1 139.2 153.3 C 139.9 153.7 140.6 153.9 141.2 153.9 C 141.8 153.9 142.5 153.7 143.3 153.3 C 143.8 153.1 144.2 152.9 144.4 152.9 C 144.9 152.9 145.4 153.2 145.9 153.6 C 146.3 154.1 146.5 154.6 146.5 155.1 C 146.5 155.3 146.4 155.7 146.2 156.2 C 145.8 157.0 145.6 157.7 145.6 158.2 C 145.6 158.8 145.8 159.5 146.2 160.2 C 146.4 160.8 146.5 161.2 146.5 161.4 " fill="#FFFFFF"></path></g></g></g></g></g></g></g><image xlink:href="F7C194CDF867C1B4C412CD92AB691455.png" width="161.00" height="36.00" transform="matrix(1.00, 0.00, -0.00, -1.00, 162.0, 172.0)"></image><text xml:space="preserve" font-family="HelveticaNeue-Light" font-size="29.9" fill="#FEFFFE" transform="matrix(1.00, 0.00, -0.00, -1.00, 165.0, 149.0)">O</text><text xml:space="preserve" font-family="HelveticaNeue-Light" font-size="29.9" fill="#FEFFFE" transform="matrix(1.00, 0.00, -0.00, -1.00, 187.1, 149.0)">p</text><text xml:space="preserve" font-family="HelveticaNeue-Light" font-size="29.9" fill="#FEFFFE" transform="matrix(1.00, 0.00, -0.00, -1.00, 204.3, 149.0)">e</text><text xml:space="preserve" font-family="HelveticaNeue-Light" font-size="29.9" fill="#FEFFFE" transform="matrix(1.00, 0.00, -0.00, -1.00, 219.8, 149.0)">n</text><text xml:space="preserve" font-family="HelveticaNeue-Light" font-size="29.9" fill="#FEFFFE" transform="matrix(1.00, 0.00, -0.00, -1.00, 235.8, 149.0)"> </text><text xml:space="preserve" font-family="HelveticaNeue-Light" font-size="29.9" fill="#FEFFFE" transform="matrix(1.00, 0.00, -0.00, -1.00, 244.2, 149.0)">S</text><text xml:space="preserve" font-family="HelveticaNeue-Light" font-size="29.9" fill="#FEFFFE" transform="matrix(1.00, 0.00, -0.00, -1.00, 263.0, 149.0)">t</text><text xml:space="preserve" font-family="HelveticaNeue-Light" font-size="29.9" fill="#FEFFFE" transform="matrix(1.00, 0.00, -0.00, -1.00, 271.8, 149.0)">a</text><text xml:space="preserve" font-family="HelveticaNeue-Light" font-size="29.9" fill="#FEFFFE" transform="matrix(1.00, 0.00, -0.00, -1.00, 287.3, 149.0)">c</text><text xml:space="preserve" font-family="HelveticaNeue-Light" font-size="29.9" fill="#FEFFFE" transform="matrix(1.00, 0.00, -0.00, -1.00, 302.8, 149.0)">k</text><text xml:space="preserve" font-family="HelveticaNeue-Light" font-size="29.9" fill="#FEFFFE" transform="matrix(1.00, 0.00, -0.00, -1.00, 317.8, 149.0)"> </text><image xlink:href="97D44616A3AB933A43F5266FF01B88E2.png" width="11.00" height="11.00" transform="matrix(1.00, 0.00, -0.00, -1.00, 136.0, 98.0)"></image><g><clipPath id="clip-26"><path d="M 136.0 87.1 L 146.5 87.1 L 146.5 97.6 L 136.0 97.6 Z M 136.0 87.1 "></path></clipPath><g clip-path="url(#clip-26)"><g><g><clipPath id="clip-27"><path d="M 136.0 97.6 L 146.5 97.6 L 146.5 87.1 L 136.0 87.1 Z M 136.0 97.6 "></path></clipPath><g clip-path="url(#clip-27)"><g><clipPath id="clip-28"><path d="M 132.0 80.0 L 151.0 80.0 L 151.0 105.0 L 132.0 105.0 Z M 132.0 80.0 "></path></clipPath><g clip-path="url(#clip-28)"><path d="M 146.5 95.5 C 146.5 96.0 146.3 96.4 145.9 96.9 C 145.4 97.4 144.9 97.6 144.4 97.6 C 144.2 97.6 143.8 97.5 143.3 97.3 C 142.5 96.9 141.8 96.7 141.2 96.7 C 140.6 96.7 139.9 96.9 139.2 97.3 C 138.7 97.5 138.3 97.6 138.1 97.6 C 137.6 97.6 137.1 97.4 136.7 96.9 C 136.2 96.5 136.0 96.0 136.0 95.5 C 136.0 95.3 136.1 94.9 136.4 94.4 C 136.7 93.6 136.9 92.9 136.9 92.3 C 136.9 91.8 136.7 91.1 136.4 90.3 C 136.1 89.8 136.0 89.4 136.0 89.2 C 136.0 88.7 136.2 88.2 136.7 87.7 C 137.1 87.3 137.6 87.1 138.1 87.1 C 138.3 87.1 138.7 87.2 139.2 87.4 C 139.9 87.8 140.6 88.0 141.2 88.0 C 141.8 88.0 142.5 87.8 143.3 87.4 C 143.8 87.2 144.2 87.1 144.4 87.1 C 144.9 87.1 145.4 87.3 145.9 87.7 C 146.3 88.2 146.5 88.7 146.5 89.2 C 146.5 89.4 146.4 89.8 146.2 90.3 C 145.8 91.1 145.6 91.8 145.6 92.3 C 145.6 92.9 145.8 93.6 146.2 94.4 C 146.4 94.9 146.5 95.3 146.5 95.5 " fill="#FFFFFF"></path></g></g></g></g></g></g></g><image xlink:href="C7364D6CBC4217909707E374905244CC.png" width="85.00" height="31.00" transform="matrix(1.00, 0.00, -0.00, -1.00, 162.0, 106.0)"></image><text xml:space="preserve" font-family="HelveticaNeue-Light" font-size="29.9" fill="#FEFFFE" transform="matrix(1.00, 0.00, -0.00, -1.00, 165.0, 83.0)">G</text><text xml:space="preserve" font-family="HelveticaNeue-Light" font-size="29.9" fill="#FEFFFE" transform="matrix(1.00, 0.00, -0.00, -1.00, 187.1, 83.0)">l</text><text xml:space="preserve" font-family="HelveticaNeue-Light" font-size="29.9" fill="#FEFFFE" transform="matrix(1.00, 0.00, -0.00, -1.00, 192.7, 83.0)">o</text><text xml:space="preserve" font-family="HelveticaNeue-Light" font-size="29.9" fill="#FEFFFE" transform="matrix(1.00, 0.00, -0.00, -1.00, 209.3, 83.0)">b</text><text xml:space="preserve" font-family="HelveticaNeue-Light" font-size="29.9" fill="#FEFFFE" transform="matrix(1.00, 0.00, -0.00, -1.00, 226.4, 83.0)">o</text><image xlink:href="8175E3E2D645787A2803AC92C7CB58ED.png" width="11.00" height="11.00" transform="matrix(1.00, 0.00, -0.00, -1.00, 546.0, 559.0)"></image><g><clipPath id="clip-29"><path d="M 546.0 548.2 L 556.5 548.2 L 556.5 558.8 L 546.0 558.8 Z M 546.0 548.2 "></path></clipPath><g clip-path="url(#clip-29)"><g><g><clipPath id="clip-30"><path d="M 546.0 558.8 L 556.5 558.8 L 556.5 548.2 L 546.0 548.2 Z M 546.0 558.8 "></path></clipPath><g clip-path="url(#clip-30)"><g><clipPath id="clip-31"><path d="M 542.0 541.0 L 561.0 541.0 L 561.0 566.0 L 542.0 566.0 Z M 542.0 541.0 "></path></clipPath><g clip-path="url(#clip-31)"><path d="M 556.5 556.7 C 556.5 557.1 556.3 557.6 555.9 558.1 C 555.4 558.6 554.9 558.8 554.4 558.8 C 554.2 558.8 553.8 558.7 553.3 558.4 C 552.5 558.0 551.8 557.8 551.2 557.8 C 550.6 557.8 549.9 558.0 549.2 558.4 C 548.7 558.7 548.3 558.8 548.1 558.8 C 547.6 558.8 547.1 558.6 546.7 558.1 C 546.2 557.6 546.0 557.2 546.0 556.7 C 546.0 556.4 546.1 556.0 546.4 555.5 C 546.7 554.7 546.9 554.1 546.9 553.5 C 546.9 552.9 546.7 552.3 546.4 551.4 C 546.1 551.0 546.0 550.6 546.0 550.3 C 546.0 549.8 546.2 549.4 546.7 548.9 C 547.1 548.4 547.6 548.2 548.1 548.2 C 548.3 548.2 548.7 548.3 549.2 548.6 C 549.9 549.0 550.6 549.2 551.2 549.2 C 551.8 549.2 552.5 549.0 553.3 548.6 C 553.8 548.3 554.2 548.2 554.4 548.2 C 554.9 548.2 555.4 548.4 555.9 548.9 C 556.3 549.4 556.5 549.8 556.5 550.3 C 556.5 550.6 556.4 551.0 556.2 551.4 C 555.8 552.3 555.6 552.9 555.6 553.5 C 555.6 554.1 555.8 554.7 556.2 555.5 C 556.4 556.0 556.5 556.4 556.5 556.7 " fill="#FFFFFF"></path></g></g></g></g></g></g></g><image xlink:href="FCE5A73712D612BB6DAD654AA5CD96EE.png" width="128.00" height="31.00" transform="matrix(1.00, 0.00, -0.00, -1.00, 573.0, 567.0)"></image><text xml:space="preserve" font-family="HelveticaNeue-Light" font-size="29.9" fill="#FEFFFE" transform="matrix(1.00, 0.00, -0.00, -1.00, 575.0, 544.0)">B</text><text xml:space="preserve" font-family="HelveticaNeue-Light" font-size="29.9" fill="#FEFFFE" transform="matrix(1.00, 0.00, -0.00, -1.00, 594.9, 544.0)">i</text><text xml:space="preserve" font-family="HelveticaNeue-Light" font-size="29.9" fill="#FEFFFE" transform="matrix(1.00, 0.00, -0.00, -1.00, 600.5, 544.0)">t</text><text xml:space="preserve" font-family="HelveticaNeue-Light" font-size="29.9" fill="#FEFFFE" transform="matrix(1.00, 0.00, -0.00, -1.00, 609.3, 544.0)">b</text><text xml:space="preserve" font-family="HelveticaNeue-Light" font-size="29.9" fill="#FEFFFE" transform="matrix(1.00, 0.00, -0.00, -1.00, 626.5, 544.0)">u</text><text xml:space="preserve" font-family="HelveticaNeue-Light" font-size="29.9" fill="#FEFFFE" transform="matrix(1.00, 0.00, -0.00, -1.00, 642.5, 544.0)">c</text><text xml:space="preserve" font-family="HelveticaNeue-Light" font-size="29.9" fill="#FEFFFE" transform="matrix(1.00, 0.00, -0.00, -1.00, 658.0, 544.0)">k</text><text xml:space="preserve" font-family="HelveticaNeue-Light" font-size="29.9" fill="#FEFFFE" transform="matrix(1.00, 0.00, -0.00, -1.00, 672.9, 544.0)">e</text><text xml:space="preserve" font-family="HelveticaNeue-Light" font-size="29.9" fill="#FEFFFE" transform="matrix(1.00, 0.00, -0.00, -1.00, 688.5, 544.0)">t</text><text xml:space="preserve" font-family="HelveticaNeue-Light" font-size="29.9" fill="#FEFFFE" transform="matrix(1.00, 0.00, -0.00, -1.00, 697.3, 544.0)"> </text><image xlink:href="../../067FFA39-0696-4A3E-A97C-74563B61198E/assets/24B8F6FC603F35072809911E4A64F956.png" width="11.00" height="11.00" transform="matrix(1.00, 0.00, -0.00, -1.00, 546.0, 493.0)"></image><g><clipPath id="clip-32"><path d="M 546.0 482.3 L 556.5 482.3 L 556.5 492.9 L 546.0 492.9 Z M 546.0 482.3 "></path></clipPath><g clip-path="url(#clip-32)"><g><g><clipPath id="clip-33"><path d="M 546.0 492.9 L 556.5 492.9 L 556.5 482.3 L 546.0 482.3 Z M 546.0 492.9 "></path></clipPath><g clip-path="url(#clip-33)"><g><clipPath id="clip-34"><path d="M 542.0 475.0 L 561.0 475.0 L 561.0 500.0 L 542.0 500.0 Z M 542.0 475.0 "></path></clipPath><g clip-path="url(#clip-34)"><path d="M 556.5 490.8 C 556.5 491.3 556.3 491.7 555.9 492.2 C 555.4 492.7 554.9 492.9 554.4 492.9 C 554.2 492.9 553.8 492.8 553.3 492.5 C 552.5 492.2 551.8 492.0 551.2 492.0 C 550.6 492.0 549.9 492.2 549.2 492.5 C 548.7 492.8 548.3 492.9 548.1 492.9 C 547.6 492.9 547.1 492.7 546.7 492.2 C 546.2 491.8 546.0 491.3 546.0 490.8 C 546.0 490.6 546.1 490.2 546.4 489.6 C 546.7 488.9 546.9 488.2 546.9 487.6 C 546.9 487.1 546.7 486.4 546.4 485.6 C 546.1 485.1 546.0 484.7 546.0 484.5 C 546.0 484.0 546.2 483.5 546.7 483.0 C 547.1 482.6 547.6 482.3 548.1 482.3 C 548.3 482.3 548.7 482.5 549.2 482.7 C 549.9 483.1 550.6 483.3 551.2 483.3 C 551.8 483.3 552.5 483.1 553.3 482.7 C 553.8 482.5 554.2 482.3 554.4 482.3 C 554.9 482.3 555.4 482.6 555.9 483.0 C 556.3 483.5 556.5 484.0 556.5 484.5 C 556.5 484.7 556.4 485.1 556.2 485.6 C 555.8 486.4 555.6 487.1 555.6 487.6 C 555.6 488.2 555.8 488.9 556.2 489.6 C 556.4 490.2 556.5 490.6 556.5 490.8 " fill="#FFFFFF"></path></g></g></g></g></g></g></g><image xlink:href="F59D2162C2452365AC296181B440A055.png" width="67.00" height="31.00" transform="matrix(1.00, 0.00, -0.00, -1.00, 573.0, 501.0)"></image><text xml:space="preserve" font-family="HelveticaNeue-Light" font-size="29.9" fill="#FEFFFE" transform="matrix(1.00, 0.00, -0.00, -1.00, 575.0, 478.0)">P</text><text xml:space="preserve" font-family="HelveticaNeue-Light" font-size="29.9" fill="#FEFFFE" transform="matrix(1.00, 0.00, -0.00, -1.00, 593.8, 478.0)">r</text><text xml:space="preserve" font-family="HelveticaNeue-Light" font-size="29.9" fill="#FEFFFE" transform="matrix(1.00, 0.00, -0.00, -1.00, 602.7, 478.0)">e</text><text xml:space="preserve" font-family="HelveticaNeue-Light" font-size="29.9" fill="#FEFFFE" transform="matrix(1.00, 0.00, -0.00, -1.00, 618.2, 478.0)">z</text><text xml:space="preserve" font-family="HelveticaNeue-Light" font-size="29.9" fill="#FEFFFE" transform="matrix(1.00, 0.00, -0.00, -1.00, 632.0, 478.0)">i</text><text xml:space="preserve" font-family="HelveticaNeue-Light" font-size="29.9" fill="#FEFFFE" transform="matrix(1.00, 0.00, -0.00, -1.00, 637.6, 478.0)"> </text><image xlink:href="../../067FFA39-0696-4A3E-A97C-74563B61198E/assets/A10B2525D0BC88172EEA78DD90353C76.png" width="11.00" height="12.00" transform="matrix(1.00, 0.00, -0.00, -1.00, 546.0, 428.0)"></image><g><clipPath id="clip-35"><path d="M 546.0 416.5 L 556.5 416.5 L 556.5 427.0 L 546.0 427.0 Z M 546.0 416.5 "></path></clipPath><g clip-path="url(#clip-35)"><g><g><clipPath id="clip-36"><path d="M 546.0 427.0 L 556.5 427.0 L 556.5 416.5 L 546.0 416.5 Z M 546.0 427.0 "></path></clipPath><g clip-path="url(#clip-36)"><g><clipPath id="clip-37"><path d="M 542.0 409.0 L 561.0 409.0 L 561.0 435.0 L 542.0 435.0 Z M 542.0 409.0 "></path></clipPath><g clip-path="url(#clip-37)"><path d="M 556.5 424.9 C 556.5 425.4 556.3 425.8 555.9 426.3 C 555.4 426.8 554.9 427.0 554.4 427.0 C 554.2 427.0 553.8 426.9 553.3 426.7 C 552.5 426.3 551.8 426.1 551.2 426.1 C 550.6 426.1 549.9 426.3 549.2 426.7 C 548.7 426.9 548.3 427.0 548.1 427.0 C 547.6 427.0 547.1 426.8 546.7 426.3 C 546.2 425.9 546.0 425.4 546.0 424.9 C 546.0 424.7 546.1 424.3 546.4 423.8 C 546.7 423.0 546.9 422.3 546.9 421.7 C 546.9 421.2 546.7 420.5 546.4 419.7 C 546.1 419.2 546.0 418.8 546.0 418.6 C 546.0 418.1 546.2 417.6 546.7 417.1 C 547.1 416.7 547.6 416.5 548.1 416.5 C 548.3 416.5 548.7 416.6 549.2 416.8 C 549.9 417.2 550.6 417.4 551.2 417.4 C 551.8 417.4 552.5 417.2 553.3 416.8 C 553.8 416.6 554.2 416.5 554.4 416.5 C 554.9 416.5 555.4 416.7 555.9 417.1 C 556.3 417.6 556.5 418.1 556.5 418.6 C 556.5 418.8 556.4 419.2 556.2 419.7 C 555.8 420.5 555.6 421.2 555.6 421.7 C 555.6 422.3 555.8 423.0 556.2 423.8 C 556.4 424.3 556.5 424.7 556.5 424.9 " fill="#FFFFFF"></path></g></g></g></g></g></g></g><image xlink:href="BD4D8DBA2DA0FF7E4649371B1833ED06.png" width="120.00" height="36.00" transform="matrix(1.00, 0.00, -0.00, -1.00, 573.0, 435.0)"></image><text xml:space="preserve" font-family="HelveticaNeue-Light" font-size="29.9" fill="#FEFFFE" transform="matrix(1.00, 0.00, -0.00, -1.00, 575.0, 412.0)">D</text><text xml:space="preserve" font-family="HelveticaNeue-Light" font-size="29.9" fill="#FEFFFE" transform="matrix(1.00, 0.00, -0.00, -1.00, 595.5, 412.0)">r</text><text xml:space="preserve" font-family="HelveticaNeue-Light" font-size="29.9" fill="#FEFFFE" transform="matrix(1.00, 0.00, -0.00, -1.00, 604.3, 412.0)">o</text><text xml:space="preserve" font-family="HelveticaNeue-Light" font-size="29.9" fill="#FEFFFE" transform="matrix(1.00, 0.00, -0.00, -1.00, 621.0, 412.0)">p</text><text xml:space="preserve" font-family="HelveticaNeue-Light" font-size="29.9" fill="#FEFFFE" transform="matrix(1.00, 0.00, -0.00, -1.00, 638.1, 412.0)">B</text><text xml:space="preserve" font-family="HelveticaNeue-Light" font-size="29.9" fill="#FEFFFE" transform="matrix(1.00, 0.00, -0.00, -1.00, 658.0, 412.0)">o</text><text xml:space="preserve" font-family="HelveticaNeue-Light" font-size="29.9" fill="#FEFFFE" transform="matrix(1.00, 0.00, -0.00, -1.00, 674.6, 412.0)">x</text><text xml:space="preserve" font-family="HelveticaNeue-Light" font-size="29.9" fill="#FEFFFE" transform="matrix(1.00, 0.00, -0.00, -1.00, 689.0, 412.0)"> </text><image xlink:href="../../067FFA39-0696-4A3E-A97C-74563B61198E/assets/9B3324F0CB82486D18521D5BF125770B.png" width="11.00" height="12.00" transform="matrix(1.00, 0.00, -0.00, -1.00, 546.0, 362.0)"></image><g><clipPath id="clip-38"><path d="M 546.0 350.6 L 556.5 350.6 L 556.5 361.2 L 546.0 361.2 Z M 546.0 350.6 "></path></clipPath><g clip-path="url(#clip-38)"><g><g><clipPath id="clip-39"><path d="M 546.0 361.2 L 556.5 361.2 L 556.5 350.6 L 546.0 350.6 Z M 546.0 361.2 "></path></clipPath><g clip-path="url(#clip-39)"><g><clipPath id="clip-40"><path d="M 542.0 343.0 L 561.0 343.0 L 561.0 369.0 L 542.0 369.0 Z M 542.0 343.0 "></path></clipPath><g clip-path="url(#clip-40)"><path d="M 556.5 359.0 C 556.5 359.5 556.3 360.0 555.9 360.4 C 555.4 360.9 554.9 361.2 554.4 361.2 C 554.2 361.2 553.8 361.0 553.3 360.8 C 552.5 360.4 551.8 360.2 551.2 360.2 C 550.6 360.2 549.9 360.4 549.2 360.8 C 548.7 361.0 548.3 361.2 548.1 361.2 C 547.6 361.2 547.1 360.9 546.7 360.5 C 546.2 360.0 546.0 359.5 546.0 359.0 C 546.0 358.8 546.1 358.4 546.4 357.9 C 546.7 357.1 546.9 356.4 546.9 355.9 C 546.9 355.3 546.7 354.6 546.4 353.8 C 546.1 353.3 546.0 352.9 546.0 352.7 C 546.0 352.2 546.2 351.7 546.7 351.3 C 547.1 350.8 547.6 350.6 548.1 350.6 C 548.3 350.6 548.7 350.7 549.2 350.9 C 549.9 351.3 550.6 351.5 551.2 351.5 C 551.8 351.5 552.5 351.3 553.3 350.9 C 553.8 350.7 554.2 350.6 554.4 350.6 C 554.9 350.6 555.4 350.8 555.9 351.3 C 556.3 351.7 556.5 352.2 556.5 352.7 C 556.5 352.9 556.4 353.3 556.2 353.8 C 555.8 354.6 555.6 355.3 555.6 355.9 C 555.6 356.4 555.8 357.1 556.2 357.9 C 556.4 358.4 556.5 358.8 556.5 359.0 " fill="#FFFFFF"></path></g></g></g></g></g></g></g><image xlink:href="B95567CA7FDF5093A61239CAA1C65134.png" width="96.00" height="36.00" transform="matrix(1.00, 0.00, -0.00, -1.00, 572.0, 370.0)"></image><text xml:space="preserve" font-family="HelveticaNeue-Light" font-size="29.9" fill="#FEFFFE" transform="matrix(1.00, 0.00, -0.00, -1.00, 575.0, 347.0)">S</text><text xml:space="preserve" font-family="HelveticaNeue-Light" font-size="29.9" fill="#FEFFFE" transform="matrix(1.00, 0.00, -0.00, -1.00, 593.8, 347.0)">p</text><text xml:space="preserve" font-family="HelveticaNeue-Light" font-size="29.9" fill="#FEFFFE" transform="matrix(1.00, 0.00, -0.00, -1.00, 611.0, 347.0)">o</text><text xml:space="preserve" font-family="HelveticaNeue-Light" font-size="29.9" fill="#FEFFFE" transform="matrix(1.00, 0.00, -0.00, -1.00, 627.6, 347.0)">t</text><text xml:space="preserve" font-family="HelveticaNeue-Light" font-size="29.9" fill="#FEFFFE" transform="matrix(1.00, 0.00, -0.00, -1.00, 636.4, 347.0)">i</text><text xml:space="preserve" font-family="HelveticaNeue-Light" font-size="29.9" fill="#FEFFFE" transform="matrix(1.00, 0.00, -0.00, -1.00, 642.0, 347.0)">f</text><text xml:space="preserve" font-family="HelveticaNeue-Light" font-size="29.9" fill="#FEFFFE" transform="matrix(1.00, 0.00, -0.00, -1.00, 649.7, 347.0)">y</text><text xml:space="preserve" font-family="HelveticaNeue-Light" font-size="29.9" fill="#FEFFFE" transform="matrix(1.00, 0.00, -0.00, -1.00, 663.5, 347.0)"> </text><image xlink:href="../../067FFA39-0696-4A3E-A97C-74563B61198E/assets/22CD7786BFCD22BFE2613A12D6ACAC53.png" width="11.00" height="12.00" transform="matrix(1.00, 0.00, -0.00, -1.00, 546.0, 296.0)"></image><g><clipPath id="clip-41"><path d="M 546.0 284.7 L 556.5 284.7 L 556.5 295.3 L 546.0 295.3 Z M 546.0 284.7 "></path></clipPath><g clip-path="url(#clip-41)"><g><g><clipPath id="clip-42"><path d="M 546.0 295.3 L 556.5 295.3 L 556.5 284.7 L 546.0 284.7 Z M 546.0 295.3 "></path></clipPath><g clip-path="url(#clip-42)"><g><clipPath id="clip-43"><path d="M 542.0 277.0 L 561.0 277.0 L 561.0 303.0 L 542.0 303.0 Z M 542.0 277.0 "></path></clipPath><g clip-path="url(#clip-43)"><path d="M 556.5 293.2 C 556.5 293.6 556.3 294.1 555.9 294.6 C 555.4 295.0 554.9 295.3 554.4 295.3 C 554.2 295.3 553.8 295.2 553.3 294.9 C 552.5 294.5 551.8 294.3 551.2 294.3 C 550.6 294.3 549.9 294.5 549.2 294.9 C 548.7 295.2 548.3 295.3 548.1 295.3 C 547.6 295.3 547.1 295.0 546.7 294.6 C 546.2 294.1 546.0 293.7 546.0 293.2 C 546.0 292.9 546.1 292.5 546.4 292.0 C 546.7 291.2 546.9 290.6 546.9 290.0 C 546.9 289.4 546.7 288.7 546.4 287.9 C 546.1 287.4 546.0 287.1 546.0 286.8 C 546.0 286.3 546.2 285.8 546.7 285.4 C 547.1 284.9 547.6 284.7 548.1 284.7 C 548.3 284.7 548.7 284.8 549.2 285.1 C 549.9 285.5 550.6 285.7 551.2 285.7 C 551.8 285.7 552.5 285.5 553.3 285.1 C 553.8 284.8 554.2 284.7 554.4 284.7 C 554.9 284.7 555.4 284.9 555.9 285.4 C 556.3 285.8 556.5 286.3 556.5 286.8 C 556.5 287.1 556.4 287.4 556.2 287.9 C 555.8 288.7 555.6 289.4 555.6 290.0 C 555.6 290.6 555.8 291.2 556.2 292.0 C 556.4 292.5 556.5 292.9 556.5 293.2 " fill="#FFFFFF"></path></g></g></g></g></g></g></g><image xlink:href="2527C276476A9789DADE870E574E6F56.png" width="73.00" height="31.00" transform="matrix(1.00, 0.00, -0.00, -1.00, 573.0, 304.0)"></image><text xml:space="preserve" font-family="HelveticaNeue-Light" font-size="29.9" fill="#FEFFFE" transform="matrix(1.00, 0.00, -0.00, -1.00, 575.0, 281.0)">N</text><text xml:space="preserve" font-family="HelveticaNeue-Light" font-size="29.9" fill="#FEFFFE" transform="matrix(1.00, 0.00, -0.00, -1.00, 596.0, 281.0)">a</text><text xml:space="preserve" font-family="HelveticaNeue-Light" font-size="29.9" fill="#FEFFFE" transform="matrix(1.00, 0.00, -0.00, -1.00, 611.5, 281.0)">s</text><text xml:space="preserve" font-family="HelveticaNeue-Light" font-size="29.9" fill="#FEFFFE" transform="matrix(1.00, 0.00, -0.00, -1.00, 625.9, 281.0)">a</text><text xml:space="preserve" font-family="HelveticaNeue-Light" font-size="29.9" fill="#FEFFFE" transform="matrix(1.00, 0.00, -0.00, -1.00, 641.4, 281.0)"> </text><image xlink:href="../../067FFA39-0696-4A3E-A97C-74563B61198E/assets/D367D65ADF645DAECCCB1CC40BF4FB11.png" width="11.00" height="12.00" transform="matrix(1.00, 0.00, -0.00, -1.00, 546.0, 230.0)"></image><g><clipPath id="clip-44"><path d="M 546.0 218.8 L 556.5 218.8 L 556.5 229.4 L 546.0 229.4 Z M 546.0 218.8 "></path></clipPath><g clip-path="url(#clip-44)"><g><g><clipPath id="clip-45"><path d="M 546.0 229.4 L 556.5 229.4 L 556.5 218.8 L 546.0 218.8 Z M 546.0 229.4 "></path></clipPath><g clip-path="url(#clip-45)"><g><clipPath id="clip-46"><path d="M 542.0 211.0 L 561.0 211.0 L 561.0 237.0 L 542.0 237.0 Z M 542.0 211.0 "></path></clipPath><g clip-path="url(#clip-46)"><path d="M 556.5 227.3 C 556.5 227.7 556.3 228.2 555.9 228.7 C 555.4 229.2 554.9 229.4 554.4 229.4 C 554.2 229.4 553.8 229.3 553.3 229.0 C 552.5 228.6 551.8 228.4 551.2 228.4 C 550.6 228.4 549.9 228.6 549.2 229.0 C 548.7 229.3 548.3 229.4 548.1 229.4 C 547.6 229.4 547.1 229.2 546.7 228.7 C 546.2 228.2 546.0 227.8 546.0 227.3 C 546.0 227.0 546.1 226.6 546.4 226.1 C 546.7 225.3 546.9 224.7 546.9 224.1 C 546.9 223.5 546.7 222.9 546.4 222.0 C 546.1 221.6 546.0 221.2 546.0 220.9 C 546.0 220.4 546.2 220.0 546.7 219.5 C 547.1 219.0 547.6 218.8 548.1 218.8 C 548.3 218.8 548.7 218.9 549.2 219.2 C 549.9 219.6 550.6 219.8 551.2 219.8 C 551.8 219.8 552.5 219.6 553.3 219.2 C 553.8 218.9 554.2 218.8 554.4 218.8 C 554.9 218.8 555.4 219.0 555.9 219.5 C 556.3 220.0 556.5 220.4 556.5 220.9 C 556.5 221.2 556.4 221.6 556.2 222.0 C 555.8 222.9 555.6 223.5 555.6 224.1 C 555.6 224.7 555.8 225.3 556.2 226.1 C 556.4 226.6 556.5 227.0 556.5 227.3 " fill="#FFFFFF"></path></g></g></g></g></g></g></g><image xlink:href="EEE5E06E0424E635220A3E52F2A60F3B.png" width="284.00" height="37.00" transform="matrix(1.00, 0.00, -0.00, -1.00, 570.0, 238.0)"></image><text xml:space="preserve" font-family="HelveticaNeue-Light" font-size="29.9" fill="#FEFFFE" transform="matrix(1.00, 0.00, -0.00, -1.00, 575.0, 215.0)">T</text><text xml:space="preserve" font-family="HelveticaNeue-Light" font-size="29.9" fill="#FEFFFE" transform="matrix(1.00, 0.00, -0.00, -1.00, 591.6, 215.0)">h</text><text xml:space="preserve" font-family="HelveticaNeue-Light" font-size="29.9" fill="#FEFFFE" transform="matrix(1.00, 0.00, -0.00, -1.00, 607.7, 215.0)">e</text><text xml:space="preserve" font-family="HelveticaNeue-Light" font-size="29.9" fill="#FEFFFE" transform="matrix(1.00, 0.00, -0.00, -1.00, 623.2, 215.0)"> </text><text xml:space="preserve" font-family="HelveticaNeue-Light" font-size="29.9" fill="#FEFFFE" transform="matrix(1.00, 0.00, -0.00, -1.00, 631.5, 215.0)">W</text><text xml:space="preserve" font-family="HelveticaNeue-Light" font-size="29.9" fill="#FEFFFE" transform="matrix(1.00, 0.00, -0.00, -1.00, 657.5, 215.0)">a</text><text xml:space="preserve" font-family="HelveticaNeue-Light" font-size="29.9" fill="#FEFFFE" transform="matrix(1.00, 0.00, -0.00, -1.00, 673.0, 215.0)">s</text><text xml:space="preserve" font-family="HelveticaNeue-Light" font-size="29.9" fill="#FEFFFE" transform="matrix(1.00, 0.00, -0.00, -1.00, 687.3, 215.0)">h</text><text xml:space="preserve" font-family="HelveticaNeue-Light" font-size="29.9" fill="#FEFFFE" transform="matrix(1.00, 0.00, -0.00, -1.00, 703.4, 215.0)">i</text><text xml:space="preserve" font-family="HelveticaNeue-Light" font-size="29.9" fill="#FEFFFE" transform="matrix(1.00, 0.00, -0.00, -1.00, 708.9, 215.0)">n</text><text xml:space="preserve" font-family="HelveticaNeue-Light" font-size="29.9" fill="#FEFFFE" transform="matrix(1.00, 0.00, -0.00, -1.00, 725.0, 215.0)">g</text><text xml:space="preserve" font-family="HelveticaNeue-Light" font-size="29.9" fill="#FEFFFE" transform="matrix(1.00, 0.00, -0.00, -1.00, 741.6, 215.0)">t</text><text xml:space="preserve" font-family="HelveticaNeue-Light" font-size="29.9" fill="#FEFFFE" transform="matrix(1.00, 0.00, -0.00, -1.00, 750.4, 215.0)">o</text><text xml:space="preserve" font-family="HelveticaNeue-Light" font-size="29.9" fill="#FEFFFE" transform="matrix(1.00, 0.00, -0.00, -1.00, 767.0, 215.0)">n</text><text xml:space="preserve" font-family="HelveticaNeue-Light" font-size="29.9" fill="#FEFFFE" transform="matrix(1.00, 0.00, -0.00, -1.00, 783.1, 215.0)"> </text><text xml:space="preserve" font-family="HelveticaNeue-Light" font-size="29.9" fill="#FEFFFE" transform="matrix(1.00, 0.00, -0.00, -1.00, 791.4, 215.0)">P</text><text xml:space="preserve" font-family="HelveticaNeue-Light" font-size="29.9" fill="#FEFFFE" transform="matrix(1.00, 0.00, -0.00, -1.00, 810.2, 215.0)">o</text><text xml:space="preserve" font-family="HelveticaNeue-Light" font-size="29.9" fill="#FEFFFE" transform="matrix(1.00, 0.00, -0.00, -1.00, 826.8, 215.0)">s</text><text xml:space="preserve" font-family="HelveticaNeue-Light" font-size="29.9" fill="#FEFFFE" transform="matrix(1.00, 0.00, -0.00, -1.00, 841.2, 215.0)">t</text><text xml:space="preserve" font-family="HelveticaNeue-Light" font-size="29.9" fill="#FEFFFE" transform="matrix(1.00, 0.00, -0.00, -1.00, 850.0, 215.0)"> </text><image xlink:href="../../067FFA39-0696-4A3E-A97C-74563B61198E/assets/C595F1A62DC36F0B4ABB3583038393CD.png" width="11.00" height="12.00" transform="matrix(1.00, 0.00, -0.00, -1.00, 546.0, 164.0)"></image><g><clipPath id="clip-47"><path d="M 546.0 152.9 L 556.5 152.9 L 556.5 163.5 L 546.0 163.5 Z M 546.0 152.9 "></path></clipPath><g clip-path="url(#clip-47)"><g><g><clipPath id="clip-48"><path d="M 546.0 163.5 L 556.5 163.5 L 556.5 152.9 L 546.0 152.9 Z M 546.0 163.5 "></path></clipPath><g clip-path="url(#clip-48)"><g><clipPath id="clip-49"><path d="M 542.0 145.0 L 561.0 145.0 L 561.0 171.0 L 542.0 171.0 Z M 542.0 145.0 "></path></clipPath><g clip-path="url(#clip-49)"><path d="M 556.5 161.4 C 556.5 161.9 556.3 162.3 555.9 162.8 C 555.4 163.3 554.9 163.5 554.4 163.5 C 554.2 163.5 553.8 163.4 553.3 163.1 C 552.5 162.8 551.8 162.6 551.2 162.6 C 550.6 162.6 549.9 162.8 549.2 163.1 C 548.7 163.4 548.3 163.5 548.1 163.5 C 547.6 163.5 547.1 163.3 546.7 162.8 C 546.2 162.4 546.0 161.9 546.0 161.4 C 546.0 161.2 546.1 160.8 546.4 160.2 C 546.7 159.5 546.9 158.8 546.9 158.2 C 546.9 157.7 546.7 157.0 546.4 156.2 C 546.1 155.7 546.0 155.3 546.0 155.1 C 546.0 154.6 546.2 154.1 546.7 153.6 C 547.1 153.2 547.6 152.9 548.1 152.9 C 548.3 152.9 548.7 153.1 549.2 153.3 C 549.9 153.7 550.6 153.9 551.2 153.9 C 551.8 153.9 552.5 153.7 553.3 153.3 C 553.8 153.1 554.2 152.9 554.4 152.9 C 554.9 152.9 555.4 153.2 555.9 153.6 C 556.3 154.1 556.5 154.6 556.5 155.1 C 556.5 155.3 556.4 155.7 556.2 156.2 C 555.8 157.0 555.6 157.7 555.6 158.2 C 555.6 158.8 555.8 159.5 556.2 160.2 C 556.4 160.8 556.5 161.2 556.5 161.4 " fill="#FFFFFF"></path></g></g></g></g></g></g></g><image xlink:href="F408D063379A7654AF7C68DFAC2A5018.png" width="181.00" height="31.00" transform="matrix(1.00, 0.00, -0.00, -1.00, 570.0, 172.0)"></image><text xml:space="preserve" font-family="HelveticaNeue-Light" font-size="29.9" fill="#FEFFFE" transform="matrix(1.00, 0.00, -0.00, -1.00, 575.0, 149.0)">T</text><text xml:space="preserve" font-family="HelveticaNeue-Light" font-size="29.9" fill="#FEFFFE" transform="matrix(1.00, 0.00, -0.00, -1.00, 591.6, 149.0)">h</text><text xml:space="preserve" font-family="HelveticaNeue-Light" font-size="29.9" fill="#FEFFFE" transform="matrix(1.00, 0.00, -0.00, -1.00, 607.7, 149.0)">e</text><text xml:space="preserve" font-family="HelveticaNeue-Light" font-size="29.9" fill="#FEFFFE" transform="matrix(1.00, 0.00, -0.00, -1.00, 623.2, 149.0)"> </text><text xml:space="preserve" font-family="HelveticaNeue-Light" font-size="29.9" fill="#FEFFFE" transform="matrix(1.00, 0.00, -0.00, -1.00, 631.5, 149.0)">G</text><text xml:space="preserve" font-family="HelveticaNeue-Light" font-size="29.9" fill="#FEFFFE" transform="matrix(1.00, 0.00, -0.00, -1.00, 653.6, 149.0)">u</text><text xml:space="preserve" font-family="HelveticaNeue-Light" font-size="29.9" fill="#FEFFFE" transform="matrix(1.00, 0.00, -0.00, -1.00, 669.7, 149.0)">a</text><text xml:space="preserve" font-family="HelveticaNeue-Light" font-size="29.9" fill="#FEFFFE" transform="matrix(1.00, 0.00, -0.00, -1.00, 685.2, 149.0)">r</text><text xml:space="preserve" font-family="HelveticaNeue-Light" font-size="29.9" fill="#FEFFFE" transform="matrix(1.00, 0.00, -0.00, -1.00, 694.0, 149.0)">d</text><text xml:space="preserve" font-family="HelveticaNeue-Light" font-size="29.9" fill="#FEFFFE" transform="matrix(1.00, 0.00, -0.00, -1.00, 711.2, 149.0)">i</text><text xml:space="preserve" font-family="HelveticaNeue-Light" font-size="29.9" fill="#FEFFFE" transform="matrix(1.00, 0.00, -0.00, -1.00, 716.7, 149.0)">a</text><text xml:space="preserve" font-family="HelveticaNeue-Light" font-size="29.9" fill="#FEFFFE" transform="matrix(1.00, 0.00, -0.00, -1.00, 732.2, 149.0)">n</text><text xml:space="preserve" font-family="HelveticaNeue-Light" font-size="29.9" fill="#FEFFFE" transform="matrix(1.00, 0.00, -0.00, -1.00, 748.3, 149.0)"> </text><image xlink:href="../../067FFA39-0696-4A3E-A97C-74563B61198E/assets/97D44616A3AB933A43F5266FF01B88E2.png" width="11.00" height="11.00" transform="matrix(1.00, 0.00, -0.00, -1.00, 546.0, 98.0)"></image><g><clipPath id="clip-50"><path d="M 546.0 87.1 L 556.5 87.1 L 556.5 97.6 L 546.0 97.6 Z M 546.0 87.1 "></path></clipPath><g clip-path="url(#clip-50)"><g><g><clipPath id="clip-51"><path d="M 546.0 97.6 L 556.5 97.6 L 556.5 87.1 L 546.0 87.1 Z M 546.0 97.6 "></path></clipPath><g clip-path="url(#clip-51)"><g><clipPath id="clip-52"><path d="M 542.0 80.0 L 561.0 80.0 L 561.0 105.0 L 542.0 105.0 Z M 542.0 80.0 "></path></clipPath><g clip-path="url(#clip-52)"><path d="M 556.5 95.5 C 556.5 96.0 556.3 96.4 555.9 96.9 C 555.4 97.4 554.9 97.6 554.4 97.6 C 554.2 97.6 553.8 97.5 553.3 97.3 C 552.5 96.9 551.8 96.7 551.2 96.7 C 550.6 96.7 549.9 96.9 549.2 97.3 C 548.7 97.5 548.3 97.6 548.1 97.6 C 547.6 97.6 547.1 97.4 546.7 96.9 C 546.2 96.5 546.0 96.0 546.0 95.5 C 546.0 95.3 546.1 94.9 546.4 94.4 C 546.7 93.6 546.9 92.9 546.9 92.3 C 546.9 91.8 546.7 91.1 546.4 90.3 C 546.1 89.8 546.0 89.4 546.0 89.2 C 546.0 88.7 546.2 88.2 546.7 87.7 C 547.1 87.3 547.6 87.1 548.1 87.1 C 548.3 87.1 548.7 87.2 549.2 87.4 C 549.9 87.8 550.6 88.0 551.2 88.0 C 551.8 88.0 552.5 87.8 553.3 87.4 C 553.8 87.2 554.2 87.1 554.4 87.1 C 554.9 87.1 555.4 87.3 555.9 87.7 C 556.3 88.2 556.5 88.7 556.5 89.2 C 556.5 89.4 556.4 89.8 556.2 90.3 C 555.8 91.1 555.6 91.8 555.6 92.3 C 555.6 92.9 555.8 93.6 556.2 94.4 C 556.4 94.9 556.5 95.3 556.5 95.5 " fill="#FFFFFF"></path></g></g></g></g></g></g></g><image xlink:href="904DF2FA18DE8E2EA406105932A345A1.png" width="269.00" height="37.00" transform="matrix(1.00, 0.00, -0.00, -1.00, 573.0, 106.0)"></image><text xml:space="preserve" font-family="HelveticaNeue-Light" font-size="29.9" fill="#FEFFFE" transform="matrix(1.00, 0.00, -0.00, -1.00, 575.0, 83.0)">N</text><text xml:space="preserve" font-family="HelveticaNeue-Light" font-size="29.9" fill="#FEFFFE" transform="matrix(1.00, 0.00, -0.00, -1.00, 596.0, 83.0)">a</text><text xml:space="preserve" font-family="HelveticaNeue-Light" font-size="29.9" fill="#FEFFFE" transform="matrix(1.00, 0.00, -0.00, -1.00, 611.5, 83.0)">t</text><text xml:space="preserve" font-family="HelveticaNeue-Light" font-size="29.9" fill="#FEFFFE" transform="matrix(1.00, 0.00, -0.00, -1.00, 620.4, 83.0)">i</text><text xml:space="preserve" font-family="HelveticaNeue-Light" font-size="29.9" fill="#FEFFFE" transform="matrix(1.00, 0.00, -0.00, -1.00, 625.9, 83.0)">o</text><text xml:space="preserve" font-family="HelveticaNeue-Light" font-size="29.9" fill="#FEFFFE" transform="matrix(1.00, 0.00, -0.00, -1.00, 642.5, 83.0)">n</text><text xml:space="preserve" font-family="HelveticaNeue-Light" font-size="29.9" fill="#FEFFFE" transform="matrix(1.00, 0.00, -0.00, -1.00, 658.6, 83.0)">a</text><text xml:space="preserve" font-family="HelveticaNeue-Light" font-size="29.9" fill="#FEFFFE" transform="matrix(1.00, 0.00, -0.00, -1.00, 674.1, 83.0)">l</text><text xml:space="preserve" font-family="HelveticaNeue-Light" font-size="29.9" fill="#FEFFFE" transform="matrix(1.00, 0.00, -0.00, -1.00, 679.6, 83.0)"> </text><text xml:space="preserve" font-family="HelveticaNeue-Light" font-size="29.9" fill="#FEFFFE" transform="matrix(1.00, 0.00, -0.00, -1.00, 687.9, 83.0)">G</text><text xml:space="preserve" font-family="HelveticaNeue-Light" font-size="29.9" fill="#FEFFFE" transform="matrix(1.00, 0.00, -0.00, -1.00, 710.1, 83.0)">e</text><text xml:space="preserve" font-family="HelveticaNeue-Light" font-size="29.9" fill="#FEFFFE" transform="matrix(1.00, 0.00, -0.00, -1.00, 725.6, 83.0)">o</text><text xml:space="preserve" font-family="HelveticaNeue-Light" font-size="29.9" fill="#FEFFFE" transform="matrix(1.00, 0.00, -0.00, -1.00, 742.2, 83.0)">g</text><text xml:space="preserve" font-family="HelveticaNeue-Light" font-size="29.9" fill="#FEFFFE" transform="matrix(1.00, 0.00, -0.00, -1.00, 758.8, 83.0)">r</text><text xml:space="preserve" font-family="HelveticaNeue-Light" font-size="29.9" fill="#FEFFFE" transform="matrix(1.00, 0.00, -0.00, -1.00, 768.2, 83.0)">a</text><text xml:space="preserve" font-family="HelveticaNeue-Light" font-size="29.9" fill="#FEFFFE" transform="matrix(1.00, 0.00, -0.00, -1.00, 783.7, 83.0)">p</text><text xml:space="preserve" font-family="HelveticaNeue-Light" font-size="29.9" fill="#FEFFFE" transform="matrix(1.00, 0.00, -0.00, -1.00, 800.9, 83.0)">h</text><text xml:space="preserve" font-family="HelveticaNeue-Light" font-size="29.9" fill="#FEFFFE" transform="matrix(1.00, 0.00, -0.00, -1.00, 816.9, 83.0)">i</text><text xml:space="preserve" font-family="HelveticaNeue-Light" font-size="29.9" fill="#FEFFFE" transform="matrix(1.00, 0.00, -0.00, -1.00, 822.4, 83.0)">c</text></g></svg>