<?xml version="1.0" encoding="UTF-8" standalone="no"?><svg xmlns="http://www.w3.org/2000/svg" xmlns:xlink="http://www.w3.org/1999/xlink" clip-rule="evenodd" stroke-miterlimit="4.00" viewBox="0 0 1024 768"><desc>SVG generated by Keynote</desc><defs></defs><g transform="matrix(1.00, 0.00, -0.00, -1.00, 0.0, 768.0)"><g><clipPath id="clip-3"><path d="M 0.0 768.0 L 1024.0 768.0 L 1024.0 0.0 L 0.0 0.0 Z M 0.0 768.0 "></path></clipPath><g clip-path="url(#clip-3)"><image xlink:href="../../0DD753C0-5033-491F-95E9-445A852AF51F/assets/55BAE69444A6F2CB4F283A796D63A365.jpeg" width="1024.00" height="768.00" transform="matrix(1.00, 0.00, -0.00, -1.00, 0.0, 768.0)"></image></g></g><image xlink:href="../../0DD753C0-5033-491F-95E9-445A852AF51F/assets/E9775B665C6F61D9D65F38644AE9E04F.png" width="820.00" height="47.00" transform="matrix(1.00, 0.00, -0.00, -1.00, 65.0, 524.0)"></image><text xml:space="preserve" font-family="HelveticaNeue-Light" font-size="41.8" fill="#FEFFFE" transform="matrix(1.00, 0.00, -0.00, -1.00, 66.0, 493.0)">D</text><text xml:space="preserve" font-family="HelveticaNeue-Light" font-size="41.8" fill="#FEFFFE" transform="matrix(1.00, 0.00, -0.00, -1.00, 94.6, 493.0)">j</text><text xml:space="preserve" font-family="HelveticaNeue-Light" font-size="41.8" fill="#FEFFFE" transform="matrix(1.00, 0.00, -0.00, -1.00, 102.3, 493.0)">a</text><text xml:space="preserve" font-family="HelveticaNeue-Light" font-size="41.8" fill="#FEFFFE" transform="matrix(1.00, 0.00, -0.00, -1.00, 124.0, 493.0)">n</text><text xml:space="preserve" font-family="HelveticaNeue-Light" font-size="41.8" fill="#FEFFFE" transform="matrix(1.00, 0.00, -0.00, -1.00, 146.4, 493.0)">g</text><text xml:space="preserve" font-family="HelveticaNeue-Light" font-size="41.8" fill="#FEFFFE" transform="matrix(1.00, 0.00, -0.00, -1.00, 169.6, 493.0)">o</text><text xml:space="preserve" font-family="HelveticaNeue-Light" font-size="41.8" fill="#FEFFFE" transform="matrix(1.00, 0.00, -0.00, -1.00, 192.9, 493.0)"> </text><text xml:space="preserve" font-family="HelveticaNeue-Light" font-size="41.8" fill="#FEFFFE" transform="matrix(1.00, 0.00, -0.00, -1.00, 204.5, 493.0)">i</text><text xml:space="preserve" font-family="HelveticaNeue-Light" font-size="41.8" fill="#FEFFFE" transform="matrix(1.00, 0.00, -0.00, -1.00, 212.2, 493.0)">s</text><text xml:space="preserve" font-family="HelveticaNeue-Light" font-size="41.8" fill="#FEFFFE" transform="matrix(1.00, 0.00, -0.00, -1.00, 232.3, 493.0)"> </text><text xml:space="preserve" font-family="HelveticaNeue-Light" font-size="41.8" fill="#FEFFFE" transform="matrix(1.00, 0.00, -0.00, -1.00, 243.9, 493.0)">a</text><text xml:space="preserve" font-family="HelveticaNeue-Light" font-size="41.8" fill="#FEFFFE" transform="matrix(1.00, 0.00, -0.00, -1.00, 265.6, 493.0)"> </text><text xml:space="preserve" font-family="HelveticaNeue-Light" font-size="41.8" fill="#FEFFFE" transform="matrix(1.00, 0.00, -0.00, -1.00, 277.2, 493.0)">h</text><text xml:space="preserve" font-family="HelveticaNeue-Light" font-size="41.8" fill="#FEFFFE" transform="matrix(1.00, 0.00, -0.00, -1.00, 299.6, 493.0)">i</text><text xml:space="preserve" font-family="HelveticaNeue-Light" font-size="41.8" fill="#FEFFFE" transform="matrix(1.00, 0.00, -0.00, -1.00, 307.3, 493.0)">g</text><text xml:space="preserve" font-family="HelveticaNeue-Light" font-size="41.8" fill="#FEFFFE" transform="matrix(1.00, 0.00, -0.00, -1.00, 330.5, 493.0)">h</text><text xml:space="preserve" font-family="HelveticaNeue-Light" font-size="41.8" fill="#FEFFFE" transform="matrix(1.00, 0.00, -0.00, -1.00, 353.0, 493.0)">-</text><text xml:space="preserve" font-family="HelveticaNeue-Light" font-size="41.8" fill="#FEFFFE" transform="matrix(1.00, 0.00, -0.00, -1.00, 368.4, 493.0)">l</text><text xml:space="preserve" font-family="HelveticaNeue-Light" font-size="41.8" fill="#FEFFFE" transform="matrix(1.00, 0.00, -0.00, -1.00, 376.2, 493.0)">e</text><text xml:space="preserve" font-family="HelveticaNeue-Light" font-size="41.8" fill="#FEFFFE" transform="matrix(1.00, 0.00, -0.00, -1.00, 397.8, 493.0)">v</text><text xml:space="preserve" font-family="HelveticaNeue-Light" font-size="41.8" fill="#FEFFFE" transform="matrix(1.00, 0.00, -0.00, -1.00, 417.2, 493.0)">e</text><text xml:space="preserve" font-family="HelveticaNeue-Light" font-size="41.8" fill="#FEFFFE" transform="matrix(1.00, 0.00, -0.00, -1.00, 438.8, 493.0)">l</text><text xml:space="preserve" font-family="HelveticaNeue-Light" font-size="41.8" fill="#FEFFFE" transform="matrix(1.00, 0.00, -0.00, -1.00, 446.6, 493.0)"> </text><text xml:space="preserve" font-family="HelveticaNeue-Light" font-size="41.8" fill="#FEFFFE" transform="matrix(1.00, 0.00, -0.00, -1.00, 458.2, 493.0)">P</text><text xml:space="preserve" font-family="HelveticaNeue-Light" font-size="41.8" fill="#FEFFFE" transform="matrix(1.00, 0.00, -0.00, -1.00, 484.5, 493.0)">y</text><text xml:space="preserve" font-family="HelveticaNeue-Light" font-size="41.8" fill="#FEFFFE" transform="matrix(1.00, 0.00, -0.00, -1.00, 503.8, 493.0)">t</text><text xml:space="preserve" font-family="HelveticaNeue-Light" font-size="41.8" fill="#FEFFFE" transform="matrix(1.00, 0.00, -0.00, -1.00, 516.2, 493.0)">h</text><text xml:space="preserve" font-family="HelveticaNeue-Light" font-size="41.8" fill="#FEFFFE" transform="matrix(1.00, 0.00, -0.00, -1.00, 538.6, 493.0)">o</text><text xml:space="preserve" font-family="HelveticaNeue-Light" font-size="41.8" fill="#FEFFFE" transform="matrix(1.00, 0.00, -0.00, -1.00, 561.8, 493.0)">n</text><text xml:space="preserve" font-family="HelveticaNeue-Light" font-size="41.8" fill="#FEFFFE" transform="matrix(1.00, 0.00, -0.00, -1.00, 584.2, 493.0)"> </text><text xml:space="preserve" font-family="HelveticaNeue-Light" font-size="41.8" fill="#FEFFFE" transform="matrix(1.00, 0.00, -0.00, -1.00, 595.9, 493.0)">W</text><text xml:space="preserve" font-family="HelveticaNeue-Light" font-size="41.8" fill="#FEFFFE" transform="matrix(1.00, 0.00, -0.00, -1.00, 633.0, 493.0)">e</text><text xml:space="preserve" font-family="HelveticaNeue-Light" font-size="41.8" fill="#FEFFFE" transform="matrix(1.00, 0.00, -0.00, -1.00, 654.6, 493.0)">b</text><text xml:space="preserve" font-family="HelveticaNeue-Light" font-size="41.8" fill="#FEFFFE" transform="matrix(1.00, 0.00, -0.00, -1.00, 678.6, 493.0)"> </text><text xml:space="preserve" font-family="HelveticaNeue-Light" font-size="41.8" fill="#FEFFFE" transform="matrix(1.00, 0.00, -0.00, -1.00, 690.2, 493.0)">f</text><text xml:space="preserve" font-family="HelveticaNeue-Light" font-size="41.8" fill="#FEFFFE" transform="matrix(1.00, 0.00, -0.00, -1.00, 701.0, 493.0)">r</text><text xml:space="preserve" font-family="HelveticaNeue-Light" font-size="41.8" fill="#FEFFFE" transform="matrix(1.00, 0.00, -0.00, -1.00, 714.2, 493.0)">a</text><text xml:space="preserve" font-family="HelveticaNeue-Light" font-size="41.8" fill="#FEFFFE" transform="matrix(1.00, 0.00, -0.00, -1.00, 735.9, 493.0)">m</text><text xml:space="preserve" font-family="HelveticaNeue-Light" font-size="41.8" fill="#FEFFFE" transform="matrix(1.00, 0.00, -0.00, -1.00, 770.7, 493.0)">e</text><text xml:space="preserve" font-family="HelveticaNeue-Light" font-size="41.8" fill="#FEFFFE" transform="matrix(1.00, 0.00, -0.00, -1.00, 792.3, 493.0)">w</text><text xml:space="preserve" font-family="HelveticaNeue-Light" font-size="41.8" fill="#FEFFFE" transform="matrix(1.00, 0.00, -0.00, -1.00, 823.3, 493.0)">o</text><text xml:space="preserve" font-family="HelveticaNeue-Light" font-size="41.8" fill="#FEFFFE" transform="matrix(1.00, 0.00, -0.00, -1.00, 846.5, 493.0)">r</text><text xml:space="preserve" font-family="HelveticaNeue-Light" font-size="41.8" fill="#FEFFFE" transform="matrix(1.00, 0.00, -0.00, -1.00, 859.6, 493.0)">k</text><text xml:space="preserve" font-family="HelveticaNeue-Light" font-size="41.8" fill="#FEFFFE" transform="matrix(1.00, 0.00, -0.00, -1.00, 880.5, 493.0)"> </text><image xlink:href="../../0DD753C0-5033-491F-95E9-445A852AF51F/assets/4340073DD68934EDB377CFBF4C17FFCB.png" width="841.00" height="47.00" transform="matrix(1.00, 0.00, -0.00, -1.00, 62.0, 474.0)"></image><text xml:space="preserve" font-family="HelveticaNeue-Light" font-size="41.8" fill="#FEFFFE" transform="matrix(1.00, 0.00, -0.00, -1.00, 66.0, 443.0)">t</text><text xml:space="preserve" font-family="HelveticaNeue-Light" font-size="41.8" fill="#FEFFFE" transform="matrix(1.00, 0.00, -0.00, -1.00, 78.4, 443.0)">h</text><text xml:space="preserve" font-family="HelveticaNeue-Light" font-size="41.8" fill="#FEFFFE" transform="matrix(1.00, 0.00, -0.00, -1.00, 100.8, 443.0)">a</text><text xml:space="preserve" font-family="HelveticaNeue-Light" font-size="41.8" fill="#FEFFFE" transform="matrix(1.00, 0.00, -0.00, -1.00, 122.5, 443.0)">t</text><text xml:space="preserve" font-family="HelveticaNeue-Light" font-size="41.8" fill="#FEFFFE" transform="matrix(1.00, 0.00, -0.00, -1.00, 134.8, 443.0)"> </text><text xml:space="preserve" font-family="HelveticaNeue-Light" font-size="41.8" fill="#FEFFFE" transform="matrix(1.00, 0.00, -0.00, -1.00, 146.4, 443.0)">e</text><text xml:space="preserve" font-family="HelveticaNeue-Light" font-size="41.8" fill="#FEFFFE" transform="matrix(1.00, 0.00, -0.00, -1.00, 168.1, 443.0)">n</text><text xml:space="preserve" font-family="HelveticaNeue-Light" font-size="41.8" fill="#FEFFFE" transform="matrix(1.00, 0.00, -0.00, -1.00, 190.5, 443.0)">c</text><text xml:space="preserve" font-family="HelveticaNeue-Light" font-size="41.8" fill="#FEFFFE" transform="matrix(1.00, 0.00, -0.00, -1.00, 212.2, 443.0)">o</text><text xml:space="preserve" font-family="HelveticaNeue-Light" font-size="41.8" fill="#FEFFFE" transform="matrix(1.00, 0.00, -0.00, -1.00, 235.4, 443.0)">u</text><text xml:space="preserve" font-family="HelveticaNeue-Light" font-size="41.8" fill="#FEFFFE" transform="matrix(1.00, 0.00, -0.00, -1.00, 257.8, 443.0)">r</text><text xml:space="preserve" font-family="HelveticaNeue-Light" font-size="41.8" fill="#FEFFFE" transform="matrix(1.00, 0.00, -0.00, -1.00, 271.0, 443.0)">a</text><text xml:space="preserve" font-family="HelveticaNeue-Light" font-size="41.8" fill="#FEFFFE" transform="matrix(1.00, 0.00, -0.00, -1.00, 292.7, 443.0)">g</text><text xml:space="preserve" font-family="HelveticaNeue-Light" font-size="41.8" fill="#FEFFFE" transform="matrix(1.00, 0.00, -0.00, -1.00, 315.9, 443.0)">e</text><text xml:space="preserve" font-family="HelveticaNeue-Light" font-size="41.8" fill="#FEFFFE" transform="matrix(1.00, 0.00, -0.00, -1.00, 337.6, 443.0)">s</text><text xml:space="preserve" font-family="HelveticaNeue-Light" font-size="41.8" fill="#FEFFFE" transform="matrix(1.00, 0.00, -0.00, -1.00, 357.7, 443.0)"> </text><text xml:space="preserve" font-family="HelveticaNeue-Light" font-size="41.8" fill="#FEFFFE" transform="matrix(1.00, 0.00, -0.00, -1.00, 369.3, 443.0)">r</text><text xml:space="preserve" font-family="HelveticaNeue-Light" font-size="41.8" fill="#FEFFFE" transform="matrix(1.00, 0.00, -0.00, -1.00, 382.4, 443.0)">a</text><text xml:space="preserve" font-family="HelveticaNeue-Light" font-size="41.8" fill="#FEFFFE" transform="matrix(1.00, 0.00, -0.00, -1.00, 404.1, 443.0)">p</text><text xml:space="preserve" font-family="HelveticaNeue-Light" font-size="41.8" fill="#FEFFFE" transform="matrix(1.00, 0.00, -0.00, -1.00, 428.1, 443.0)">i</text><text xml:space="preserve" font-family="HelveticaNeue-Light" font-size="41.8" fill="#FEFFFE" transform="matrix(1.00, 0.00, -0.00, -1.00, 435.8, 443.0)">d</text><text xml:space="preserve" font-family="HelveticaNeue-Light" font-size="41.8" fill="#FEFFFE" transform="matrix(1.00, 0.00, -0.00, -1.00, 459.8, 443.0)"> </text><text xml:space="preserve" font-family="HelveticaNeue-Light" font-size="41.8" fill="#FEFFFE" transform="matrix(1.00, 0.00, -0.00, -1.00, 471.4, 443.0)">d</text><text xml:space="preserve" font-family="HelveticaNeue-Light" font-size="41.8" fill="#FEFFFE" transform="matrix(1.00, 0.00, -0.00, -1.00, 495.3, 443.0)">e</text><text xml:space="preserve" font-family="HelveticaNeue-Light" font-size="41.8" fill="#FEFFFE" transform="matrix(1.00, 0.00, -0.00, -1.00, 517.0, 443.0)">v</text><text xml:space="preserve" font-family="HelveticaNeue-Light" font-size="41.8" fill="#FEFFFE" transform="matrix(1.00, 0.00, -0.00, -1.00, 536.3, 443.0)">e</text><text xml:space="preserve" font-family="HelveticaNeue-Light" font-size="41.8" fill="#FEFFFE" transform="matrix(1.00, 0.00, -0.00, -1.00, 558.0, 443.0)">l</text><text xml:space="preserve" font-family="HelveticaNeue-Light" font-size="41.8" fill="#FEFFFE" transform="matrix(1.00, 0.00, -0.00, -1.00, 565.7, 443.0)">o</text><text xml:space="preserve" font-family="HelveticaNeue-Light" font-size="41.8" fill="#FEFFFE" transform="matrix(1.00, 0.00, -0.00, -1.00, 589.0, 443.0)">p</text><text xml:space="preserve" font-family="HelveticaNeue-Light" font-size="41.8" fill="#FEFFFE" transform="matrix(1.00, 0.00, -0.00, -1.00, 612.9, 443.0)">m</text><text xml:space="preserve" font-family="HelveticaNeue-Light" font-size="41.8" fill="#FEFFFE" transform="matrix(1.00, 0.00, -0.00, -1.00, 647.7, 443.0)">e</text><text xml:space="preserve" font-family="HelveticaNeue-Light" font-size="41.8" fill="#FEFFFE" transform="matrix(1.00, 0.00, -0.00, -1.00, 669.4, 443.0)">n</text><text xml:space="preserve" font-family="HelveticaNeue-Light" font-size="41.8" fill="#FEFFFE" transform="matrix(1.00, 0.00, -0.00, -1.00, 691.8, 443.0)">t</text><text xml:space="preserve" font-family="HelveticaNeue-Light" font-size="41.8" fill="#FEFFFE" transform="matrix(1.00, 0.00, -0.00, -1.00, 704.2, 443.0)"> </text><text xml:space="preserve" font-family="HelveticaNeue-Light" font-size="41.8" fill="#FEFFFE" transform="matrix(1.00, 0.00, -0.00, -1.00, 715.8, 443.0)">a</text><text xml:space="preserve" font-family="HelveticaNeue-Light" font-size="41.8" fill="#FEFFFE" transform="matrix(1.00, 0.00, -0.00, -1.00, 737.5, 443.0)">n</text><text xml:space="preserve" font-family="HelveticaNeue-Light" font-size="41.8" fill="#FEFFFE" transform="matrix(1.00, 0.00, -0.00, -1.00, 759.9, 443.0)">d</text><text xml:space="preserve" font-family="HelveticaNeue-Light" font-size="41.8" fill="#FEFFFE" transform="matrix(1.00, 0.00, -0.00, -1.00, 783.9, 443.0)"> </text><text xml:space="preserve" font-family="HelveticaNeue-Light" font-size="41.8" fill="#FEFFFE" transform="matrix(1.00, 0.00, -0.00, -1.00, 795.5, 443.0)">c</text><text xml:space="preserve" font-family="HelveticaNeue-Light" font-size="41.8" fill="#FEFFFE" transform="matrix(1.00, 0.00, -0.00, -1.00, 817.1, 443.0)">l</text><text xml:space="preserve" font-family="HelveticaNeue-Light" font-size="41.8" fill="#FEFFFE" transform="matrix(1.00, 0.00, -0.00, -1.00, 824.9, 443.0)">e</text><text xml:space="preserve" font-family="HelveticaNeue-Light" font-size="41.8" fill="#FEFFFE" transform="matrix(1.00, 0.00, -0.00, -1.00, 846.5, 443.0)">a</text><text xml:space="preserve" font-family="HelveticaNeue-Light" font-size="41.8" fill="#FEFFFE" transform="matrix(1.00, 0.00, -0.00, -1.00, 868.2, 443.0)">n</text><text xml:space="preserve" font-family="HelveticaNeue-Light" font-size="41.8" fill="#FEFFFE" transform="matrix(1.00, 0.00, -0.00, -1.00, 890.6, 443.0)">,</text><text xml:space="preserve" font-family="HelveticaNeue-Light" font-size="41.8" fill="#FEFFFE" transform="matrix(1.00, 0.00, -0.00, -1.00, 902.2, 443.0)"> </text><image xlink:href="../../0DD753C0-5033-491F-95E9-445A852AF51F/assets/C7F293594E8868919F3DFB313B0B0438.png" width="315.00" height="47.00" transform="matrix(1.00, 0.00, -0.00, -1.00, 64.0, 424.0)"></image><text xml:space="preserve" font-family="HelveticaNeue-Light" font-size="41.8" fill="#FEFFFE" transform="matrix(1.00, 0.00, -0.00, -1.00, 66.0, 393.0)">p</text><text xml:space="preserve" font-family="HelveticaNeue-Light" font-size="41.8" fill="#FEFFFE" transform="matrix(1.00, 0.00, -0.00, -1.00, 90.0, 393.0)">r</text><text xml:space="preserve" font-family="HelveticaNeue-Light" font-size="41.8" fill="#FEFFFE" transform="matrix(1.00, 0.00, -0.00, -1.00, 103.1, 393.0)">a</text><text xml:space="preserve" font-family="HelveticaNeue-Light" font-size="41.8" fill="#FEFFFE" transform="matrix(1.00, 0.00, -0.00, -1.00, 124.8, 393.0)">g</text><text xml:space="preserve" font-family="HelveticaNeue-Light" font-size="41.8" fill="#FEFFFE" transform="matrix(1.00, 0.00, -0.00, -1.00, 148.0, 393.0)">m</text><text xml:space="preserve" font-family="HelveticaNeue-Light" font-size="41.8" fill="#FEFFFE" transform="matrix(1.00, 0.00, -0.00, -1.00, 182.8, 393.0)">a</text><text xml:space="preserve" font-family="HelveticaNeue-Light" font-size="41.8" fill="#FEFFFE" transform="matrix(1.00, 0.00, -0.00, -1.00, 204.5, 393.0)">t</text><text xml:space="preserve" font-family="HelveticaNeue-Light" font-size="41.8" fill="#FEFFFE" transform="matrix(1.00, 0.00, -0.00, -1.00, 216.8, 393.0)">i</text><text xml:space="preserve" font-family="HelveticaNeue-Light" font-size="41.8" fill="#FEFFFE" transform="matrix(1.00, 0.00, -0.00, -1.00, 224.6, 393.0)">c</text><text xml:space="preserve" font-family="HelveticaNeue-Light" font-size="41.8" fill="#FEFFFE" transform="matrix(1.00, 0.00, -0.00, -1.00, 246.2, 393.0)"> </text><text xml:space="preserve" font-family="HelveticaNeue-Light" font-size="41.8" fill="#FEFFFE" transform="matrix(1.00, 0.00, -0.00, -1.00, 257.8, 393.0)">d</text><text xml:space="preserve" font-family="HelveticaNeue-Light" font-size="41.8" fill="#FEFFFE" transform="matrix(1.00, 0.00, -0.00, -1.00, 281.8, 393.0)">e</text><text xml:space="preserve" font-family="HelveticaNeue-Light" font-size="41.8" fill="#FEFFFE" transform="matrix(1.00, 0.00, -0.00, -1.00, 303.5, 393.0)">s</text><text xml:space="preserve" font-family="HelveticaNeue-Light" font-size="41.8" fill="#FEFFFE" transform="matrix(1.00, 0.00, -0.00, -1.00, 323.6, 393.0)">i</text><text xml:space="preserve" font-family="HelveticaNeue-Light" font-size="41.8" fill="#FEFFFE" transform="matrix(1.00, 0.00, -0.00, -1.00, 331.3, 393.0)">g</text><text xml:space="preserve" font-family="HelveticaNeue-Light" font-size="41.8" fill="#FEFFFE" transform="matrix(1.00, 0.00, -0.00, -1.00, 354.5, 393.0)">n</text><text xml:space="preserve" font-family="HelveticaNeue-Light" font-size="41.8" fill="#FEFFFE" transform="matrix(1.00, 0.00, -0.00, -1.00, 376.9, 393.0)"> </text><image xlink:href="../../0DD753C0-5033-491F-95E9-445A852AF51F/assets/7427CEF9D4ABC4420AB670A7A15B0C4F.png" width="716.00" height="47.00" transform="matrix(1.00, 0.00, -0.00, -1.00, 65.0, 324.0)"></image><text xml:space="preserve" font-family="HelveticaNeue-Light" font-size="41.8" fill="#FEFFFE" transform="matrix(1.00, 0.00, -0.00, -1.00, 66.0, 293.0)">D</text><text xml:space="preserve" font-family="HelveticaNeue-Light" font-size="41.8" fill="#FEFFFE" transform="matrix(1.00, 0.00, -0.00, -1.00, 94.6, 293.0)">j</text><text xml:space="preserve" font-family="HelveticaNeue-Light" font-size="41.8" fill="#FEFFFE" transform="matrix(1.00, 0.00, -0.00, -1.00, 102.3, 293.0)">a</text><text xml:space="preserve" font-family="HelveticaNeue-Light" font-size="41.8" fill="#FEFFFE" transform="matrix(1.00, 0.00, -0.00, -1.00, 124.0, 293.0)">n</text><text xml:space="preserve" font-family="HelveticaNeue-Light" font-size="41.8" fill="#FEFFFE" transform="matrix(1.00, 0.00, -0.00, -1.00, 146.4, 293.0)">g</text><text xml:space="preserve" font-family="HelveticaNeue-Light" font-size="41.8" fill="#FEFFFE" transform="matrix(1.00, 0.00, -0.00, -1.00, 169.6, 293.0)">o</text><text xml:space="preserve" font-family="HelveticaNeue-Light" font-size="41.8" fill="#FEFFFE" transform="matrix(1.00, 0.00, -0.00, -1.00, 192.9, 293.0)"> </text><text xml:space="preserve" font-family="HelveticaNeue-Light" font-size="41.8" fill="#FEFFFE" transform="matrix(1.00, 0.00, -0.00, -1.00, 204.5, 293.0)">m</text><text xml:space="preserve" font-family="HelveticaNeue-Light" font-size="41.8" fill="#FEFFFE" transform="matrix(1.00, 0.00, -0.00, -1.00, 239.3, 293.0)">a</text><text xml:space="preserve" font-family="HelveticaNeue-Light" font-size="41.8" fill="#FEFFFE" transform="matrix(1.00, 0.00, -0.00, -1.00, 260.9, 293.0)">k</text><text xml:space="preserve" font-family="HelveticaNeue-Light" font-size="41.8" fill="#FEFFFE" transform="matrix(1.00, 0.00, -0.00, -1.00, 281.8, 293.0)">e</text><text xml:space="preserve" font-family="HelveticaNeue-Light" font-size="41.8" fill="#FEFFFE" transform="matrix(1.00, 0.00, -0.00, -1.00, 303.5, 293.0)">s</text><text xml:space="preserve" font-family="HelveticaNeue-Light" font-size="41.8" fill="#FEFFFE" transform="matrix(1.00, 0.00, -0.00, -1.00, 323.6, 293.0)"> </text><text xml:space="preserve" font-family="HelveticaNeue-Light" font-size="41.8" fill="#FEFFFE" transform="matrix(1.00, 0.00, -0.00, -1.00, 335.2, 293.0)">i</text><text xml:space="preserve" font-family="HelveticaNeue-Light" font-size="41.8" fill="#FEFFFE" transform="matrix(1.00, 0.00, -0.00, -1.00, 342.9, 293.0)">t</text><text xml:space="preserve" font-family="HelveticaNeue-Light" font-size="41.8" fill="#FEFFFE" transform="matrix(1.00, 0.00, -0.00, -1.00, 355.3, 293.0)"> </text><text xml:space="preserve" font-family="HelveticaNeue-Light" font-size="41.8" fill="#FEFFFE" transform="matrix(1.00, 0.00, -0.00, -1.00, 366.9, 293.0)">e</text><text xml:space="preserve" font-family="HelveticaNeue-Light" font-size="41.8" fill="#FEFFFE" transform="matrix(1.00, 0.00, -0.00, -1.00, 388.6, 293.0)">a</text><text xml:space="preserve" font-family="HelveticaNeue-Light" font-size="41.8" fill="#FEFFFE" transform="matrix(1.00, 0.00, -0.00, -1.00, 410.2, 293.0)">s</text><text xml:space="preserve" font-family="HelveticaNeue-Light" font-size="41.8" fill="#FEFFFE" transform="matrix(1.00, 0.00, -0.00, -1.00, 430.3, 293.0)">i</text><text xml:space="preserve" font-family="HelveticaNeue-Light" font-size="41.8" fill="#FEFFFE" transform="matrix(1.00, 0.00, -0.00, -1.00, 438.0, 293.0)">e</text><text xml:space="preserve" font-family="HelveticaNeue-Light" font-size="41.8" fill="#FEFFFE" transform="matrix(1.00, 0.00, -0.00, -1.00, 459.7, 293.0)">r</text><text xml:space="preserve" font-family="HelveticaNeue-Light" font-size="41.8" fill="#FEFFFE" transform="matrix(1.00, 0.00, -0.00, -1.00, 472.9, 293.0)"> </text><text xml:space="preserve" font-family="HelveticaNeue-Light" font-size="41.8" fill="#FEFFFE" transform="matrix(1.00, 0.00, -0.00, -1.00, 484.5, 293.0)">t</text><text xml:space="preserve" font-family="HelveticaNeue-Light" font-size="41.8" fill="#FEFFFE" transform="matrix(1.00, 0.00, -0.00, -1.00, 496.8, 293.0)">o</text><text xml:space="preserve" font-family="HelveticaNeue-Light" font-size="41.8" fill="#FEFFFE" transform="matrix(1.00, 0.00, -0.00, -1.00, 520.1, 293.0)"> </text><text xml:space="preserve" font-family="HelveticaNeue-Light" font-size="41.8" fill="#FEFFFE" transform="matrix(1.00, 0.00, -0.00, -1.00, 531.7, 293.0)">b</text><text xml:space="preserve" font-family="HelveticaNeue-Light" font-size="41.8" fill="#FEFFFE" transform="matrix(1.00, 0.00, -0.00, -1.00, 555.6, 293.0)">u</text><text xml:space="preserve" font-family="HelveticaNeue-Light" font-size="41.8" fill="#FEFFFE" transform="matrix(1.00, 0.00, -0.00, -1.00, 578.1, 293.0)">i</text><text xml:space="preserve" font-family="HelveticaNeue-Light" font-size="41.8" fill="#FEFFFE" transform="matrix(1.00, 0.00, -0.00, -1.00, 585.8, 293.0)">l</text><text xml:space="preserve" font-family="HelveticaNeue-Light" font-size="41.8" fill="#FEFFFE" transform="matrix(1.00, 0.00, -0.00, -1.00, 593.5, 293.0)">d</text><text xml:space="preserve" font-family="HelveticaNeue-Light" font-size="41.8" fill="#FEFFFE" transform="matrix(1.00, 0.00, -0.00, -1.00, 617.5, 293.0)"> </text><text xml:space="preserve" font-family="HelveticaNeue-Light" font-size="41.8" fill="#FEFFFE" transform="matrix(1.00, 0.00, -0.00, -1.00, 629.1, 293.0)">b</text><text xml:space="preserve" font-family="HelveticaNeue-Light" font-size="41.8" fill="#FEFFFE" transform="matrix(1.00, 0.00, -0.00, -1.00, 653.1, 293.0)">e</text><text xml:space="preserve" font-family="HelveticaNeue-Light" font-size="41.8" fill="#FEFFFE" transform="matrix(1.00, 0.00, -0.00, -1.00, 674.7, 293.0)">t</text><text xml:space="preserve" font-family="HelveticaNeue-Light" font-size="41.8" fill="#FEFFFE" transform="matrix(1.00, 0.00, -0.00, -1.00, 687.1, 293.0)">t</text><text xml:space="preserve" font-family="HelveticaNeue-Light" font-size="41.8" fill="#FEFFFE" transform="matrix(1.00, 0.00, -0.00, -1.00, 699.5, 293.0)">e</text><text xml:space="preserve" font-family="HelveticaNeue-Light" font-size="41.8" fill="#FEFFFE" transform="matrix(1.00, 0.00, -0.00, -1.00, 721.1, 293.0)">r</text><text xml:space="preserve" font-family="HelveticaNeue-Light" font-size="41.8" fill="#FEFFFE" transform="matrix(1.00, 0.00, -0.00, -1.00, 734.3, 293.0)"> </text><text xml:space="preserve" font-family="HelveticaNeue-Light" font-size="41.8" fill="#FEFFFE" transform="matrix(1.00, 0.00, -0.00, -1.00, 745.9, 293.0)">w</text><image xlink:href="../../0DD753C0-5033-491F-95E9-445A852AF51F/assets/3EAEC2DE8F7434B4E47235AC786ED565.png" width="153.00" height="46.00" transform="matrix(1.00, 0.00, -0.00, -1.00, 774.0, 324.0)"></image><text xml:space="preserve" font-family="HelveticaNeue-Light" font-size="41.8" fill="#FEFFFE" transform="matrix(1.00, 0.00, -0.00, -1.00, 776.8, 293.0)">e</text><text xml:space="preserve" font-family="HelveticaNeue-Light" font-size="41.8" fill="#FEFFFE" transform="matrix(1.00, 0.00, -0.00, -1.00, 798.5, 293.0)">b</text><text xml:space="preserve" font-family="HelveticaNeue-Light" font-size="41.8" fill="#FEFFFE" transform="matrix(1.00, 0.00, -0.00, -1.00, 822.5, 293.0)"> </text><text xml:space="preserve" font-family="HelveticaNeue-Light" font-size="41.8" fill="#FEFFFE" transform="matrix(1.00, 0.00, -0.00, -1.00, 834.1, 293.0)">a</text><text xml:space="preserve" font-family="HelveticaNeue-Light" font-size="41.8" fill="#FEFFFE" transform="matrix(1.00, 0.00, -0.00, -1.00, 855.8, 293.0)">p</text><text xml:space="preserve" font-family="HelveticaNeue-Light" font-size="41.8" fill="#FEFFFE" transform="matrix(1.00, 0.00, -0.00, -1.00, 879.7, 293.0)">p</text><text xml:space="preserve" font-family="HelveticaNeue-Light" font-size="41.8" fill="#FEFFFE" transform="matrix(1.00, 0.00, -0.00, -1.00, 903.7, 293.0)">s</text><text xml:space="preserve" font-family="HelveticaNeue-Light" font-size="41.8" fill="#FEFFFE" transform="matrix(1.00, 0.00, -0.00, -1.00, 923.8, 293.0)"> </text><image xlink:href="../../0DD753C0-5033-491F-95E9-445A852AF51F/assets/369E7080F3AC59196B9AE6AE2FB6E117.png" width="590.00" height="46.00" transform="matrix(1.00, 0.00, -0.00, -1.00, 64.0, 274.0)"></image><text xml:space="preserve" font-family="HelveticaNeue-Light" font-size="41.8" fill="#FEFFFE" transform="matrix(1.00, 0.00, -0.00, -1.00, 66.0, 243.0)">m</text><text xml:space="preserve" font-family="HelveticaNeue-Light" font-size="41.8" fill="#FEFFFE" transform="matrix(1.00, 0.00, -0.00, -1.00, 100.8, 243.0)">o</text><text xml:space="preserve" font-family="HelveticaNeue-Light" font-size="41.8" fill="#FEFFFE" transform="matrix(1.00, 0.00, -0.00, -1.00, 124.0, 243.0)">r</text><text xml:space="preserve" font-family="HelveticaNeue-Light" font-size="41.8" fill="#FEFFFE" transform="matrix(1.00, 0.00, -0.00, -1.00, 136.4, 243.0)">e</text><text xml:space="preserve" font-family="HelveticaNeue-Light" font-size="41.8" fill="#FEFFFE" transform="matrix(1.00, 0.00, -0.00, -1.00, 158.1, 243.0)"> </text><text xml:space="preserve" font-family="HelveticaNeue-Light" font-size="41.8" fill="#FEFFFE" transform="matrix(1.00, 0.00, -0.00, -1.00, 169.7, 243.0)">q</text><text xml:space="preserve" font-family="HelveticaNeue-Light" font-size="41.8" fill="#FEFFFE" transform="matrix(1.00, 0.00, -0.00, -1.00, 193.7, 243.0)">u</text><text xml:space="preserve" font-family="HelveticaNeue-Light" font-size="41.8" fill="#FEFFFE" transform="matrix(1.00, 0.00, -0.00, -1.00, 216.1, 243.0)">i</text><text xml:space="preserve" font-family="HelveticaNeue-Light" font-size="41.8" fill="#FEFFFE" transform="matrix(1.00, 0.00, -0.00, -1.00, 223.8, 243.0)">c</text><text xml:space="preserve" font-family="HelveticaNeue-Light" font-size="41.8" fill="#FEFFFE" transform="matrix(1.00, 0.00, -0.00, -1.00, 245.5, 243.0)">k</text><text xml:space="preserve" font-family="HelveticaNeue-Light" font-size="41.8" fill="#FEFFFE" transform="matrix(1.00, 0.00, -0.00, -1.00, 266.4, 243.0)">l</text><text xml:space="preserve" font-family="HelveticaNeue-Light" font-size="41.8" fill="#FEFFFE" transform="matrix(1.00, 0.00, -0.00, -1.00, 274.1, 243.0)">y</text><text xml:space="preserve" font-family="HelveticaNeue-Light" font-size="41.8" fill="#FEFFFE" transform="matrix(1.00, 0.00, -0.00, -1.00, 293.4, 243.0)"> </text><text xml:space="preserve" font-family="HelveticaNeue-Light" font-size="41.8" fill="#FEFFFE" transform="matrix(1.00, 0.00, -0.00, -1.00, 305.0, 243.0)">a</text><text xml:space="preserve" font-family="HelveticaNeue-Light" font-size="41.8" fill="#FEFFFE" transform="matrix(1.00, 0.00, -0.00, -1.00, 326.7, 243.0)">n</text><text xml:space="preserve" font-family="HelveticaNeue-Light" font-size="41.8" fill="#FEFFFE" transform="matrix(1.00, 0.00, -0.00, -1.00, 349.1, 243.0)">d</text><text xml:space="preserve" font-family="HelveticaNeue-Light" font-size="41.8" fill="#FEFFFE" transform="matrix(1.00, 0.00, -0.00, -1.00, 373.1, 243.0)"> </text><text xml:space="preserve" font-family="HelveticaNeue-Light" font-size="41.8" fill="#FEFFFE" transform="matrix(1.00, 0.00, -0.00, -1.00, 384.7, 243.0)">w</text><text xml:space="preserve" font-family="HelveticaNeue-Light" font-size="41.8" fill="#FEFFFE" transform="matrix(1.00, 0.00, -0.00, -1.00, 415.7, 243.0)">i</text><text xml:space="preserve" font-family="HelveticaNeue-Light" font-size="41.8" fill="#FEFFFE" transform="matrix(1.00, 0.00, -0.00, -1.00, 423.4, 243.0)">t</text><text xml:space="preserve" font-family="HelveticaNeue-Light" font-size="41.8" fill="#FEFFFE" transform="matrix(1.00, 0.00, -0.00, -1.00, 435.7, 243.0)">h</text><text xml:space="preserve" font-family="HelveticaNeue-Light" font-size="41.8" fill="#FEFFFE" transform="matrix(1.00, 0.00, -0.00, -1.00, 458.2, 243.0)"> </text><text xml:space="preserve" font-family="HelveticaNeue-Light" font-size="41.8" fill="#FEFFFE" transform="matrix(1.00, 0.00, -0.00, -1.00, 469.8, 243.0)">l</text><text xml:space="preserve" font-family="HelveticaNeue-Light" font-size="41.8" fill="#FEFFFE" transform="matrix(1.00, 0.00, -0.00, -1.00, 477.5, 243.0)">e</text><text xml:space="preserve" font-family="HelveticaNeue-Light" font-size="41.8" fill="#FEFFFE" transform="matrix(1.00, 0.00, -0.00, -1.00, 499.2, 243.0)">s</text><text xml:space="preserve" font-family="HelveticaNeue-Light" font-size="41.8" fill="#FEFFFE" transform="matrix(1.00, 0.00, -0.00, -1.00, 519.3, 243.0)">s</text><text xml:space="preserve" font-family="HelveticaNeue-Light" font-size="41.8" fill="#FEFFFE" transform="matrix(1.00, 0.00, -0.00, -1.00, 539.3, 243.0)"> </text><text xml:space="preserve" font-family="HelveticaNeue-Light" font-size="41.8" fill="#FEFFFE" transform="matrix(1.00, 0.00, -0.00, -1.00, 551.0, 243.0)">c</text><text xml:space="preserve" font-family="HelveticaNeue-Light" font-size="41.8" fill="#FEFFFE" transform="matrix(1.00, 0.00, -0.00, -1.00, 572.6, 243.0)">o</text><text xml:space="preserve" font-family="HelveticaNeue-Light" font-size="41.8" fill="#FEFFFE" transform="matrix(1.00, 0.00, -0.00, -1.00, 595.9, 243.0)">d</text><text xml:space="preserve" font-family="HelveticaNeue-Light" font-size="41.8" fill="#FEFFFE" transform="matrix(1.00, 0.00, -0.00, -1.00, 619.8, 243.0)">e</text><text xml:space="preserve" font-family="HelveticaNeue-Light" font-size="41.8" fill="#FEFFFE" transform="matrix(1.00, 0.00, -0.00, -1.00, 641.5, 243.0)">.</text><image xlink:href="../../0DD753C0-5033-491F-95E9-445A852AF51F/assets/0AA45AAC8FDAEDFD32570AD74DDBADCF.png" width="513.00" height="76.00" transform="matrix(1.00, 0.00, -0.00, -1.00, 62.0, 722.0)"></image><text xml:space="preserve" font-family="HelveticaNeue-Light" font-size="72.0" fill="#FEFFFE" transform="matrix(1.00, 0.00, -0.00, -1.00, 66.0, 668.0)">W</text><text xml:space="preserve" font-family="HelveticaNeue-Light" font-size="72.0" fill="#FEFFFE" transform="matrix(1.00, 0.00, -0.00, -1.00, 131.3, 668.0)">h</text><text xml:space="preserve" font-family="HelveticaNeue-Light" font-size="72.0" fill="#FEFFFE" transform="matrix(1.00, 0.00, -0.00, -1.00, 170.0, 668.0)">a</text><text xml:space="preserve" font-family="HelveticaNeue-Light" font-size="72.0" fill="#FEFFFE" transform="matrix(1.00, 0.00, -0.00, -1.00, 207.3, 668.0)">t</text><text xml:space="preserve" font-family="HelveticaNeue-Light" font-size="72.0" fill="#FEFFFE" transform="matrix(1.00, 0.00, -0.00, -1.00, 228.6, 668.0)"> </text><text xml:space="preserve" font-family="HelveticaNeue-Light" font-size="72.0" fill="#FEFFFE" transform="matrix(1.00, 0.00, -0.00, -1.00, 248.7, 668.0)">i</text><text xml:space="preserve" font-family="HelveticaNeue-Light" font-size="72.0" fill="#FEFFFE" transform="matrix(1.00, 0.00, -0.00, -1.00, 262.0, 668.0)">s</text><text xml:space="preserve" font-family="HelveticaNeue-Light" font-size="72.0" fill="#FEFFFE" transform="matrix(1.00, 0.00, -0.00, -1.00, 296.6, 668.0)"> </text><text xml:space="preserve" font-family="HelveticaNeue-Light" font-size="72.0" fill="#FEFFFE" transform="matrix(1.00, 0.00, -0.00, -1.00, 316.6, 668.0)">D</text><text xml:space="preserve" font-family="HelveticaNeue-Light" font-size="72.0" fill="#FEFFFE" transform="matrix(1.00, 0.00, -0.00, -1.00, 366.0, 668.0)">j</text><text xml:space="preserve" font-family="HelveticaNeue-Light" font-size="72.0" fill="#FEFFFE" transform="matrix(1.00, 0.00, -0.00, -1.00, 379.3, 668.0)">a</text><text xml:space="preserve" font-family="HelveticaNeue-Light" font-size="72.0" fill="#FEFFFE" transform="matrix(1.00, 0.00, -0.00, -1.00, 416.6, 668.0)">n</text><text xml:space="preserve" font-family="HelveticaNeue-Light" font-size="72.0" fill="#FEFFFE" transform="matrix(1.00, 0.00, -0.00, -1.00, 455.3, 668.0)">g</text><text xml:space="preserve" font-family="HelveticaNeue-Light" font-size="72.0" fill="#FEFFFE" transform="matrix(1.00, 0.00, -0.00, -1.00, 495.3, 668.0)">o</text><text xml:space="preserve" font-family="HelveticaNeue-Light" font-size="72.0" fill="#FEFFFE" transform="matrix(1.00, 0.00, -0.00, -1.00, 535.4, 668.0)">?</text><text xml:space="preserve" font-family="HelveticaNeue-Light" font-size="72.0" fill="#FEFFFE" transform="matrix(1.00, 0.00, -0.00, -1.00, 574.0, 668.0)"> </text><image xlink:href="../../0DD753C0-5033-491F-95E9-445A852AF51F/assets/ADC0E3D26A9A053826FA199A94DC24EA.png" width="761.00" height="36.00" transform="matrix(1.00, 0.00, -0.00, -1.00, 131.0, 175.0)"></image><text xml:space="preserve" font-family="HelveticaNeue-Bold" font-weight="bold" font-size="30.0" fill="#FEFFFE" transform="matrix(1.00, 0.00, -0.00, -1.00, 135.0, 152.0)">T</text><text xml:space="preserve" font-family="HelveticaNeue-Bold" font-weight="bold" font-size="30.0" fill="#FEFFFE" transform="matrix(1.00, 0.00, -0.00, -1.00, 153.3, 152.0)">h</text><text xml:space="preserve" font-family="HelveticaNeue-Bold" font-weight="bold" font-size="30.0" fill="#FEFFFE" transform="matrix(1.00, 0.00, -0.00, -1.00, 171.1, 152.0)">e</text><text xml:space="preserve" font-family="HelveticaNeue-Bold" font-weight="bold" font-size="30.0" fill="#FEFFFE" transform="matrix(1.00, 0.00, -0.00, -1.00, 188.3, 152.0)"> </text><text xml:space="preserve" font-family="HelveticaNeue-Bold" font-weight="bold" font-size="30.0" fill="#FEFFFE" transform="matrix(1.00, 0.00, -0.00, -1.00, 196.7, 152.0)">w</text><text xml:space="preserve" font-family="HelveticaNeue-Bold" font-weight="bold" font-size="30.0" fill="#FEFFFE" transform="matrix(1.00, 0.00, -0.00, -1.00, 221.1, 152.0)">e</text><text xml:space="preserve" font-family="HelveticaNeue-Bold" font-weight="bold" font-size="30.0" fill="#FEFFFE" transform="matrix(1.00, 0.00, -0.00, -1.00, 238.3, 152.0)">b</text><text xml:space="preserve" font-family="HelveticaNeue-Bold" font-weight="bold" font-size="30.0" fill="#FEFFFE" transform="matrix(1.00, 0.00, -0.00, -1.00, 256.6, 152.0)"> </text><text xml:space="preserve" font-family="HelveticaNeue-Bold" font-weight="bold" font-size="30.0" fill="#FEFFFE" transform="matrix(1.00, 0.00, -0.00, -1.00, 265.0, 152.0)">f</text><text xml:space="preserve" font-family="HelveticaNeue-Bold" font-weight="bold" font-size="30.0" fill="#FEFFFE" transform="matrix(1.00, 0.00, -0.00, -1.00, 275.0, 152.0)">r</text><text xml:space="preserve" font-family="HelveticaNeue-Bold" font-weight="bold" font-size="30.0" fill="#FEFFFE" transform="matrix(1.00, 0.00, -0.00, -1.00, 286.6, 152.0)">a</text><text xml:space="preserve" font-family="HelveticaNeue-Bold" font-weight="bold" font-size="30.0" fill="#FEFFFE" transform="matrix(1.00, 0.00, -0.00, -1.00, 303.9, 152.0)">m</text><text xml:space="preserve" font-family="HelveticaNeue-Bold" font-weight="bold" font-size="30.0" fill="#FEFFFE" transform="matrix(1.00, 0.00, -0.00, -1.00, 331.0, 152.0)">e</text><text xml:space="preserve" font-family="HelveticaNeue-Bold" font-weight="bold" font-size="30.0" fill="#FEFFFE" transform="matrix(1.00, 0.00, -0.00, -1.00, 348.3, 152.0)">w</text><text xml:space="preserve" font-family="HelveticaNeue-Bold" font-weight="bold" font-size="30.0" fill="#FEFFFE" transform="matrix(1.00, 0.00, -0.00, -1.00, 372.7, 152.0)">o</text><text xml:space="preserve" font-family="HelveticaNeue-Bold" font-weight="bold" font-size="30.0" fill="#FEFFFE" transform="matrix(1.00, 0.00, -0.00, -1.00, 391.0, 152.0)">r</text><text xml:space="preserve" font-family="HelveticaNeue-Bold" font-weight="bold" font-size="30.0" fill="#FEFFFE" transform="matrix(1.00, 0.00, -0.00, -1.00, 402.7, 152.0)">k</text><text xml:space="preserve" font-family="HelveticaNeue-Bold" font-weight="bold" font-size="30.0" fill="#FEFFFE" transform="matrix(1.00, 0.00, -0.00, -1.00, 419.9, 152.0)"> </text><text xml:space="preserve" font-family="HelveticaNeue-Bold" font-weight="bold" font-size="30.0" fill="#FEFFFE" transform="matrix(1.00, 0.00, -0.00, -1.00, 428.2, 152.0)">f</text><text xml:space="preserve" font-family="HelveticaNeue-Bold" font-weight="bold" font-size="30.0" fill="#FEFFFE" transform="matrix(1.00, 0.00, -0.00, -1.00, 438.2, 152.0)">o</text><text xml:space="preserve" font-family="HelveticaNeue-Bold" font-weight="bold" font-size="30.0" fill="#FEFFFE" transform="matrix(1.00, 0.00, -0.00, -1.00, 456.6, 152.0)">r</text><text xml:space="preserve" font-family="HelveticaNeue-Bold" font-weight="bold" font-size="30.0" fill="#FEFFFE" transform="matrix(1.00, 0.00, -0.00, -1.00, 468.2, 152.0)"> </text><text xml:space="preserve" font-family="HelveticaNeue-Bold" font-weight="bold" font-size="30.0" fill="#FEFFFE" transform="matrix(1.00, 0.00, -0.00, -1.00, 476.6, 152.0)">p</text><text xml:space="preserve" font-family="HelveticaNeue-Bold" font-weight="bold" font-size="30.0" fill="#FEFFFE" transform="matrix(1.00, 0.00, -0.00, -1.00, 494.9, 152.0)">e</text><text xml:space="preserve" font-family="HelveticaNeue-Bold" font-weight="bold" font-size="30.0" fill="#FEFFFE" transform="matrix(1.00, 0.00, -0.00, -1.00, 512.1, 152.0)">r</text><text xml:space="preserve" font-family="HelveticaNeue-Bold" font-weight="bold" font-size="30.0" fill="#FEFFFE" transform="matrix(1.00, 0.00, -0.00, -1.00, 523.8, 152.0)">f</text><text xml:space="preserve" font-family="HelveticaNeue-Bold" font-weight="bold" font-size="30.0" fill="#FEFFFE" transform="matrix(1.00, 0.00, -0.00, -1.00, 533.8, 152.0)">e</text><text xml:space="preserve" font-family="HelveticaNeue-Bold" font-weight="bold" font-size="30.0" fill="#FEFFFE" transform="matrix(1.00, 0.00, -0.00, -1.00, 551.0, 152.0)">c</text><text xml:space="preserve" font-family="HelveticaNeue-Bold" font-weight="bold" font-size="30.0" fill="#FEFFFE" transform="matrix(1.00, 0.00, -0.00, -1.00, 568.2, 152.0)">t</text><text xml:space="preserve" font-family="HelveticaNeue-Bold" font-weight="bold" font-size="30.0" fill="#FEFFFE" transform="matrix(1.00, 0.00, -0.00, -1.00, 578.8, 152.0)">i</text><text xml:space="preserve" font-family="HelveticaNeue-Bold" font-weight="bold" font-size="30.0" fill="#FEFFFE" transform="matrix(1.00, 0.00, -0.00, -1.00, 586.5, 152.0)">o</text><text xml:space="preserve" font-family="HelveticaNeue-Bold" font-weight="bold" font-size="30.0" fill="#FEFFFE" transform="matrix(1.00, 0.00, -0.00, -1.00, 604.9, 152.0)">n</text><text xml:space="preserve" font-family="HelveticaNeue-Bold" font-weight="bold" font-size="30.0" fill="#FEFFFE" transform="matrix(1.00, 0.00, -0.00, -1.00, 622.6, 152.0)">i</text><text xml:space="preserve" font-family="HelveticaNeue-Bold" font-weight="bold" font-size="30.0" fill="#FEFFFE" transform="matrix(1.00, 0.00, -0.00, -1.00, 630.4, 152.0)">s</text><text xml:space="preserve" font-family="HelveticaNeue-Bold" font-weight="bold" font-size="30.0" fill="#FEFFFE" transform="matrix(1.00, 0.00, -0.00, -1.00, 646.5, 152.0)">t</text><text xml:space="preserve" font-family="HelveticaNeue-Bold" font-weight="bold" font-size="30.0" fill="#FEFFFE" transform="matrix(1.00, 0.00, -0.00, -1.00, 657.1, 152.0)">s</text><text xml:space="preserve" font-family="HelveticaNeue-Bold" font-weight="bold" font-size="30.0" fill="#FEFFFE" transform="matrix(1.00, 0.00, -0.00, -1.00, 673.2, 152.0)"> </text><text xml:space="preserve" font-family="HelveticaNeue-Bold" font-weight="bold" font-size="30.0" fill="#FEFFFE" transform="matrix(1.00, 0.00, -0.00, -1.00, 681.5, 152.0)">w</text><text xml:space="preserve" font-family="HelveticaNeue-Bold" font-weight="bold" font-size="30.0" fill="#FEFFFE" transform="matrix(1.00, 0.00, -0.00, -1.00, 705.9, 152.0)">i</text><text xml:space="preserve" font-family="HelveticaNeue-Bold" font-weight="bold" font-size="30.0" fill="#FEFFFE" transform="matrix(1.00, 0.00, -0.00, -1.00, 713.7, 152.0)">t</text><text xml:space="preserve" font-family="HelveticaNeue-Bold" font-weight="bold" font-size="30.0" fill="#FEFFFE" transform="matrix(1.00, 0.00, -0.00, -1.00, 724.2, 152.0)">h</text><text xml:space="preserve" font-family="HelveticaNeue-Bold" font-weight="bold" font-size="30.0" fill="#FEFFFE" transform="matrix(1.00, 0.00, -0.00, -1.00, 742.0, 152.0)"> </text><text xml:space="preserve" font-family="HelveticaNeue-Bold" font-weight="bold" font-size="30.0" fill="#FEFFFE" transform="matrix(1.00, 0.00, -0.00, -1.00, 750.4, 152.0)">d</text><text xml:space="preserve" font-family="HelveticaNeue-Bold" font-weight="bold" font-size="30.0" fill="#FEFFFE" transform="matrix(1.00, 0.00, -0.00, -1.00, 768.7, 152.0)">e</text><text xml:space="preserve" font-family="HelveticaNeue-Bold" font-weight="bold" font-size="30.0" fill="#FEFFFE" transform="matrix(1.00, 0.00, -0.00, -1.00, 785.9, 152.0)">a</text><text xml:space="preserve" font-family="HelveticaNeue-Bold" font-weight="bold" font-size="30.0" fill="#FEFFFE" transform="matrix(1.00, 0.00, -0.00, -1.00, 803.1, 152.0)">d</text><text xml:space="preserve" font-family="HelveticaNeue-Bold" font-weight="bold" font-size="30.0" fill="#FEFFFE" transform="matrix(1.00, 0.00, -0.00, -1.00, 821.5, 152.0)">l</text><text xml:space="preserve" font-family="HelveticaNeue-Bold" font-weight="bold" font-size="30.0" fill="#FEFFFE" transform="matrix(1.00, 0.00, -0.00, -1.00, 829.2, 152.0)">i</text><text xml:space="preserve" font-family="HelveticaNeue-Bold" font-weight="bold" font-size="30.0" fill="#FEFFFE" transform="matrix(1.00, 0.00, -0.00, -1.00, 836.9, 152.0)">n</text><text xml:space="preserve" font-family="HelveticaNeue-Bold" font-weight="bold" font-size="30.0" fill="#FEFFFE" transform="matrix(1.00, 0.00, -0.00, -1.00, 854.7, 152.0)">e</text><text xml:space="preserve" font-family="HelveticaNeue-Bold" font-weight="bold" font-size="30.0" fill="#FEFFFE" transform="matrix(1.00, 0.00, -0.00, -1.00, 872.0, 152.0)">s</text><image xlink:href="../../0DD753C0-5033-491F-95E9-445A852AF51F/assets/D6E921440C9A39E64B486B83E4ABF94B.png" width="187.00" height="36.00" transform="matrix(1.00, 0.00, -0.00, -1.00, 419.0, 88.0)"></image><text xml:space="preserve" font-family="HelveticaNeue-Light" font-size="30.0" fill="#FEFFFE" transform="matrix(1.00, 0.00, -0.00, -1.00, 421.0, 65.0)">K</text><text xml:space="preserve" font-family="HelveticaNeue-Light" font-size="30.0" fill="#FEFFFE" transform="matrix(1.00, 0.00, -0.00, -1.00, 440.4, 65.0)">I</text><text xml:space="preserve" font-family="HelveticaNeue-Light" font-size="30.0" fill="#FEFFFE" transform="matrix(1.00, 0.00, -0.00, -1.00, 447.1, 65.0)">S</text><text xml:space="preserve" font-family="HelveticaNeue-Light" font-size="30.0" fill="#FEFFFE" transform="matrix(1.00, 0.00, -0.00, -1.00, 466.0, 65.0)">S</text><text xml:space="preserve" font-family="HelveticaNeue-Light" font-size="30.0" fill="#FEFFFE" transform="matrix(1.00, 0.00, -0.00, -1.00, 484.9, 65.0)"> </text><text xml:space="preserve" font-family="HelveticaNeue-Light" font-size="30.0" fill="#FEFFFE" transform="matrix(1.00, 0.00, -0.00, -1.00, 493.2, 65.0)">P</text><text xml:space="preserve" font-family="HelveticaNeue-Light" font-size="30.0" fill="#FEFFFE" transform="matrix(1.00, 0.00, -0.00, -1.00, 512.1, 65.0)">r</text><text xml:space="preserve" font-family="HelveticaNeue-Light" font-size="30.0" fill="#FEFFFE" transform="matrix(1.00, 0.00, -0.00, -1.00, 521.6, 65.0)">i</text><text xml:space="preserve" font-family="HelveticaNeue-Light" font-size="30.0" fill="#FEFFFE" transform="matrix(1.00, 0.00, -0.00, -1.00, 527.1, 65.0)">n</text><text xml:space="preserve" font-family="HelveticaNeue-Light" font-size="30.0" fill="#FEFFFE" transform="matrix(1.00, 0.00, -0.00, -1.00, 543.2, 65.0)">c</text><text xml:space="preserve" font-family="HelveticaNeue-Light" font-size="30.0" fill="#FEFFFE" transform="matrix(1.00, 0.00, -0.00, -1.00, 558.8, 65.0)">i</text><text xml:space="preserve" font-family="HelveticaNeue-Light" font-size="30.0" fill="#FEFFFE" transform="matrix(1.00, 0.00, -0.00, -1.00, 564.4, 65.0)">p</text><text xml:space="preserve" font-family="HelveticaNeue-Light" font-size="30.0" fill="#FEFFFE" transform="matrix(1.00, 0.00, -0.00, -1.00, 581.6, 65.0)">l</text><text xml:space="preserve" font-family="HelveticaNeue-Light" font-size="30.0" fill="#FEFFFE" transform="matrix(1.00, 0.00, -0.00, -1.00, 587.1, 65.0)">e</text></g></svg>