<?xml version="1.0" encoding="UTF-8" standalone="no"?><svg xmlns="http://www.w3.org/2000/svg" xmlns:xlink="http://www.w3.org/1999/xlink" clip-rule="evenodd" stroke-miterlimit="4.00" viewBox="0 0 1024 768"><desc>SVG generated by Keynote</desc><defs></defs><g transform="matrix(1.00, 0.00, -0.00, -1.00, 0.0, 768.0)"><g><clipPath id="clip-230"><path d="M 0.0 768.0 L 1024.0 768.0 L 1024.0 0.0 L 0.0 0.0 Z M 0.0 768.0 "></path></clipPath><g clip-path="url(#clip-230)"><image xlink:href="../../0DD753C0-5033-491F-95E9-445A852AF51F/assets/55BAE69444A6F2CB4F283A796D63A365.jpeg" width="1024.00" height="768.00" transform="matrix(1.00, 0.00, -0.00, -1.00, 0.0, 768.0)"></image></g></g><image xlink:href="E3C9B2BFF0AC3744425519B8E1FC8F4E.png" width="329.00" height="41.00" transform="matrix(1.00, 0.00, -0.00, -1.00, 170.0, 139.0)"></image><text xml:space="preserve" font-family="HelveticaNeue-Light" font-size="36.0" fill="#FEFFFE" transform="matrix(1.00, 0.00, -0.00, -1.00, 168.0, 112.0)">h</text><text xml:space="preserve" font-family="HelveticaNeue-Light" font-size="36.0" fill="#FEFFFE" transform="matrix(1.00, 0.00, -0.00, -1.00, 187.3, 112.0)">t</text><text xml:space="preserve" font-family="HelveticaNeue-Light" font-size="36.0" fill="#FEFFFE" transform="matrix(1.00, 0.00, -0.00, -1.00, 198.0, 112.0)">t</text><text xml:space="preserve" font-family="HelveticaNeue-Light" font-size="36.0" fill="#FEFFFE" transform="matrix(1.00, 0.00, -0.00, -1.00, 208.6, 112.0)">p</text><text xml:space="preserve" font-family="HelveticaNeue-Light" font-size="36.0" fill="#FEFFFE" transform="matrix(1.00, 0.00, -0.00, -1.00, 229.3, 112.0)">s</text><text xml:space="preserve" font-family="HelveticaNeue-Light" font-size="36.0" fill="#FEFFFE" transform="matrix(1.00, 0.00, -0.00, -1.00, 246.6, 112.0)">:</text><text xml:space="preserve" font-family="HelveticaNeue-Light" font-size="36.0" fill="#FEFFFE" transform="matrix(1.00, 0.00, -0.00, -1.00, 256.6, 112.0)">/</text><text xml:space="preserve" font-family="HelveticaNeue-Light" font-size="36.0" fill="#FEFFFE" transform="matrix(1.00, 0.00, -0.00, -1.00, 268.6, 112.0)">/</text><text xml:space="preserve" font-family="HelveticaNeue-Light" font-size="36.0" fill="#FEFFFE" transform="matrix(1.00, 0.00, -0.00, -1.00, 280.6, 112.0)">g</text><text xml:space="preserve" font-family="HelveticaNeue-Light" font-size="36.0" fill="#FEFFFE" transform="matrix(1.00, 0.00, -0.00, -1.00, 300.6, 112.0)">o</text><text xml:space="preserve" font-family="HelveticaNeue-Light" font-size="36.0" fill="#FEFFFE" transform="matrix(1.00, 0.00, -0.00, -1.00, 320.6, 112.0)">o</text><text xml:space="preserve" font-family="HelveticaNeue-Light" font-size="36.0" fill="#FEFFFE" transform="matrix(1.00, 0.00, -0.00, -1.00, 340.7, 112.0)">.</text><text xml:space="preserve" font-family="HelveticaNeue-Light" font-size="36.0" fill="#FEFFFE" transform="matrix(1.00, 0.00, -0.00, -1.00, 350.7, 112.0)">g</text><text xml:space="preserve" font-family="HelveticaNeue-Light" font-size="36.0" fill="#FEFFFE" transform="matrix(1.00, 0.00, -0.00, -1.00, 370.7, 112.0)">l</text><text xml:space="preserve" font-family="HelveticaNeue-Light" font-size="36.0" fill="#FEFFFE" transform="matrix(1.00, 0.00, -0.00, -1.00, 377.3, 112.0)">/</text><text xml:space="preserve" font-family="HelveticaNeue-Light" font-size="36.0" fill="#FEFFFE" transform="matrix(1.00, 0.00, -0.00, -1.00, 389.3, 112.0)">Y</text><text xml:space="preserve" font-family="HelveticaNeue-Light" font-size="36.0" fill="#FEFFFE" transform="matrix(1.00, 0.00, -0.00, -1.00, 411.3, 112.0)">t</text><text xml:space="preserve" font-family="HelveticaNeue-Light" font-size="36.0" fill="#FEFFFE" transform="matrix(1.00, 0.00, -0.00, -1.00, 422.0, 112.0)">f</text><text xml:space="preserve" font-family="HelveticaNeue-Light" font-size="36.0" fill="#FEFFFE" transform="matrix(1.00, 0.00, -0.00, -1.00, 431.3, 112.0)">U</text><text xml:space="preserve" font-family="HelveticaNeue-Light" font-size="36.0" fill="#FEFFFE" transform="matrix(1.00, 0.00, -0.00, -1.00, 456.0, 112.0)">2</text><text xml:space="preserve" font-family="HelveticaNeue-Light" font-size="36.0" fill="#FEFFFE" transform="matrix(1.00, 0.00, -0.00, -1.00, 476.0, 112.0)">z</text><g><clipPath id="clip-231"><path d="M 166.7 106.5 L 492.3 106.5 L 492.3 110.3 L 166.7 110.3 Z M 166.7 106.5 "></path></clipPath><g clip-path="url(#clip-231)"><path d="M 85.3 42.9 L 410.0 42.9 " fill="none" stroke="#FEFFFE" stroke-width="1.80" stroke-miterlimit="0.00" transform="matrix(1.00, 0.00, 0.00, -1.00, 82.3, 151.3)"></path></g></g><image xlink:href="523DFAC2E7046D30C3BD48F6EDD06EDE.png" width="294.00" height="45.00" transform="matrix(1.00, 0.00, -0.00, -1.00, 183.0, 214.0)"></image><text xml:space="preserve" font-family="HelveticaNeue-Bold" font-weight="bold" font-size="40.0" fill="#FEFFFE" transform="matrix(1.00, 0.00, -0.00, -1.00, 185.0, 184.0)">D</text><text xml:space="preserve" font-family="HelveticaNeue-Bold" font-weight="bold" font-size="40.0" fill="#FEFFFE" transform="matrix(1.00, 0.00, -0.00, -1.00, 214.6, 184.0)">j</text><text xml:space="preserve" font-family="HelveticaNeue-Bold" font-weight="bold" font-size="40.0" fill="#FEFFFE" transform="matrix(1.00, 0.00, -0.00, -1.00, 225.8, 184.0)">a</text><text xml:space="preserve" font-family="HelveticaNeue-Bold" font-weight="bold" font-size="40.0" fill="#FEFFFE" transform="matrix(1.00, 0.00, -0.00, -1.00, 248.7, 184.0)">n</text><text xml:space="preserve" font-family="HelveticaNeue-Bold" font-weight="bold" font-size="40.0" fill="#FEFFFE" transform="matrix(1.00, 0.00, -0.00, -1.00, 272.4, 184.0)">g</text><text xml:space="preserve" font-family="HelveticaNeue-Bold" font-weight="bold" font-size="40.0" fill="#FEFFFE" transform="matrix(1.00, 0.00, -0.00, -1.00, 296.9, 184.0)">o</text><text xml:space="preserve" font-family="HelveticaNeue-Bold" font-weight="bold" font-size="40.0" fill="#FEFFFE" transform="matrix(1.00, 0.00, -0.00, -1.00, 321.3, 184.0)"> </text><text xml:space="preserve" font-family="HelveticaNeue-Bold" font-weight="bold" font-size="40.0" fill="#FEFFFE" transform="matrix(1.00, 0.00, -0.00, -1.00, 332.4, 184.0)">T</text><text xml:space="preserve" font-family="HelveticaNeue-Bold" font-weight="bold" font-size="40.0" fill="#FEFFFE" transform="matrix(1.00, 0.00, -0.00, -1.00, 353.2, 184.0)">u</text><text xml:space="preserve" font-family="HelveticaNeue-Bold" font-weight="bold" font-size="40.0" fill="#FEFFFE" transform="matrix(1.00, 0.00, -0.00, -1.00, 376.9, 184.0)">t</text><text xml:space="preserve" font-family="HelveticaNeue-Bold" font-weight="bold" font-size="40.0" fill="#FEFFFE" transform="matrix(1.00, 0.00, -0.00, -1.00, 391.0, 184.0)">o</text><text xml:space="preserve" font-family="HelveticaNeue-Bold" font-weight="bold" font-size="40.0" fill="#FEFFFE" transform="matrix(1.00, 0.00, -0.00, -1.00, 415.4, 184.0)">r</text><text xml:space="preserve" font-family="HelveticaNeue-Bold" font-weight="bold" font-size="40.0" fill="#FEFFFE" transform="matrix(1.00, 0.00, -0.00, -1.00, 431.0, 184.0)">i</text><text xml:space="preserve" font-family="HelveticaNeue-Bold" font-weight="bold" font-size="40.0" fill="#FEFFFE" transform="matrix(1.00, 0.00, -0.00, -1.00, 441.3, 184.0)">a</text><text xml:space="preserve" font-family="HelveticaNeue-Bold" font-weight="bold" font-size="40.0" fill="#FEFFFE" transform="matrix(1.00, 0.00, -0.00, -1.00, 464.3, 184.0)">l</text><g><clipPath id="clip-232"><path d="M 255.0 568.0 L 769.0 568.0 L 769.0 308.0 L 255.0 308.0 Z M 254.9 568.3 "></path></clipPath><g clip-path="url(#clip-232)"><image xlink:href="D079AFF04D8A33D33DF1A33B7FAC9E67.jpeg" width="515.00" height="343.00" transform="matrix(1.00, 0.00, -0.00, -1.00, 255.0, 610.0)"></image></g></g><image xlink:href="3D77E063D214AF8A73E6B634D865EC25.png" width="544.00" height="292.00" transform="matrix(1.00, 0.00, -0.00, 1.00, 239.9, 291.0)"></image><image xlink:href="65CFE601C90D4CFA494A1783A7E8252F.png" width="339.00" height="62.00" transform="matrix(1.00, 0.00, -0.00, -1.00, 343.0, 695.0)"></image><text xml:space="preserve" font-family="HelveticaNeue-Bold" font-weight="bold" font-size="70.0" fill="#FEFFFE" transform="matrix(1.00, 0.00, -0.00, -1.00, 343.0, 642.0)">H</text><text xml:space="preserve" font-family="HelveticaNeue-Bold" font-weight="bold" font-size="70.0" fill="#FEFFFE" transform="matrix(1.00, 0.00, -0.00, -1.00, 394.9, 642.0)">a</text><text xml:space="preserve" font-family="HelveticaNeue-Bold" font-weight="bold" font-size="70.0" fill="#FEFFFE" transform="matrix(1.00, 0.00, -0.00, -1.00, 435.1, 642.0)">n</text><text xml:space="preserve" font-family="HelveticaNeue-Bold" font-weight="bold" font-size="70.0" fill="#FEFFFE" transform="matrix(1.00, 0.00, -0.00, -1.00, 476.6, 642.0)">d</text><text xml:space="preserve" font-family="HelveticaNeue-Bold" font-weight="bold" font-size="70.0" fill="#FEFFFE" transform="matrix(1.00, 0.00, -0.00, -1.00, 519.3, 642.0)">s</text><text xml:space="preserve" font-family="HelveticaNeue-Bold" font-weight="bold" font-size="70.0" fill="#FEFFFE" transform="matrix(1.00, 0.00, -0.00, -1.00, 556.9, 642.0)">-</text><text xml:space="preserve" font-family="HelveticaNeue-Bold" font-weight="bold" font-size="70.0" fill="#FEFFFE" transform="matrix(1.00, 0.00, -0.00, -1.00, 585.4, 642.0)">O</text><text xml:space="preserve" font-family="HelveticaNeue-Bold" font-weight="bold" font-size="70.0" fill="#FEFFFE" transform="matrix(1.00, 0.00, -0.00, -1.00, 639.9, 642.0)">n</text><image xlink:href="1CDC41113D0DAA691466636AAB59498C.png" width="183.00" height="183.00" transform="matrix(0.99, 0.00, -0.00, -0.99, 666.0, 251.0)"></image></g></svg>