<?xml version="1.0" encoding="UTF-8" standalone="no"?><svg xmlns="http://www.w3.org/2000/svg" xmlns:xlink="http://www.w3.org/1999/xlink" clip-rule="evenodd" stroke-miterlimit="4.00" viewBox="0 0 1024 768"><desc>SVG generated by Keynote</desc><defs></defs><g transform="matrix(1.00, 0.00, -0.00, -1.00, 0.0, 768.0)"><g><clipPath id="clip-223"><path d="M 0.0 768.0 L 1024.0 768.0 L 1024.0 0.0 L 0.0 0.0 Z M 0.0 768.0 "></path></clipPath><g clip-path="url(#clip-223)"><image xlink:href="../../0DD753C0-5033-491F-95E9-445A852AF51F/assets/55BAE69444A6F2CB4F283A796D63A365.jpeg" width="1024.00" height="768.00" transform="matrix(1.00, 0.00, -0.00, -1.00, 0.0, 768.0)"></image></g></g><image xlink:href="../../D9E68A4A-F21C-4CB9-96F2-AC68E5CC2FE3/assets/D50F9A5FA3C5B17D1F02EF8BAFEEA36D.png" width="662.00" height="76.00" transform="matrix(1.00, 0.00, -0.00, -1.00, 183.0, 678.0)"></image><text xml:space="preserve" font-family="HelveticaNeue-Light" font-size="72.0" fill="#FEFFFE" transform="matrix(1.00, 0.00, -0.00, -1.00, 182.0, 624.0)">D</text><text xml:space="preserve" font-family="HelveticaNeue-Light" font-size="72.0" fill="#FEFFFE" transform="matrix(1.00, 0.00, -0.00, -1.00, 231.3, 624.0)">j</text><text xml:space="preserve" font-family="HelveticaNeue-Light" font-size="72.0" fill="#FEFFFE" transform="matrix(1.00, 0.00, -0.00, -1.00, 244.6, 624.0)">a</text><text xml:space="preserve" font-family="HelveticaNeue-Light" font-size="72.0" fill="#FEFFFE" transform="matrix(1.00, 0.00, -0.00, -1.00, 282.0, 624.0)">n</text><text xml:space="preserve" font-family="HelveticaNeue-Light" font-size="72.0" fill="#FEFFFE" transform="matrix(1.00, 0.00, -0.00, -1.00, 320.7, 624.0)">g</text><text xml:space="preserve" font-family="HelveticaNeue-Light" font-size="72.0" fill="#FEFFFE" transform="matrix(1.00, 0.00, -0.00, -1.00, 360.7, 624.0)">o</text><text xml:space="preserve" font-family="HelveticaNeue-Light" font-size="72.0" fill="#FEFFFE" transform="matrix(1.00, 0.00, -0.00, -1.00, 400.7, 624.0)"> </text><text xml:space="preserve" font-family="HelveticaNeue-Light" font-size="72.0" fill="#FEFFFE" transform="matrix(1.00, 0.00, -0.00, -1.00, 420.8, 624.0)">S</text><text xml:space="preserve" font-family="HelveticaNeue-Light" font-size="72.0" fill="#FEFFFE" transform="matrix(1.00, 0.00, -0.00, -1.00, 466.1, 624.0)">i</text><text xml:space="preserve" font-family="HelveticaNeue-Light" font-size="72.0" fill="#FEFFFE" transform="matrix(1.00, 0.00, -0.00, -1.00, 479.4, 624.0)">t</text><text xml:space="preserve" font-family="HelveticaNeue-Light" font-size="72.0" fill="#FEFFFE" transform="matrix(1.00, 0.00, -0.00, -1.00, 500.7, 624.0)">e</text><text xml:space="preserve" font-family="HelveticaNeue-Light" font-size="72.0" fill="#FEFFFE" transform="matrix(1.00, 0.00, -0.00, -1.00, 538.1, 624.0)"> </text><text xml:space="preserve" font-family="HelveticaNeue-Light" font-size="72.0" fill="#FEFFFE" transform="matrix(1.00, 0.00, -0.00, -1.00, 558.1, 624.0)">S</text><text xml:space="preserve" font-family="HelveticaNeue-Light" font-size="72.0" fill="#FEFFFE" transform="matrix(1.00, 0.00, -0.00, -1.00, 603.5, 624.0)">t</text><text xml:space="preserve" font-family="HelveticaNeue-Light" font-size="72.0" fill="#FEFFFE" transform="matrix(1.00, 0.00, -0.00, -1.00, 624.8, 624.0)">r</text><text xml:space="preserve" font-family="HelveticaNeue-Light" font-size="72.0" fill="#FEFFFE" transform="matrix(1.00, 0.00, -0.00, -1.00, 647.5, 624.0)">u</text><text xml:space="preserve" font-family="HelveticaNeue-Light" font-size="72.0" fill="#FEFFFE" transform="matrix(1.00, 0.00, -0.00, -1.00, 686.1, 624.0)">c</text><text xml:space="preserve" font-family="HelveticaNeue-Light" font-size="72.0" fill="#FEFFFE" transform="matrix(1.00, 0.00, -0.00, -1.00, 723.5, 624.0)">t</text><text xml:space="preserve" font-family="HelveticaNeue-Light" font-size="72.0" fill="#FEFFFE" transform="matrix(1.00, 0.00, -0.00, -1.00, 744.8, 624.0)">u</text><text xml:space="preserve" font-family="HelveticaNeue-Light" font-size="72.0" fill="#FEFFFE" transform="matrix(1.00, 0.00, -0.00, -1.00, 783.5, 624.0)">r</text><text xml:space="preserve" font-family="HelveticaNeue-Light" font-size="72.0" fill="#FEFFFE" transform="matrix(1.00, 0.00, -0.00, -1.00, 804.9, 624.0)">e</text><image xlink:href="../../D9E68A4A-F21C-4CB9-96F2-AC68E5CC2FE3/assets/A855454B4DDB3FBAB59BF86F82D30E80.png" width="626.00" height="294.00" transform="matrix(1.19, 0.00, -0.00, -1.19, 139.0, 501.0)"></image><image xlink:href="../../D9E68A4A-F21C-4CB9-96F2-AC68E5CC2FE3/assets/CAE6D15EA75B9210A276FF50E3EAE5AD.png" width="776.00" height="382.00" transform="matrix(1.00, 0.00, -0.00, 1.00, 124.0, 134.0)"></image></g></svg>