<?xml version="1.0" encoding="UTF-8" standalone="no"?><svg xmlns="http://www.w3.org/2000/svg" xmlns:xlink="http://www.w3.org/1999/xlink" clip-rule="evenodd" stroke-miterlimit="4.00" viewBox="0 0 1024 768"><desc>SVG generated by Keynote</desc><defs></defs><g transform="matrix(1.00, 0.00, -0.00, -1.00, 0.0, 768.0)"><g><clipPath id="clip-224"><path d="M 0.0 768.0 L 1024.0 768.0 L 1024.0 0.0 L 0.0 0.0 Z M 0.0 768.0 "></path></clipPath><g clip-path="url(#clip-224)"><image xlink:href="../../0DD753C0-5033-491F-95E9-445A852AF51F/assets/55BAE69444A6F2CB4F283A796D63A365.jpeg" width="1024.00" height="768.00" transform="matrix(1.00, 0.00, -0.00, -1.00, 0.0, 768.0)"></image></g></g><image xlink:href="D701363E2C2A19F976E7CFF658E63482.png" width="351.00" height="19.00" transform="matrix(1.00, 0.00, -0.00, -1.00, 84.0, 214.0)"></image><text xml:space="preserve" font-family="HelveticaNeue-Light" font-size="12.0" fill="#FEFFFE" transform="matrix(1.00, 0.00, -0.00, -1.00, 84.0, 204.0)">h</text><text xml:space="preserve" font-family="HelveticaNeue-Light" font-size="12.0" fill="#FEFFFE" transform="matrix(1.00, 0.00, -0.00, -1.00, 90.4, 204.0)">t</text><text xml:space="preserve" font-family="HelveticaNeue-Light" font-size="12.0" fill="#FEFFFE" transform="matrix(1.00, 0.00, -0.00, -1.00, 94.0, 204.0)">t</text><text xml:space="preserve" font-family="HelveticaNeue-Light" font-size="12.0" fill="#FEFFFE" transform="matrix(1.00, 0.00, -0.00, -1.00, 97.5, 204.0)">p</text><text xml:space="preserve" font-family="HelveticaNeue-Light" font-size="12.0" fill="#FEFFFE" transform="matrix(1.00, 0.00, -0.00, -1.00, 104.4, 204.0)">:</text><text xml:space="preserve" font-family="HelveticaNeue-Light" font-size="12.0" fill="#FEFFFE" transform="matrix(1.00, 0.00, -0.00, -1.00, 107.8, 204.0)">/</text><text xml:space="preserve" font-family="HelveticaNeue-Light" font-size="12.0" fill="#FEFFFE" transform="matrix(1.00, 0.00, -0.00, -1.00, 111.8, 204.0)">/</text><text xml:space="preserve" font-family="HelveticaNeue-Light" font-size="12.0" fill="#FEFFFE" transform="matrix(1.00, 0.00, -0.00, -1.00, 115.8, 204.0)">w</text><text xml:space="preserve" font-family="HelveticaNeue-Light" font-size="12.0" fill="#FEFFFE" transform="matrix(1.00, 0.00, -0.00, -1.00, 124.7, 204.0)">w</text><text xml:space="preserve" font-family="HelveticaNeue-Light" font-size="12.0" fill="#FEFFFE" transform="matrix(1.00, 0.00, -0.00, -1.00, 133.5, 204.0)">w</text><text xml:space="preserve" font-family="HelveticaNeue-Light" font-size="12.0" fill="#FEFFFE" transform="matrix(1.00, 0.00, -0.00, -1.00, 141.8, 204.0)">.</text><text xml:space="preserve" font-family="HelveticaNeue-Light" font-size="12.0" fill="#FEFFFE" transform="matrix(1.00, 0.00, -0.00, -1.00, 145.1, 204.0)">i</text><text xml:space="preserve" font-family="HelveticaNeue-Light" font-size="12.0" fill="#FEFFFE" transform="matrix(1.00, 0.00, -0.00, -1.00, 147.3, 204.0)">n</text><text xml:space="preserve" font-family="HelveticaNeue-Light" font-size="12.0" fill="#FEFFFE" transform="matrix(1.00, 0.00, -0.00, -1.00, 153.8, 204.0)">d</text><text xml:space="preserve" font-family="HelveticaNeue-Light" font-size="12.0" fill="#FEFFFE" transform="matrix(1.00, 0.00, -0.00, -1.00, 160.7, 204.0)">e</text><text xml:space="preserve" font-family="HelveticaNeue-Light" font-size="12.0" fill="#FEFFFE" transform="matrix(1.00, 0.00, -0.00, -1.00, 166.9, 204.0)">e</text><text xml:space="preserve" font-family="HelveticaNeue-Light" font-size="12.0" fill="#FEFFFE" transform="matrix(1.00, 0.00, -0.00, -1.00, 173.1, 204.0)">d</text><text xml:space="preserve" font-family="HelveticaNeue-Light" font-size="12.0" fill="#FEFFFE" transform="matrix(1.00, 0.00, -0.00, -1.00, 180.0, 204.0)">.</text><text xml:space="preserve" font-family="HelveticaNeue-Light" font-size="12.0" fill="#FEFFFE" transform="matrix(1.00, 0.00, -0.00, -1.00, 183.3, 204.0)">c</text><text xml:space="preserve" font-family="HelveticaNeue-Light" font-size="12.0" fill="#FEFFFE" transform="matrix(1.00, 0.00, -0.00, -1.00, 189.6, 204.0)">o</text><text xml:space="preserve" font-family="HelveticaNeue-Light" font-size="12.0" fill="#FEFFFE" transform="matrix(1.00, 0.00, -0.00, -1.00, 196.2, 204.0)">m</text><text xml:space="preserve" font-family="HelveticaNeue-Light" font-size="12.0" fill="#FEFFFE" transform="matrix(1.00, 0.00, -0.00, -1.00, 206.2, 204.0)">/</text><text xml:space="preserve" font-family="HelveticaNeue-Light" font-size="12.0" fill="#FEFFFE" transform="matrix(1.00, 0.00, -0.00, -1.00, 210.2, 204.0)">j</text><text xml:space="preserve" font-family="HelveticaNeue-Light" font-size="12.0" fill="#FEFFFE" transform="matrix(1.00, 0.00, -0.00, -1.00, 212.5, 204.0)">o</text><text xml:space="preserve" font-family="HelveticaNeue-Light" font-size="12.0" fill="#FEFFFE" transform="matrix(1.00, 0.00, -0.00, -1.00, 219.1, 204.0)">b</text><text xml:space="preserve" font-family="HelveticaNeue-Light" font-size="12.0" fill="#FEFFFE" transform="matrix(1.00, 0.00, -0.00, -1.00, 226.0, 204.0)">t</text><text xml:space="preserve" font-family="HelveticaNeue-Light" font-size="12.0" fill="#FEFFFE" transform="matrix(1.00, 0.00, -0.00, -1.00, 229.6, 204.0)">r</text><text xml:space="preserve" font-family="HelveticaNeue-Light" font-size="12.0" fill="#FEFFFE" transform="matrix(1.00, 0.00, -0.00, -1.00, 233.1, 204.0)">e</text><text xml:space="preserve" font-family="HelveticaNeue-Light" font-size="12.0" fill="#FEFFFE" transform="matrix(1.00, 0.00, -0.00, -1.00, 239.4, 204.0)">n</text><text xml:space="preserve" font-family="HelveticaNeue-Light" font-size="12.0" fill="#FEFFFE" transform="matrix(1.00, 0.00, -0.00, -1.00, 245.8, 204.0)">d</text><text xml:space="preserve" font-family="HelveticaNeue-Light" font-size="12.0" fill="#FEFFFE" transform="matrix(1.00, 0.00, -0.00, -1.00, 252.7, 204.0)">s</text><text xml:space="preserve" font-family="HelveticaNeue-Light" font-size="12.0" fill="#FEFFFE" transform="matrix(1.00, 0.00, -0.00, -1.00, 258.5, 204.0)">?</text><text xml:space="preserve" font-family="HelveticaNeue-Light" font-size="12.0" fill="#FEFFFE" transform="matrix(1.00, 0.00, -0.00, -1.00, 264.9, 204.0)">q</text><text xml:space="preserve" font-family="HelveticaNeue-Light" font-size="12.0" fill="#FEFFFE" transform="matrix(1.00, 0.00, -0.00, -1.00, 271.8, 204.0)">=</text><text xml:space="preserve" font-family="HelveticaNeue-Light" font-size="12.0" fill="#FEFFFE" transform="matrix(1.00, 0.00, -0.00, -1.00, 279.0, 204.0)">+</text><text xml:space="preserve" font-family="HelveticaNeue-Light" font-size="12.0" fill="#FEFFFE" transform="matrix(1.00, 0.00, -0.00, -1.00, 286.2, 204.0)">d</text><text xml:space="preserve" font-family="HelveticaNeue-Light" font-size="12.0" fill="#FEFFFE" transform="matrix(1.00, 0.00, -0.00, -1.00, 293.1, 204.0)">j</text><text xml:space="preserve" font-family="HelveticaNeue-Light" font-size="12.0" fill="#FEFFFE" transform="matrix(1.00, 0.00, -0.00, -1.00, 295.3, 204.0)">a</text><text xml:space="preserve" font-family="HelveticaNeue-Light" font-size="12.0" fill="#FEFFFE" transform="matrix(1.00, 0.00, -0.00, -1.00, 301.5, 204.0)">n</text><text xml:space="preserve" font-family="HelveticaNeue-Light" font-size="12.0" fill="#FEFFFE" transform="matrix(1.00, 0.00, -0.00, -1.00, 308.0, 204.0)">g</text><text xml:space="preserve" font-family="HelveticaNeue-Light" font-size="12.0" fill="#FEFFFE" transform="matrix(1.00, 0.00, -0.00, -1.00, 314.7, 204.0)">o</text><text xml:space="preserve" font-family="HelveticaNeue-Light" font-size="12.0" fill="#FEFFFE" transform="matrix(1.00, 0.00, -0.00, -1.00, 321.3, 204.0)">%</text><text xml:space="preserve" font-family="HelveticaNeue-Light" font-size="12.0" fill="#FEFFFE" transform="matrix(1.00, 0.00, -0.00, -1.00, 332.0, 204.0)">2</text><text xml:space="preserve" font-family="HelveticaNeue-Light" font-size="12.0" fill="#FEFFFE" transform="matrix(1.00, 0.00, -0.00, -1.00, 338.7, 204.0)">C</text><text xml:space="preserve" font-family="HelveticaNeue-Light" font-size="12.0" fill="#FEFFFE" transform="matrix(1.00, 0.00, -0.00, -1.00, 347.1, 204.0)">+</text><text xml:space="preserve" font-family="HelveticaNeue-Light" font-size="12.0" fill="#FEFFFE" transform="matrix(1.00, 0.00, -0.00, -1.00, 354.3, 204.0)">r</text><text xml:space="preserve" font-family="HelveticaNeue-Light" font-size="12.0" fill="#FEFFFE" transform="matrix(1.00, 0.00, -0.00, -1.00, 358.1, 204.0)">a</text><text xml:space="preserve" font-family="HelveticaNeue-Light" font-size="12.0" fill="#FEFFFE" transform="matrix(1.00, 0.00, -0.00, -1.00, 364.3, 204.0)">i</text><text xml:space="preserve" font-family="HelveticaNeue-Light" font-size="12.0" fill="#FEFFFE" transform="matrix(1.00, 0.00, -0.00, -1.00, 366.5, 204.0)">l</text><text xml:space="preserve" font-family="HelveticaNeue-Light" font-size="12.0" fill="#FEFFFE" transform="matrix(1.00, 0.00, -0.00, -1.00, 368.8, 204.0)">s</text><text xml:space="preserve" font-family="HelveticaNeue-Light" font-size="12.0" fill="#FEFFFE" transform="matrix(1.00, 0.00, -0.00, -1.00, 374.5, 204.0)">&amp;</text><text xml:space="preserve" font-family="HelveticaNeue-Light" font-size="12.0" fill="#FEFFFE" transform="matrix(1.00, 0.00, -0.00, -1.00, 381.9, 204.0)">r</text><text xml:space="preserve" font-family="HelveticaNeue-Light" font-size="12.0" fill="#FEFFFE" transform="matrix(1.00, 0.00, -0.00, -1.00, 385.4, 204.0)">e</text><text xml:space="preserve" font-family="HelveticaNeue-Light" font-size="12.0" fill="#FEFFFE" transform="matrix(1.00, 0.00, -0.00, -1.00, 391.7, 204.0)">l</text><text xml:space="preserve" font-family="HelveticaNeue-Light" font-size="12.0" fill="#FEFFFE" transform="matrix(1.00, 0.00, -0.00, -1.00, 393.9, 204.0)">a</text><text xml:space="preserve" font-family="HelveticaNeue-Light" font-size="12.0" fill="#FEFFFE" transform="matrix(1.00, 0.00, -0.00, -1.00, 400.1, 204.0)">t</text><text xml:space="preserve" font-family="HelveticaNeue-Light" font-size="12.0" fill="#FEFFFE" transform="matrix(1.00, 0.00, -0.00, -1.00, 403.7, 204.0)">i</text><text xml:space="preserve" font-family="HelveticaNeue-Light" font-size="12.0" fill="#FEFFFE" transform="matrix(1.00, 0.00, -0.00, -1.00, 405.9, 204.0)">v</text><text xml:space="preserve" font-family="HelveticaNeue-Light" font-size="12.0" fill="#FEFFFE" transform="matrix(1.00, 0.00, -0.00, -1.00, 411.4, 204.0)">e</text><text xml:space="preserve" font-family="HelveticaNeue-Light" font-size="12.0" fill="#FEFFFE" transform="matrix(1.00, 0.00, -0.00, -1.00, 417.7, 204.0)">=</text><text xml:space="preserve" font-family="HelveticaNeue-Light" font-size="12.0" fill="#FEFFFE" transform="matrix(1.00, 0.00, -0.00, -1.00, 424.9, 204.0)">1</text><g><clipPath id="clip-225"><path d="M 83.2 201.9 L 431.8 201.9 L 431.8 204.5 L 83.2 204.5 Z M 83.2 201.9 "></path></clipPath><g clip-path="url(#clip-225)"><path d="M 271.0 17.3 L 618.6 17.3 " fill="none" stroke="#FEFFFE" stroke-width="0.60" stroke-miterlimit="0.00" transform="matrix(1.00, 0.00, 0.00, -1.00, -186.8, 220.5)"></path></g></g><image xlink:href="4E4EABEC57B3253894A95C194DDFA71E.png" width="270.00" height="45.00" transform="matrix(1.00, 0.00, -0.00, -1.00, 376.0, 671.0)"></image><text xml:space="preserve" font-family="HelveticaNeue-Bold" font-weight="bold" font-size="50.0" fill="#FEFFFE" transform="matrix(1.00, 0.00, -0.00, -1.00, 380.0, 634.0)">J</text><text xml:space="preserve" font-family="HelveticaNeue-Bold" font-weight="bold" font-size="50.0" fill="#FEFFFE" transform="matrix(1.00, 0.00, -0.00, -1.00, 407.8, 634.0)">o</text><text xml:space="preserve" font-family="HelveticaNeue-Bold" font-weight="bold" font-size="50.0" fill="#FEFFFE" transform="matrix(1.00, 0.00, -0.00, -1.00, 438.4, 634.0)">b</text><text xml:space="preserve" font-family="HelveticaNeue-Bold" font-weight="bold" font-size="50.0" fill="#FEFFFE" transform="matrix(1.00, 0.00, -0.00, -1.00, 468.9, 634.0)"> </text><text xml:space="preserve" font-family="HelveticaNeue-Bold" font-weight="bold" font-size="50.0" fill="#FEFFFE" transform="matrix(1.00, 0.00, -0.00, -1.00, 482.8, 634.0)">T</text><text xml:space="preserve" font-family="HelveticaNeue-Bold" font-weight="bold" font-size="50.0" fill="#FEFFFE" transform="matrix(1.00, 0.00, -0.00, -1.00, 508.8, 634.0)">r</text><text xml:space="preserve" font-family="HelveticaNeue-Bold" font-weight="bold" font-size="50.0" fill="#FEFFFE" transform="matrix(1.00, 0.00, -0.00, -1.00, 527.3, 634.0)">e</text><text xml:space="preserve" font-family="HelveticaNeue-Bold" font-weight="bold" font-size="50.0" fill="#FEFFFE" transform="matrix(1.00, 0.00, -0.00, -1.00, 556.0, 634.0)">n</text><text xml:space="preserve" font-family="HelveticaNeue-Bold" font-weight="bold" font-size="50.0" fill="#FEFFFE" transform="matrix(1.00, 0.00, -0.00, -1.00, 585.7, 634.0)">d</text><text xml:space="preserve" font-family="HelveticaNeue-Bold" font-weight="bold" font-size="50.0" fill="#FEFFFE" transform="matrix(1.00, 0.00, -0.00, -1.00, 616.2, 634.0)">s</text><image xlink:href="B17249BC65784B3CBA7069A6E3AEEF09.png" width="451.00" height="250.00" transform="matrix(1.00, 0.00, -0.00, -1.00, 33.0, 510.0)"></image><image xlink:href="A10FFCD93D7F78EF912CB1F3A3D350A4.png" width="480.00" height="282.00" transform="matrix(1.00, 0.00, -0.00, 1.00, 18.0, 243.0)"></image><image xlink:href="1C4D04E28465EB48F6D5865978F72170.png" width="451.00" height="250.00" transform="matrix(1.00, 0.00, -0.00, -1.00, 535.0, 510.0)"></image><image xlink:href="../../B9CDE0F1-30EB-4553-A1FE-8FC4A404744C/assets/A10FFCD93D7F78EF912CB1F3A3D350A4.png" width="480.00" height="282.00" transform="matrix(1.00, 0.00, -0.00, 1.00, 520.0, 243.0)"></image><image xlink:href="B1F38486A50DA1E2FC148E602E217B3A.png" width="351.00" height="19.00" transform="matrix(1.00, 0.00, -0.00, -1.00, 586.0, 214.0)"></image><text xml:space="preserve" font-family="HelveticaNeue-Light" font-size="12.0" fill="#FEFFFE" transform="matrix(1.00, 0.00, -0.00, -1.00, 586.0, 204.0)">h</text><text xml:space="preserve" font-family="HelveticaNeue-Light" font-size="12.0" fill="#FEFFFE" transform="matrix(1.00, 0.00, -0.00, -1.00, 592.4, 204.0)">t</text><text xml:space="preserve" font-family="HelveticaNeue-Light" font-size="12.0" fill="#FEFFFE" transform="matrix(1.00, 0.00, -0.00, -1.00, 596.0, 204.0)">t</text><text xml:space="preserve" font-family="HelveticaNeue-Light" font-size="12.0" fill="#FEFFFE" transform="matrix(1.00, 0.00, -0.00, -1.00, 599.5, 204.0)">p</text><text xml:space="preserve" font-family="HelveticaNeue-Light" font-size="12.0" fill="#FEFFFE" transform="matrix(1.00, 0.00, -0.00, -1.00, 606.4, 204.0)">:</text><text xml:space="preserve" font-family="HelveticaNeue-Light" font-size="12.0" fill="#FEFFFE" transform="matrix(1.00, 0.00, -0.00, -1.00, 609.8, 204.0)">/</text><text xml:space="preserve" font-family="HelveticaNeue-Light" font-size="12.0" fill="#FEFFFE" transform="matrix(1.00, 0.00, -0.00, -1.00, 613.8, 204.0)">/</text><text xml:space="preserve" font-family="HelveticaNeue-Light" font-size="12.0" fill="#FEFFFE" transform="matrix(1.00, 0.00, -0.00, -1.00, 617.8, 204.0)">w</text><text xml:space="preserve" font-family="HelveticaNeue-Light" font-size="12.0" fill="#FEFFFE" transform="matrix(1.00, 0.00, -0.00, -1.00, 626.7, 204.0)">w</text><text xml:space="preserve" font-family="HelveticaNeue-Light" font-size="12.0" fill="#FEFFFE" transform="matrix(1.00, 0.00, -0.00, -1.00, 635.5, 204.0)">w</text><text xml:space="preserve" font-family="HelveticaNeue-Light" font-size="12.0" fill="#FEFFFE" transform="matrix(1.00, 0.00, -0.00, -1.00, 643.8, 204.0)">.</text><text xml:space="preserve" font-family="HelveticaNeue-Light" font-size="12.0" fill="#FEFFFE" transform="matrix(1.00, 0.00, -0.00, -1.00, 647.1, 204.0)">i</text><text xml:space="preserve" font-family="HelveticaNeue-Light" font-size="12.0" fill="#FEFFFE" transform="matrix(1.00, 0.00, -0.00, -1.00, 649.3, 204.0)">n</text><text xml:space="preserve" font-family="HelveticaNeue-Light" font-size="12.0" fill="#FEFFFE" transform="matrix(1.00, 0.00, -0.00, -1.00, 655.8, 204.0)">d</text><text xml:space="preserve" font-family="HelveticaNeue-Light" font-size="12.0" fill="#FEFFFE" transform="matrix(1.00, 0.00, -0.00, -1.00, 662.7, 204.0)">e</text><text xml:space="preserve" font-family="HelveticaNeue-Light" font-size="12.0" fill="#FEFFFE" transform="matrix(1.00, 0.00, -0.00, -1.00, 668.9, 204.0)">e</text><text xml:space="preserve" font-family="HelveticaNeue-Light" font-size="12.0" fill="#FEFFFE" transform="matrix(1.00, 0.00, -0.00, -1.00, 675.1, 204.0)">d</text><text xml:space="preserve" font-family="HelveticaNeue-Light" font-size="12.0" fill="#FEFFFE" transform="matrix(1.00, 0.00, -0.00, -1.00, 682.0, 204.0)">.</text><text xml:space="preserve" font-family="HelveticaNeue-Light" font-size="12.0" fill="#FEFFFE" transform="matrix(1.00, 0.00, -0.00, -1.00, 685.3, 204.0)">c</text><text xml:space="preserve" font-family="HelveticaNeue-Light" font-size="12.0" fill="#FEFFFE" transform="matrix(1.00, 0.00, -0.00, -1.00, 691.6, 204.0)">o</text><text xml:space="preserve" font-family="HelveticaNeue-Light" font-size="12.0" fill="#FEFFFE" transform="matrix(1.00, 0.00, -0.00, -1.00, 698.2, 204.0)">m</text><text xml:space="preserve" font-family="HelveticaNeue-Light" font-size="12.0" fill="#FEFFFE" transform="matrix(1.00, 0.00, -0.00, -1.00, 708.2, 204.0)">/</text><text xml:space="preserve" font-family="HelveticaNeue-Light" font-size="12.0" fill="#FEFFFE" transform="matrix(1.00, 0.00, -0.00, -1.00, 712.2, 204.0)">j</text><text xml:space="preserve" font-family="HelveticaNeue-Light" font-size="12.0" fill="#FEFFFE" transform="matrix(1.00, 0.00, -0.00, -1.00, 714.5, 204.0)">o</text><text xml:space="preserve" font-family="HelveticaNeue-Light" font-size="12.0" fill="#FEFFFE" transform="matrix(1.00, 0.00, -0.00, -1.00, 721.1, 204.0)">b</text><text xml:space="preserve" font-family="HelveticaNeue-Light" font-size="12.0" fill="#FEFFFE" transform="matrix(1.00, 0.00, -0.00, -1.00, 728.0, 204.0)">t</text><text xml:space="preserve" font-family="HelveticaNeue-Light" font-size="12.0" fill="#FEFFFE" transform="matrix(1.00, 0.00, -0.00, -1.00, 731.6, 204.0)">r</text><text xml:space="preserve" font-family="HelveticaNeue-Light" font-size="12.0" fill="#FEFFFE" transform="matrix(1.00, 0.00, -0.00, -1.00, 735.1, 204.0)">e</text><text xml:space="preserve" font-family="HelveticaNeue-Light" font-size="12.0" fill="#FEFFFE" transform="matrix(1.00, 0.00, -0.00, -1.00, 741.4, 204.0)">n</text><text xml:space="preserve" font-family="HelveticaNeue-Light" font-size="12.0" fill="#FEFFFE" transform="matrix(1.00, 0.00, -0.00, -1.00, 747.8, 204.0)">d</text><text xml:space="preserve" font-family="HelveticaNeue-Light" font-size="12.0" fill="#FEFFFE" transform="matrix(1.00, 0.00, -0.00, -1.00, 754.7, 204.0)">s</text><text xml:space="preserve" font-family="HelveticaNeue-Light" font-size="12.0" fill="#FEFFFE" transform="matrix(1.00, 0.00, -0.00, -1.00, 760.5, 204.0)">?</text><text xml:space="preserve" font-family="HelveticaNeue-Light" font-size="12.0" fill="#FEFFFE" transform="matrix(1.00, 0.00, -0.00, -1.00, 766.9, 204.0)">q</text><text xml:space="preserve" font-family="HelveticaNeue-Light" font-size="12.0" fill="#FEFFFE" transform="matrix(1.00, 0.00, -0.00, -1.00, 773.8, 204.0)">=</text><text xml:space="preserve" font-family="HelveticaNeue-Light" font-size="12.0" fill="#FEFFFE" transform="matrix(1.00, 0.00, -0.00, -1.00, 781.0, 204.0)">+</text><text xml:space="preserve" font-family="HelveticaNeue-Light" font-size="12.0" fill="#FEFFFE" transform="matrix(1.00, 0.00, -0.00, -1.00, 788.2, 204.0)">d</text><text xml:space="preserve" font-family="HelveticaNeue-Light" font-size="12.0" fill="#FEFFFE" transform="matrix(1.00, 0.00, -0.00, -1.00, 795.1, 204.0)">j</text><text xml:space="preserve" font-family="HelveticaNeue-Light" font-size="12.0" fill="#FEFFFE" transform="matrix(1.00, 0.00, -0.00, -1.00, 797.3, 204.0)">a</text><text xml:space="preserve" font-family="HelveticaNeue-Light" font-size="12.0" fill="#FEFFFE" transform="matrix(1.00, 0.00, -0.00, -1.00, 803.5, 204.0)">n</text><text xml:space="preserve" font-family="HelveticaNeue-Light" font-size="12.0" fill="#FEFFFE" transform="matrix(1.00, 0.00, -0.00, -1.00, 810.0, 204.0)">g</text><text xml:space="preserve" font-family="HelveticaNeue-Light" font-size="12.0" fill="#FEFFFE" transform="matrix(1.00, 0.00, -0.00, -1.00, 816.7, 204.0)">o</text><text xml:space="preserve" font-family="HelveticaNeue-Light" font-size="12.0" fill="#FEFFFE" transform="matrix(1.00, 0.00, -0.00, -1.00, 823.3, 204.0)">%</text><text xml:space="preserve" font-family="HelveticaNeue-Light" font-size="12.0" fill="#FEFFFE" transform="matrix(1.00, 0.00, -0.00, -1.00, 834.0, 204.0)">2</text><text xml:space="preserve" font-family="HelveticaNeue-Light" font-size="12.0" fill="#FEFFFE" transform="matrix(1.00, 0.00, -0.00, -1.00, 840.7, 204.0)">C</text><text xml:space="preserve" font-family="HelveticaNeue-Light" font-size="12.0" fill="#FEFFFE" transform="matrix(1.00, 0.00, -0.00, -1.00, 849.1, 204.0)">+</text><text xml:space="preserve" font-family="HelveticaNeue-Light" font-size="12.0" fill="#FEFFFE" transform="matrix(1.00, 0.00, -0.00, -1.00, 856.3, 204.0)">p</text><text xml:space="preserve" font-family="HelveticaNeue-Light" font-size="12.0" fill="#FEFFFE" transform="matrix(1.00, 0.00, -0.00, -1.00, 863.2, 204.0)">h</text><text xml:space="preserve" font-family="HelveticaNeue-Light" font-size="12.0" fill="#FEFFFE" transform="matrix(1.00, 0.00, -0.00, -1.00, 869.6, 204.0)">p</text><text xml:space="preserve" font-family="HelveticaNeue-Light" font-size="12.0" fill="#FEFFFE" transform="matrix(1.00, 0.00, -0.00, -1.00, 876.5, 204.0)">&amp;</text><text xml:space="preserve" font-family="HelveticaNeue-Light" font-size="12.0" fill="#FEFFFE" transform="matrix(1.00, 0.00, -0.00, -1.00, 883.9, 204.0)">r</text><text xml:space="preserve" font-family="HelveticaNeue-Light" font-size="12.0" fill="#FEFFFE" transform="matrix(1.00, 0.00, -0.00, -1.00, 887.4, 204.0)">e</text><text xml:space="preserve" font-family="HelveticaNeue-Light" font-size="12.0" fill="#FEFFFE" transform="matrix(1.00, 0.00, -0.00, -1.00, 893.7, 204.0)">l</text><text xml:space="preserve" font-family="HelveticaNeue-Light" font-size="12.0" fill="#FEFFFE" transform="matrix(1.00, 0.00, -0.00, -1.00, 895.9, 204.0)">a</text><text xml:space="preserve" font-family="HelveticaNeue-Light" font-size="12.0" fill="#FEFFFE" transform="matrix(1.00, 0.00, -0.00, -1.00, 902.1, 204.0)">t</text><text xml:space="preserve" font-family="HelveticaNeue-Light" font-size="12.0" fill="#FEFFFE" transform="matrix(1.00, 0.00, -0.00, -1.00, 905.7, 204.0)">i</text><text xml:space="preserve" font-family="HelveticaNeue-Light" font-size="12.0" fill="#FEFFFE" transform="matrix(1.00, 0.00, -0.00, -1.00, 907.9, 204.0)">v</text><text xml:space="preserve" font-family="HelveticaNeue-Light" font-size="12.0" fill="#FEFFFE" transform="matrix(1.00, 0.00, -0.00, -1.00, 913.4, 204.0)">e</text><text xml:space="preserve" font-family="HelveticaNeue-Light" font-size="12.0" fill="#FEFFFE" transform="matrix(1.00, 0.00, -0.00, -1.00, 919.7, 204.0)">=</text><text xml:space="preserve" font-family="HelveticaNeue-Light" font-size="12.0" fill="#FEFFFE" transform="matrix(1.00, 0.00, -0.00, -1.00, 926.9, 204.0)">1</text><g><clipPath id="clip-226"><path d="M 585.2 201.9 L 933.8 201.9 L 933.8 204.5 L 585.2 204.5 Z M 585.2 201.9 "></path></clipPath><g clip-path="url(#clip-226)"><path d="M 271.0 17.3 L 618.6 17.3 " fill="none" stroke="#FEFFFE" stroke-width="0.60" stroke-miterlimit="0.00" transform="matrix(1.00, 0.00, 0.00, -1.00, 315.2, 220.5)"></path></g></g></g></svg>